<?xml version="1.0" encoding="utf-8"?><svg xmlns="http://www.w3.org/2000/svg" xmlns:xlink="http://www.w3.org/1999/xlink"><symbol id="checkbox" viewBox="-5 -5 510 510"><style>.ast0{fill:#fff;stroke:red;stroke-width:20;stroke-miterlimit:10}</style><path class="ast0" d="M478 490H22c-6.6 0-12-5.4-12-12V22c0-6.6 5.4-12 12-12h456c6.6 0 12 5.4 12 12v456c0 6.6-5.4 12-12 12z"/><path d="M445.1 212.7c-.1-15.4-10.7-25.2-26.1-25.4h-9.1v-4.9-43.9c0-4.2-1.2-7.7-4-10.9C379 97 352.3 66.3 325.4 35.7c-1.9-2.2-4.3-4-6.5-6H103.8C93.1 33.6 89.9 41.5 90 52.3c.3 43.2.1 86.3.1 129.5v5.5h-8.9c-15.6.1-26.2 10.1-26.3 25.7-.2 42.2-.2 84.3 0 126.5.1 15.4 10.5 25.3 25.9 25.7 2.9.1 5.7 0 9.3 0v5.1c0 25.8.2 51.6-.1 77.4-.2 10.8 3.1 18.7 13.7 22.6h292.6c10.6-3.9 13.9-11.8 13.7-22.5-.4-25.7-.1-51.3-.1-77v-5.6c3.3 0 6.3.1 9.2 0 15.4-.3 25.9-10.2 25.9-25.6.3-42.3.4-84.6.1-126.9zM107.6 47.2h200v85.3c0 8.7 3 11.6 11.7 11.6h73V187H107.6V47.2zM341.3 233c-.6-1.8-2.1-2.7-4.5-2.7-2 0-3.4.8-4.1 2.3-.7 1.6-1.1 5.6-1.1 12v60.7c0 5.7.4 9.4 1.1 11.2.7 1.8 2.2 2.7 4.4 2.7 2.4 0 4-1 4.9-3s1.3-6 1.3-11.9v-15h-6.6v-19.2h38.5V338h-20.7l-3-9.1c-2.2 3.9-5.1 6.8-8.5 8.8-3.4 2-7.4 2.9-12.1 2.9-5.5 0-10.7-1.3-15.5-4s-8.5-6-11-10-4.1-8.1-4.7-12.5c-.6-4.3-.9-10.9-.9-19.6v-37.6c0-12.1.7-20.9 2-26.3 1.3-5.5 5-10.5 11.2-15 6.2-4.6 14.2-6.8 23.9-6.8 9.6 0 17.6 2 24 5.9 6.4 4 10.5 8.7 12.4 14.1 1.9 5.4 2.9 13.3 2.9 23.7v5.5h-32.9v-11.5c0-7.1-.3-11.7-1-13.5zm-55.1-21.5L269.4 338h-50l-19-126.5h34.7c4 34.8 6.9 64.3 8.6 88.4 1.7-24.4 3.5-46 5.4-64.9l2.3-23.5h34.8zM147.3 317.2c.9 1.4 2.4 2 4.6 2s3.8-.9 4.9-2.6c1.1-1.7 1.6-4.3 1.6-7.7 0-7.4-1-12.3-3-14.6-2.1-2.3-7.2-6.1-15.4-11.5s-13.6-9.3-16.3-11.8c-2.7-2.4-4.9-5.8-6.6-10.2-1.7-4.3-2.6-9.8-2.6-16.6 0-9.7 1.2-16.8 3.7-21.3s6.5-8 12-10.5 12.2-3.8 20-3.8c8.5 0 15.8 1.4 21.8 4.1 6 2.8 10 6.2 12 10.4s2.9 11.3 2.9 21.4v5h-30.5v-9.4c0-4.4-.4-7.2-1.2-8.4-.8-1.2-2.1-1.8-3.9-1.8-2 0-3.5.8-4.5 2.4s-1.5 4.1-1.5 7.3c0 4.2.6 7.4 1.7 9.5 1.1 2.1 4.2 4.7 9.3 7.7 14.6 8.7 23.9 15.8 27.7 21.4 3.8 5.6 5.7 14.6 5.7 27 0 9-1.1 15.7-3.2 19.9-2.1 4.3-6.2 7.9-12.2 10.7-6 2.9-13.1 4.3-21.1 4.3-8.8 0-16.3-1.7-22.5-5-6.2-3.3-10.3-7.6-12.2-12.7-1.9-5.2-2.9-12.5-2.9-22v-8.3H146v15.4c0 5.3.5 8.4 1.3 9.7zm240.8 131.2c-92-.1-184.1-.1-276.1-.1-2.5 0-4.7.3-4.7-3.6.1-25.7.1-51.3.1-77 0-.7.1-1.4.2-2.5h284.8c.1 1.5.2 2.8.2 4.2 0 24.8-.1 49.6.1 74.4.1 3.8-1.1 4.6-4.6 4.6z"/></symbol><symbol id="logo" viewBox="-5 -5 510 510"><style>.bst0{fill:#fff;stroke:red;stroke-width:20;stroke-miterlimit:10}</style><path class="bst0" d="M478 490H22c-6.6 0-12-5.4-12-12V22c0-6.6 5.4-12 12-12h456c6.6 0 12 5.4 12 12v456c0 6.6-5.4 12-12 12z"/><path d="M445.1 212.7c-.1-15.4-10.7-25.2-26.1-25.4h-9.1v-4.9-43.9c0-4.2-1.2-7.7-4-10.9C379 97 352.3 66.3 325.4 35.7c-1.9-2.2-4.3-4-6.5-6H103.8C93.1 33.6 89.9 41.5 90 52.3c.3 43.2.1 86.3.1 129.5v5.5h-8.9c-15.6.1-26.2 10.1-26.3 25.7-.2 42.2-.2 84.3 0 126.5.1 15.4 10.5 25.3 25.9 25.7 2.9.1 5.7 0 9.3 0v5.1c0 25.8.2 51.6-.1 77.4-.2 10.8 3.1 18.7 13.7 22.6h292.6c10.6-3.9 13.9-11.8 13.7-22.5-.4-25.7-.1-51.3-.1-77v-5.6c3.3 0 6.3.1 9.2 0 15.4-.3 25.9-10.2 25.9-25.6.3-42.3.4-84.6.1-126.9zM107.6 47.2h200v85.3c0 8.7 3 11.6 11.7 11.6h73V187H107.6V47.2zM341.3 233c-.6-1.8-2.1-2.7-4.5-2.7-2 0-3.4.8-4.1 2.3-.7 1.6-1.1 5.6-1.1 12v60.7c0 5.7.4 9.4 1.1 11.2.7 1.8 2.2 2.7 4.4 2.7 2.4 0 4-1 4.9-3s1.3-6 1.3-11.9v-15h-6.6v-19.2h38.5V338h-20.7l-3-9.1c-2.2 3.9-5.1 6.8-8.5 8.8-3.4 2-7.4 2.9-12.1 2.9-5.5 0-10.7-1.3-15.5-4s-8.5-6-11-10-4.1-8.1-4.7-12.5c-.6-4.3-.9-10.9-.9-19.6v-37.6c0-12.1.7-20.9 2-26.3 1.3-5.5 5-10.5 11.2-15 6.2-4.6 14.2-6.8 23.9-6.8 9.6 0 17.6 2 24 5.9 6.4 4 10.5 8.7 12.4 14.1 1.9 5.4 2.9 13.3 2.9 23.7v5.5h-32.9v-11.5c0-7.1-.3-11.7-1-13.5zm-55.1-21.5L269.4 338h-50l-19-126.5h34.7c4 34.8 6.9 64.3 8.6 88.4 1.7-24.4 3.5-46 5.4-64.9l2.3-23.5h34.8zM147.3 317.2c.9 1.4 2.4 2 4.6 2s3.8-.9 4.9-2.6c1.1-1.7 1.6-4.3 1.6-7.7 0-7.4-1-12.3-3-14.6-2.1-2.3-7.2-6.1-15.4-11.5s-13.6-9.3-16.3-11.8c-2.7-2.4-4.9-5.8-6.6-10.2-1.7-4.3-2.6-9.8-2.6-16.6 0-9.7 1.2-16.8 3.7-21.3s6.5-8 12-10.5 12.2-3.8 20-3.8c8.5 0 15.8 1.4 21.8 4.1 6 2.8 10 6.2 12 10.4s2.9 11.3 2.9 21.4v5h-30.5v-9.4c0-4.4-.4-7.2-1.2-8.4-.8-1.2-2.1-1.8-3.9-1.8-2 0-3.5.8-4.5 2.4s-1.5 4.1-1.5 7.3c0 4.2.6 7.4 1.7 9.5 1.1 2.1 4.2 4.7 9.3 7.7 14.6 8.7 23.9 15.8 27.7 21.4 3.8 5.6 5.7 14.6 5.7 27 0 9-1.1 15.7-3.2 19.9-2.1 4.3-6.2 7.9-12.2 10.7-6 2.9-13.1 4.3-21.1 4.3-8.8 0-16.3-1.7-22.5-5-6.2-3.3-10.3-7.6-12.2-12.7-1.9-5.2-2.9-12.5-2.9-22v-8.3H146v15.4c0 5.3.5 8.4 1.3 9.7zm240.8 131.2c-92-.1-184.1-.1-276.1-.1-2.5 0-4.7.3-4.7-3.6.1-25.7.1-51.3.1-77 0-.7.1-1.4.2-2.5h284.8c.1 1.5.2 2.8.2 4.2 0 24.8-.1 49.6.1 74.4.1 3.8-1.1 4.6-4.6 4.6z"/></symbol><symbol id="social___add" viewBox="-5 -5 510 510"><style>.cst0{fill:#fff;stroke:red;stroke-width:20;stroke-miterlimit:10}</style><path class="cst0" d="M478 490H22c-6.6 0-12-5.4-12-12V22c0-6.6 5.4-12 12-12h456c6.6 0 12 5.4 12 12v456c0 6.6-5.4 12-12 12z"/><path d="M445.1 212.7c-.1-15.4-10.7-25.2-26.1-25.4h-9.1v-4.9-43.9c0-4.2-1.2-7.7-4-10.9C379 97 352.3 66.3 325.4 35.7c-1.9-2.2-4.3-4-6.5-6H103.8C93.1 33.6 89.9 41.5 90 52.3c.3 43.2.1 86.3.1 129.5v5.5h-8.9c-15.6.1-26.2 10.1-26.3 25.7-.2 42.2-.2 84.3 0 126.5.1 15.4 10.5 25.3 25.9 25.7 2.9.1 5.7 0 9.3 0v5.1c0 25.8.2 51.6-.1 77.4-.2 10.8 3.1 18.7 13.7 22.6h292.6c10.6-3.9 13.9-11.8 13.7-22.5-.4-25.7-.1-51.3-.1-77v-5.6c3.3 0 6.3.1 9.2 0 15.4-.3 25.9-10.2 25.9-25.6.3-42.3.4-84.6.1-126.9zM107.6 47.2h200v85.3c0 8.7 3 11.6 11.7 11.6h73V187H107.6V47.2zM341.3 233c-.6-1.8-2.1-2.7-4.5-2.7-2 0-3.4.8-4.1 2.3-.7 1.6-1.1 5.6-1.1 12v60.7c0 5.7.4 9.4 1.1 11.2.7 1.8 2.2 2.7 4.4 2.7 2.4 0 4-1 4.9-3s1.3-6 1.3-11.9v-15h-6.6v-19.2h38.5V338h-20.7l-3-9.1c-2.2 3.9-5.1 6.8-8.5 8.8-3.4 2-7.4 2.9-12.1 2.9-5.5 0-10.7-1.3-15.5-4s-8.5-6-11-10-4.1-8.1-4.7-12.5c-.6-4.3-.9-10.9-.9-19.6v-37.6c0-12.1.7-20.9 2-26.3 1.3-5.5 5-10.5 11.2-15 6.2-4.6 14.2-6.8 23.9-6.8 9.6 0 17.6 2 24 5.9 6.4 4 10.5 8.7 12.4 14.1 1.9 5.4 2.9 13.3 2.9 23.7v5.5h-32.9v-11.5c0-7.1-.3-11.7-1-13.5zm-55.1-21.5L269.4 338h-50l-19-126.5h34.7c4 34.8 6.9 64.3 8.6 88.4 1.7-24.4 3.5-46 5.4-64.9l2.3-23.5h34.8zM147.3 317.2c.9 1.4 2.4 2 4.6 2s3.8-.9 4.9-2.6c1.1-1.7 1.6-4.3 1.6-7.7 0-7.4-1-12.3-3-14.6-2.1-2.3-7.2-6.1-15.4-11.5s-13.6-9.3-16.3-11.8c-2.7-2.4-4.9-5.8-6.6-10.2-1.7-4.3-2.6-9.8-2.6-16.6 0-9.7 1.2-16.8 3.7-21.3s6.5-8 12-10.5 12.2-3.8 20-3.8c8.5 0 15.8 1.4 21.8 4.1 6 2.8 10 6.2 12 10.4s2.9 11.3 2.9 21.4v5h-30.5v-9.4c0-4.4-.4-7.2-1.2-8.4-.8-1.2-2.1-1.8-3.9-1.8-2 0-3.5.8-4.5 2.4s-1.5 4.1-1.5 7.3c0 4.2.6 7.4 1.7 9.5 1.1 2.1 4.2 4.7 9.3 7.7 14.6 8.7 23.9 15.8 27.7 21.4 3.8 5.6 5.7 14.6 5.7 27 0 9-1.1 15.7-3.2 19.9-2.1 4.3-6.2 7.9-12.2 10.7-6 2.9-13.1 4.3-21.1 4.3-8.8 0-16.3-1.7-22.5-5-6.2-3.3-10.3-7.6-12.2-12.7-1.9-5.2-2.9-12.5-2.9-22v-8.3H146v15.4c0 5.3.5 8.4 1.3 9.7zm240.8 131.2c-92-.1-184.1-.1-276.1-.1-2.5 0-4.7.3-4.7-3.6.1-25.7.1-51.3.1-77 0-.7.1-1.4.2-2.5h284.8c.1 1.5.2 2.8.2 4.2 0 24.8-.1 49.6.1 74.4.1 3.8-1.1 4.6-4.6 4.6z"/></symbol><symbol id="social___facebook" viewBox="-5 -5 510 510"><style>.dst0{fill:#fff;stroke:red;stroke-width:20;stroke-miterlimit:10}</style><path class="dst0" d="M478 490H22c-6.6 0-12-5.4-12-12V22c0-6.6 5.4-12 12-12h456c6.6 0 12 5.4 12 12v456c0 6.6-5.4 12-12 12z"/><path d="M445.1 212.7c-.1-15.4-10.7-25.2-26.1-25.4h-9.1v-4.9-43.9c0-4.2-1.2-7.7-4-10.9C379 97 352.3 66.3 325.4 35.7c-1.9-2.2-4.3-4-6.5-6H103.8C93.1 33.6 89.9 41.5 90 52.3c.3 43.2.1 86.3.1 129.5v5.5h-8.9c-15.6.1-26.2 10.1-26.3 25.7-.2 42.2-.2 84.3 0 126.5.1 15.4 10.5 25.3 25.9 25.7 2.9.1 5.7 0 9.3 0v5.1c0 25.8.2 51.6-.1 77.4-.2 10.8 3.1 18.7 13.7 22.6h292.6c10.6-3.9 13.9-11.8 13.7-22.5-.4-25.7-.1-51.3-.1-77v-5.6c3.3 0 6.3.1 9.2 0 15.4-.3 25.9-10.2 25.9-25.6.3-42.3.4-84.6.1-126.9zM107.6 47.2h200v85.3c0 8.7 3 11.6 11.7 11.6h73V187H107.6V47.2zM341.3 233c-.6-1.8-2.1-2.7-4.5-2.7-2 0-3.4.8-4.1 2.3-.7 1.6-1.1 5.6-1.1 12v60.7c0 5.7.4 9.4 1.1 11.2.7 1.8 2.2 2.7 4.4 2.7 2.4 0 4-1 4.9-3s1.3-6 1.3-11.9v-15h-6.6v-19.2h38.5V338h-20.7l-3-9.1c-2.2 3.9-5.1 6.8-8.5 8.8-3.4 2-7.4 2.9-12.1 2.9-5.5 0-10.7-1.3-15.5-4s-8.5-6-11-10-4.1-8.1-4.7-12.5c-.6-4.3-.9-10.9-.9-19.6v-37.6c0-12.1.7-20.9 2-26.3 1.3-5.5 5-10.5 11.2-15 6.2-4.6 14.2-6.8 23.9-6.8 9.6 0 17.6 2 24 5.9 6.4 4 10.5 8.7 12.4 14.1 1.9 5.4 2.9 13.3 2.9 23.7v5.5h-32.9v-11.5c0-7.1-.3-11.7-1-13.5zm-55.1-21.5L269.4 338h-50l-19-126.5h34.7c4 34.8 6.9 64.3 8.6 88.4 1.7-24.4 3.5-46 5.4-64.9l2.3-23.5h34.8zM147.3 317.2c.9 1.4 2.4 2 4.6 2s3.8-.9 4.9-2.6c1.1-1.7 1.6-4.3 1.6-7.7 0-7.4-1-12.3-3-14.6-2.1-2.3-7.2-6.1-15.4-11.5s-13.6-9.3-16.3-11.8c-2.7-2.4-4.9-5.8-6.6-10.2-1.7-4.3-2.6-9.8-2.6-16.6 0-9.7 1.2-16.8 3.7-21.3s6.5-8 12-10.5 12.2-3.8 20-3.8c8.5 0 15.8 1.4 21.8 4.1 6 2.8 10 6.2 12 10.4s2.9 11.3 2.9 21.4v5h-30.5v-9.4c0-4.4-.4-7.2-1.2-8.4-.8-1.2-2.1-1.8-3.9-1.8-2 0-3.5.8-4.5 2.4s-1.5 4.1-1.5 7.3c0 4.2.6 7.4 1.7 9.5 1.1 2.1 4.2 4.7 9.3 7.7 14.6 8.7 23.9 15.8 27.7 21.4 3.8 5.6 5.7 14.6 5.7 27 0 9-1.1 15.7-3.2 19.9-2.1 4.3-6.2 7.9-12.2 10.7-6 2.9-13.1 4.3-21.1 4.3-8.8 0-16.3-1.7-22.5-5-6.2-3.3-10.3-7.6-12.2-12.7-1.9-5.2-2.9-12.5-2.9-22v-8.3H146v15.4c0 5.3.5 8.4 1.3 9.7zm240.8 131.2c-92-.1-184.1-.1-276.1-.1-2.5 0-4.7.3-4.7-3.6.1-25.7.1-51.3.1-77 0-.7.1-1.4.2-2.5h284.8c.1 1.5.2 2.8.2 4.2 0 24.8-.1 49.6.1 74.4.1 3.8-1.1 4.6-4.6 4.6z"/></symbol><symbol id="social___mail-ru" viewBox="-5 -5 510 510"><style>.est0{fill:#fff;stroke:red;stroke-width:20;stroke-miterlimit:10}</style><path class="est0" d="M478 490H22c-6.6 0-12-5.4-12-12V22c0-6.6 5.4-12 12-12h456c6.6 0 12 5.4 12 12v456c0 6.6-5.4 12-12 12z"/><path d="M445.1 212.7c-.1-15.4-10.7-25.2-26.1-25.4h-9.1v-4.9-43.9c0-4.2-1.2-7.7-4-10.9C379 97 352.3 66.3 325.4 35.7c-1.9-2.2-4.3-4-6.5-6H103.8C93.1 33.6 89.9 41.5 90 52.3c.3 43.2.1 86.3.1 129.5v5.5h-8.9c-15.6.1-26.2 10.1-26.3 25.7-.2 42.2-.2 84.3 0 126.5.1 15.4 10.5 25.3 25.9 25.7 2.9.1 5.7 0 9.3 0v5.1c0 25.8.2 51.6-.1 77.4-.2 10.8 3.1 18.7 13.7 22.6h292.6c10.6-3.9 13.9-11.8 13.7-22.5-.4-25.7-.1-51.3-.1-77v-5.6c3.3 0 6.3.1 9.2 0 15.4-.3 25.9-10.2 25.9-25.6.3-42.3.4-84.6.1-126.9zM107.6 47.2h200v85.3c0 8.7 3 11.6 11.7 11.6h73V187H107.6V47.2zM341.3 233c-.6-1.8-2.1-2.7-4.5-2.7-2 0-3.4.8-4.1 2.3-.7 1.6-1.1 5.6-1.1 12v60.7c0 5.7.4 9.4 1.1 11.2.7 1.8 2.2 2.7 4.4 2.7 2.4 0 4-1 4.9-3s1.3-6 1.3-11.9v-15h-6.6v-19.2h38.5V338h-20.7l-3-9.1c-2.2 3.9-5.1 6.8-8.5 8.8-3.4 2-7.4 2.9-12.1 2.9-5.5 0-10.7-1.3-15.5-4s-8.5-6-11-10-4.1-8.1-4.7-12.5c-.6-4.3-.9-10.9-.9-19.6v-37.6c0-12.1.7-20.9 2-26.3 1.3-5.5 5-10.5 11.2-15 6.2-4.6 14.2-6.8 23.9-6.8 9.6 0 17.6 2 24 5.9 6.4 4 10.5 8.7 12.4 14.1 1.9 5.4 2.9 13.3 2.9 23.7v5.5h-32.9v-11.5c0-7.1-.3-11.7-1-13.5zm-55.1-21.5L269.4 338h-50l-19-126.5h34.7c4 34.8 6.9 64.3 8.6 88.4 1.7-24.4 3.5-46 5.4-64.9l2.3-23.5h34.8zM147.3 317.2c.9 1.4 2.4 2 4.6 2s3.8-.9 4.9-2.6c1.1-1.7 1.6-4.3 1.6-7.7 0-7.4-1-12.3-3-14.6-2.1-2.3-7.2-6.1-15.4-11.5s-13.6-9.3-16.3-11.8c-2.7-2.4-4.9-5.8-6.6-10.2-1.7-4.3-2.6-9.8-2.6-16.6 0-9.7 1.2-16.8 3.7-21.3s6.5-8 12-10.5 12.2-3.8 20-3.8c8.5 0 15.8 1.4 21.8 4.1 6 2.8 10 6.2 12 10.4s2.9 11.3 2.9 21.4v5h-30.5v-9.4c0-4.4-.4-7.2-1.2-8.4-.8-1.2-2.1-1.8-3.9-1.8-2 0-3.5.8-4.5 2.4s-1.5 4.1-1.5 7.3c0 4.2.6 7.4 1.7 9.5 1.1 2.1 4.2 4.7 9.3 7.7 14.6 8.7 23.9 15.8 27.7 21.4 3.8 5.6 5.7 14.6 5.7 27 0 9-1.1 15.7-3.2 19.9-2.1 4.3-6.2 7.9-12.2 10.7-6 2.9-13.1 4.3-21.1 4.3-8.8 0-16.3-1.7-22.5-5-6.2-3.3-10.3-7.6-12.2-12.7-1.9-5.2-2.9-12.5-2.9-22v-8.3H146v15.4c0 5.3.5 8.4 1.3 9.7zm240.8 131.2c-92-.1-184.1-.1-276.1-.1-2.5 0-4.7.3-4.7-3.6.1-25.7.1-51.3.1-77 0-.7.1-1.4.2-2.5h284.8c.1 1.5.2 2.8.2 4.2 0 24.8-.1 49.6.1 74.4.1 3.8-1.1 4.6-4.6 4.6z"/></symbol><symbol id="social___ok" viewBox="-5 -5 510 510"><style>.fst0{fill:#fff;stroke:red;stroke-width:20;stroke-miterlimit:10}</style><path class="fst0" d="M478 490H22c-6.6 0-12-5.4-12-12V22c0-6.6 5.4-12 12-12h456c6.6 0 12 5.4 12 12v456c0 6.6-5.4 12-12 12z"/><path d="M445.1 212.7c-.1-15.4-10.7-25.2-26.1-25.4h-9.1v-4.9-43.9c0-4.2-1.2-7.7-4-10.9C379 97 352.3 66.3 325.4 35.7c-1.9-2.2-4.3-4-6.5-6H103.8C93.1 33.6 89.9 41.5 90 52.3c.3 43.2.1 86.3.1 129.5v5.5h-8.9c-15.6.1-26.2 10.1-26.3 25.7-.2 42.2-.2 84.3 0 126.5.1 15.4 10.5 25.3 25.9 25.7 2.9.1 5.7 0 9.3 0v5.1c0 25.8.2 51.6-.1 77.4-.2 10.8 3.1 18.7 13.7 22.6h292.6c10.6-3.9 13.9-11.8 13.7-22.5-.4-25.7-.1-51.3-.1-77v-5.6c3.3 0 6.3.1 9.2 0 15.4-.3 25.9-10.2 25.9-25.6.3-42.3.4-84.6.1-126.9zM107.6 47.2h200v85.3c0 8.7 3 11.6 11.7 11.6h73V187H107.6V47.2zM341.3 233c-.6-1.8-2.1-2.7-4.5-2.7-2 0-3.4.8-4.1 2.3-.7 1.6-1.1 5.6-1.1 12v60.7c0 5.7.4 9.4 1.1 11.2.7 1.8 2.2 2.7 4.4 2.7 2.4 0 4-1 4.9-3s1.3-6 1.3-11.9v-15h-6.6v-19.2h38.5V338h-20.7l-3-9.1c-2.2 3.9-5.1 6.8-8.5 8.8-3.4 2-7.4 2.9-12.1 2.9-5.5 0-10.7-1.3-15.5-4s-8.5-6-11-10-4.1-8.1-4.7-12.5c-.6-4.3-.9-10.9-.9-19.6v-37.6c0-12.1.7-20.9 2-26.3 1.3-5.5 5-10.5 11.2-15 6.2-4.6 14.2-6.8 23.9-6.8 9.6 0 17.6 2 24 5.9 6.4 4 10.5 8.7 12.4 14.1 1.9 5.4 2.9 13.3 2.9 23.7v5.5h-32.9v-11.5c0-7.1-.3-11.7-1-13.5zm-55.1-21.5L269.4 338h-50l-19-126.5h34.7c4 34.8 6.9 64.3 8.6 88.4 1.7-24.4 3.5-46 5.4-64.9l2.3-23.5h34.8zM147.3 317.2c.9 1.4 2.4 2 4.6 2s3.8-.9 4.9-2.6c1.1-1.7 1.6-4.3 1.6-7.7 0-7.4-1-12.3-3-14.6-2.1-2.3-7.2-6.1-15.4-11.5s-13.6-9.3-16.3-11.8c-2.7-2.4-4.9-5.8-6.6-10.2-1.7-4.3-2.6-9.8-2.6-16.6 0-9.7 1.2-16.8 3.7-21.3s6.5-8 12-10.5 12.2-3.8 20-3.8c8.5 0 15.8 1.4 21.8 4.1 6 2.8 10 6.2 12 10.4s2.9 11.3 2.9 21.4v5h-30.5v-9.4c0-4.4-.4-7.2-1.2-8.4-.8-1.2-2.1-1.8-3.9-1.8-2 0-3.5.8-4.5 2.4s-1.5 4.1-1.5 7.3c0 4.2.6 7.4 1.7 9.5 1.1 2.1 4.2 4.7 9.3 7.7 14.6 8.7 23.9 15.8 27.7 21.4 3.8 5.6 5.7 14.6 5.7 27 0 9-1.1 15.7-3.2 19.9-2.1 4.3-6.2 7.9-12.2 10.7-6 2.9-13.1 4.3-21.1 4.3-8.8 0-16.3-1.7-22.5-5-6.2-3.3-10.3-7.6-12.2-12.7-1.9-5.2-2.9-12.5-2.9-22v-8.3H146v15.4c0 5.3.5 8.4 1.3 9.7zm240.8 131.2c-92-.1-184.1-.1-276.1-.1-2.5 0-4.7.3-4.7-3.6.1-25.7.1-51.3.1-77 0-.7.1-1.4.2-2.5h284.8c.1 1.5.2 2.8.2 4.2 0 24.8-.1 49.6.1 74.4.1 3.8-1.1 4.6-4.6 4.6z"/></symbol><symbol id="social___vk" viewBox="-5 -5 510 510"><style>.gst0{fill:#fff;stroke:red;stroke-width:20;stroke-miterlimit:10}</style><path class="gst0" d="M478 490H22c-6.6 0-12-5.4-12-12V22c0-6.6 5.4-12 12-12h456c6.6 0 12 5.4 12 12v456c0 6.6-5.4 12-12 12z"/><path d="M445.1 212.7c-.1-15.4-10.7-25.2-26.1-25.4h-9.1v-4.9-43.9c0-4.2-1.2-7.7-4-10.9C379 97 352.3 66.3 325.4 35.7c-1.9-2.2-4.3-4-6.5-6H103.8C93.1 33.6 89.9 41.5 90 52.3c.3 43.2.1 86.3.1 129.5v5.5h-8.9c-15.6.1-26.2 10.1-26.3 25.7-.2 42.2-.2 84.3 0 126.5.1 15.4 10.5 25.3 25.9 25.7 2.9.1 5.7 0 9.3 0v5.1c0 25.8.2 51.6-.1 77.4-.2 10.8 3.1 18.7 13.7 22.6h292.6c10.6-3.9 13.9-11.8 13.7-22.5-.4-25.7-.1-51.3-.1-77v-5.6c3.3 0 6.3.1 9.2 0 15.4-.3 25.9-10.2 25.9-25.6.3-42.3.4-84.6.1-126.9zM107.6 47.2h200v85.3c0 8.7 3 11.6 11.7 11.6h73V187H107.6V47.2zM341.3 233c-.6-1.8-2.1-2.7-4.5-2.7-2 0-3.4.8-4.1 2.3-.7 1.6-1.1 5.6-1.1 12v60.7c0 5.7.4 9.4 1.1 11.2.7 1.8 2.2 2.7 4.4 2.7 2.4 0 4-1 4.9-3s1.3-6 1.3-11.9v-15h-6.6v-19.2h38.5V338h-20.7l-3-9.1c-2.2 3.9-5.1 6.8-8.5 8.8-3.4 2-7.4 2.9-12.1 2.9-5.5 0-10.7-1.3-15.5-4s-8.5-6-11-10-4.1-8.1-4.7-12.5c-.6-4.3-.9-10.9-.9-19.6v-37.6c0-12.1.7-20.9 2-26.3 1.3-5.5 5-10.5 11.2-15 6.2-4.6 14.2-6.8 23.9-6.8 9.6 0 17.6 2 24 5.9 6.4 4 10.5 8.7 12.4 14.1 1.9 5.4 2.9 13.3 2.9 23.7v5.5h-32.9v-11.5c0-7.1-.3-11.7-1-13.5zm-55.1-21.5L269.4 338h-50l-19-126.5h34.7c4 34.8 6.9 64.3 8.6 88.4 1.7-24.4 3.5-46 5.4-64.9l2.3-23.5h34.8zM147.3 317.2c.9 1.4 2.4 2 4.6 2s3.8-.9 4.9-2.6c1.1-1.7 1.6-4.3 1.6-7.7 0-7.4-1-12.3-3-14.6-2.1-2.3-7.2-6.1-15.4-11.5s-13.6-9.3-16.3-11.8c-2.7-2.4-4.9-5.8-6.6-10.2-1.7-4.3-2.6-9.8-2.6-16.6 0-9.7 1.2-16.8 3.7-21.3s6.5-8 12-10.5 12.2-3.8 20-3.8c8.5 0 15.8 1.4 21.8 4.1 6 2.8 10 6.2 12 10.4s2.9 11.3 2.9 21.4v5h-30.5v-9.4c0-4.4-.4-7.2-1.2-8.4-.8-1.2-2.1-1.8-3.9-1.8-2 0-3.5.8-4.5 2.4s-1.5 4.1-1.5 7.3c0 4.2.6 7.4 1.7 9.5 1.1 2.1 4.2 4.7 9.3 7.7 14.6 8.7 23.9 15.8 27.7 21.4 3.8 5.6 5.7 14.6 5.7 27 0 9-1.1 15.7-3.2 19.9-2.1 4.3-6.2 7.9-12.2 10.7-6 2.9-13.1 4.3-21.1 4.3-8.8 0-16.3-1.7-22.5-5-6.2-3.3-10.3-7.6-12.2-12.7-1.9-5.2-2.9-12.5-2.9-22v-8.3H146v15.4c0 5.3.5 8.4 1.3 9.7zm240.8 131.2c-92-.1-184.1-.1-276.1-.1-2.5 0-4.7.3-4.7-3.6.1-25.7.1-51.3.1-77 0-.7.1-1.4.2-2.5h284.8c.1 1.5.2 2.8.2 4.2 0 24.8-.1 49.6.1 74.4.1 3.8-1.1 4.6-4.6 4.6z"/></symbol><symbol id="social__print" viewBox="-5 -5 510 510"><style>.hst0{fill:#fff;stroke:red;stroke-width:20;stroke-miterlimit:10}</style><path class="hst0" d="M478 490H22c-6.6 0-12-5.4-12-12V22c0-6.6 5.4-12 12-12h456c6.6 0 12 5.4 12 12v456c0 6.6-5.4 12-12 12z"/><path d="M445.1 212.7c-.1-15.4-10.7-25.2-26.1-25.4h-9.1v-4.9-43.9c0-4.2-1.2-7.7-4-10.9C379 97 352.3 66.3 325.4 35.7c-1.9-2.2-4.3-4-6.5-6H103.8C93.1 33.6 89.9 41.5 90 52.3c.3 43.2.1 86.3.1 129.5v5.5h-8.9c-15.6.1-26.2 10.1-26.3 25.7-.2 42.2-.2 84.3 0 126.5.1 15.4 10.5 25.3 25.9 25.7 2.9.1 5.7 0 9.3 0v5.1c0 25.8.2 51.6-.1 77.4-.2 10.8 3.1 18.7 13.7 22.6h292.6c10.6-3.9 13.9-11.8 13.7-22.5-.4-25.7-.1-51.3-.1-77v-5.6c3.3 0 6.3.1 9.2 0 15.4-.3 25.9-10.2 25.9-25.6.3-42.3.4-84.6.1-126.9zM107.6 47.2h200v85.3c0 8.7 3 11.6 11.7 11.6h73V187H107.6V47.2zM341.3 233c-.6-1.8-2.1-2.7-4.5-2.7-2 0-3.4.8-4.1 2.3-.7 1.6-1.1 5.6-1.1 12v60.7c0 5.7.4 9.4 1.1 11.2.7 1.8 2.2 2.7 4.4 2.7 2.4 0 4-1 4.9-3s1.3-6 1.3-11.9v-15h-6.6v-19.2h38.5V338h-20.7l-3-9.1c-2.2 3.9-5.1 6.8-8.5 8.8-3.4 2-7.4 2.9-12.1 2.9-5.5 0-10.7-1.3-15.5-4s-8.5-6-11-10-4.1-8.1-4.7-12.5c-.6-4.3-.9-10.9-.9-19.6v-37.6c0-12.1.7-20.9 2-26.3 1.3-5.5 5-10.5 11.2-15 6.2-4.6 14.2-6.8 23.9-6.8 9.6 0 17.6 2 24 5.9 6.4 4 10.5 8.7 12.4 14.1 1.9 5.4 2.9 13.3 2.9 23.7v5.5h-32.9v-11.5c0-7.1-.3-11.7-1-13.5zm-55.1-21.5L269.4 338h-50l-19-126.5h34.7c4 34.8 6.9 64.3 8.6 88.4 1.7-24.4 3.5-46 5.4-64.9l2.3-23.5h34.8zM147.3 317.2c.9 1.4 2.4 2 4.6 2s3.8-.9 4.9-2.6c1.1-1.7 1.6-4.3 1.6-7.7 0-7.4-1-12.3-3-14.6-2.1-2.3-7.2-6.1-15.4-11.5s-13.6-9.3-16.3-11.8c-2.7-2.4-4.9-5.8-6.6-10.2-1.7-4.3-2.6-9.8-2.6-16.6 0-9.7 1.2-16.8 3.7-21.3s6.5-8 12-10.5 12.2-3.8 20-3.8c8.5 0 15.8 1.4 21.8 4.1 6 2.8 10 6.2 12 10.4s2.9 11.3 2.9 21.4v5h-30.5v-9.4c0-4.4-.4-7.2-1.2-8.4-.8-1.2-2.1-1.8-3.9-1.8-2 0-3.5.8-4.5 2.4s-1.5 4.1-1.5 7.3c0 4.2.6 7.4 1.7 9.5 1.1 2.1 4.2 4.7 9.3 7.7 14.6 8.7 23.9 15.8 27.7 21.4 3.8 5.6 5.7 14.6 5.7 27 0 9-1.1 15.7-3.2 19.9-2.1 4.3-6.2 7.9-12.2 10.7-6 2.9-13.1 4.3-21.1 4.3-8.8 0-16.3-1.7-22.5-5-6.2-3.3-10.3-7.6-12.2-12.7-1.9-5.2-2.9-12.5-2.9-22v-8.3H146v15.4c0 5.3.5 8.4 1.3 9.7zm240.8 131.2c-92-.1-184.1-.1-276.1-.1-2.5 0-4.7.3-4.7-3.6.1-25.7.1-51.3.1-77 0-.7.1-1.4.2-2.5h284.8c.1 1.5.2 2.8.2 4.2 0 24.8-.1 49.6.1 74.4.1 3.8-1.1 4.6-4.6 4.6z"/></symbol><symbol id="social__twitter" viewBox="-5 -5 510 510"><style>.ist0{fill:#fff;stroke:red;stroke-width:20;stroke-miterlimit:10}</style><path class="ist0" d="M478 490H22c-6.6 0-12-5.4-12-12V22c0-6.6 5.4-12 12-12h456c6.6 0 12 5.4 12 12v456c0 6.6-5.4 12-12 12z"/><path d="M445.1 212.7c-.1-15.4-10.7-25.2-26.1-25.4h-9.1v-4.9-43.9c0-4.2-1.2-7.7-4-10.9C379 97 352.3 66.3 325.4 35.7c-1.9-2.2-4.3-4-6.5-6H103.8C93.1 33.6 89.9 41.5 90 52.3c.3 43.2.1 86.3.1 129.5v5.5h-8.9c-15.6.1-26.2 10.1-26.3 25.7-.2 42.2-.2 84.3 0 126.5.1 15.4 10.5 25.3 25.9 25.7 2.9.1 5.7 0 9.3 0v5.1c0 25.8.2 51.6-.1 77.4-.2 10.8 3.1 18.7 13.7 22.6h292.6c10.6-3.9 13.9-11.8 13.7-22.5-.4-25.7-.1-51.3-.1-77v-5.6c3.3 0 6.3.1 9.2 0 15.4-.3 25.9-10.2 25.9-25.6.3-42.3.4-84.6.1-126.9zM107.6 47.2h200v85.3c0 8.7 3 11.6 11.7 11.6h73V187H107.6V47.2zM341.3 233c-.6-1.8-2.1-2.7-4.5-2.7-2 0-3.4.8-4.1 2.3-.7 1.6-1.1 5.6-1.1 12v60.7c0 5.7.4 9.4 1.1 11.2.7 1.8 2.2 2.7 4.4 2.7 2.4 0 4-1 4.9-3s1.3-6 1.3-11.9v-15h-6.6v-19.2h38.5V338h-20.7l-3-9.1c-2.2 3.9-5.1 6.8-8.5 8.8-3.4 2-7.4 2.9-12.1 2.9-5.5 0-10.7-1.3-15.5-4s-8.5-6-11-10-4.1-8.1-4.7-12.5c-.6-4.3-.9-10.9-.9-19.6v-37.6c0-12.1.7-20.9 2-26.3 1.3-5.5 5-10.5 11.2-15 6.2-4.6 14.2-6.8 23.9-6.8 9.6 0 17.6 2 24 5.9 6.4 4 10.5 8.7 12.4 14.1 1.9 5.4 2.9 13.3 2.9 23.7v5.5h-32.9v-11.5c0-7.1-.3-11.7-1-13.5zm-55.1-21.5L269.4 338h-50l-19-126.5h34.7c4 34.8 6.9 64.3 8.6 88.4 1.7-24.4 3.5-46 5.4-64.9l2.3-23.5h34.8zM147.3 317.2c.9 1.4 2.4 2 4.6 2s3.8-.9 4.9-2.6c1.1-1.7 1.6-4.3 1.6-7.7 0-7.4-1-12.3-3-14.6-2.1-2.3-7.2-6.1-15.4-11.5s-13.6-9.3-16.3-11.8c-2.7-2.4-4.9-5.8-6.6-10.2-1.7-4.3-2.6-9.8-2.6-16.6 0-9.7 1.2-16.8 3.7-21.3s6.5-8 12-10.5 12.2-3.8 20-3.8c8.5 0 15.8 1.4 21.8 4.1 6 2.8 10 6.2 12 10.4s2.9 11.3 2.9 21.4v5h-30.5v-9.4c0-4.4-.4-7.2-1.2-8.4-.8-1.2-2.1-1.8-3.9-1.8-2 0-3.5.8-4.5 2.4s-1.5 4.1-1.5 7.3c0 4.2.6 7.4 1.7 9.5 1.1 2.1 4.2 4.7 9.3 7.7 14.6 8.7 23.9 15.8 27.7 21.4 3.8 5.6 5.7 14.6 5.7 27 0 9-1.1 15.7-3.2 19.9-2.1 4.3-6.2 7.9-12.2 10.7-6 2.9-13.1 4.3-21.1 4.3-8.8 0-16.3-1.7-22.5-5-6.2-3.3-10.3-7.6-12.2-12.7-1.9-5.2-2.9-12.5-2.9-22v-8.3H146v15.4c0 5.3.5 8.4 1.3 9.7zm240.8 131.2c-92-.1-184.1-.1-276.1-.1-2.5 0-4.7.3-4.7-3.6.1-25.7.1-51.3.1-77 0-.7.1-1.4.2-2.5h284.8c.1 1.5.2 2.8.2 4.2 0 24.8-.1 49.6.1 74.4.1 3.8-1.1 4.6-4.6 4.6z"/></symbol><symbol id="upline__e-mail" viewBox="-5 -5 510 510"><style>.jst0{fill:#fff;stroke:red;stroke-width:20;stroke-miterlimit:10}</style><path class="jst0" d="M478 490H22c-6.6 0-12-5.4-12-12V22c0-6.6 5.4-12 12-12h456c6.6 0 12 5.4 12 12v456c0 6.6-5.4 12-12 12z"/><path d="M445.1 212.7c-.1-15.4-10.7-25.2-26.1-25.4h-9.1v-4.9-43.9c0-4.2-1.2-7.7-4-10.9C379 97 352.3 66.3 325.4 35.7c-1.9-2.2-4.3-4-6.5-6H103.8C93.1 33.6 89.9 41.5 90 52.3c.3 43.2.1 86.3.1 129.5v5.5h-8.9c-15.6.1-26.2 10.1-26.3 25.7-.2 42.2-.2 84.3 0 126.5.1 15.4 10.5 25.3 25.9 25.7 2.9.1 5.7 0 9.3 0v5.1c0 25.8.2 51.6-.1 77.4-.2 10.8 3.1 18.7 13.7 22.6h292.6c10.6-3.9 13.9-11.8 13.7-22.5-.4-25.7-.1-51.3-.1-77v-5.6c3.3 0 6.3.1 9.2 0 15.4-.3 25.9-10.2 25.9-25.6.3-42.3.4-84.6.1-126.9zM107.6 47.2h200v85.3c0 8.7 3 11.6 11.7 11.6h73V187H107.6V47.2zM341.3 233c-.6-1.8-2.1-2.7-4.5-2.7-2 0-3.4.8-4.1 2.3-.7 1.6-1.1 5.6-1.1 12v60.7c0 5.7.4 9.4 1.1 11.2.7 1.8 2.2 2.7 4.4 2.7 2.4 0 4-1 4.9-3s1.3-6 1.3-11.9v-15h-6.6v-19.2h38.5V338h-20.7l-3-9.1c-2.2 3.9-5.1 6.8-8.5 8.8-3.4 2-7.4 2.9-12.1 2.9-5.5 0-10.7-1.3-15.5-4s-8.5-6-11-10-4.1-8.1-4.7-12.5c-.6-4.3-.9-10.9-.9-19.6v-37.6c0-12.1.7-20.9 2-26.3 1.3-5.5 5-10.5 11.2-15 6.2-4.6 14.2-6.8 23.9-6.8 9.6 0 17.6 2 24 5.9 6.4 4 10.5 8.7 12.4 14.1 1.9 5.4 2.9 13.3 2.9 23.7v5.5h-32.9v-11.5c0-7.1-.3-11.7-1-13.5zm-55.1-21.5L269.4 338h-50l-19-126.5h34.7c4 34.8 6.9 64.3 8.6 88.4 1.7-24.4 3.5-46 5.4-64.9l2.3-23.5h34.8zM147.3 317.2c.9 1.4 2.4 2 4.6 2s3.8-.9 4.9-2.6c1.1-1.7 1.6-4.3 1.6-7.7 0-7.4-1-12.3-3-14.6-2.1-2.3-7.2-6.1-15.4-11.5s-13.6-9.3-16.3-11.8c-2.7-2.4-4.9-5.8-6.6-10.2-1.7-4.3-2.6-9.8-2.6-16.6 0-9.7 1.2-16.8 3.7-21.3s6.5-8 12-10.5 12.2-3.8 20-3.8c8.5 0 15.8 1.4 21.8 4.1 6 2.8 10 6.2 12 10.4s2.9 11.3 2.9 21.4v5h-30.5v-9.4c0-4.4-.4-7.2-1.2-8.4-.8-1.2-2.1-1.8-3.9-1.8-2 0-3.5.8-4.5 2.4s-1.5 4.1-1.5 7.3c0 4.2.6 7.4 1.7 9.5 1.1 2.1 4.2 4.7 9.3 7.7 14.6 8.7 23.9 15.8 27.7 21.4 3.8 5.6 5.7 14.6 5.7 27 0 9-1.1 15.7-3.2 19.9-2.1 4.3-6.2 7.9-12.2 10.7-6 2.9-13.1 4.3-21.1 4.3-8.8 0-16.3-1.7-22.5-5-6.2-3.3-10.3-7.6-12.2-12.7-1.9-5.2-2.9-12.5-2.9-22v-8.3H146v15.4c0 5.3.5 8.4 1.3 9.7zm240.8 131.2c-92-.1-184.1-.1-276.1-.1-2.5 0-4.7.3-4.7-3.6.1-25.7.1-51.3.1-77 0-.7.1-1.4.2-2.5h284.8c.1 1.5.2 2.8.2 4.2 0 24.8-.1 49.6.1 74.4.1 3.8-1.1 4.6-4.6 4.6z"/></symbol><symbol id="upline__phone" viewBox="-5 -5 510 510"><style>.kst0{fill:#fff;stroke:red;stroke-width:20;stroke-miterlimit:10}</style><path class="kst0" d="M478 490H22c-6.6 0-12-5.4-12-12V22c0-6.6 5.4-12 12-12h456c6.6 0 12 5.4 12 12v456c0 6.6-5.4 12-12 12z"/><path d="M445.1 212.7c-.1-15.4-10.7-25.2-26.1-25.4h-9.1v-4.9-43.9c0-4.2-1.2-7.7-4-10.9C379 97 352.3 66.3 325.4 35.7c-1.9-2.2-4.3-4-6.5-6H103.8C93.1 33.6 89.9 41.5 90 52.3c.3 43.2.1 86.3.1 129.5v5.5h-8.9c-15.6.1-26.2 10.1-26.3 25.7-.2 42.2-.2 84.3 0 126.5.1 15.4 10.5 25.3 25.9 25.7 2.9.1 5.7 0 9.3 0v5.1c0 25.8.2 51.6-.1 77.4-.2 10.8 3.1 18.7 13.7 22.6h292.6c10.6-3.9 13.9-11.8 13.7-22.5-.4-25.7-.1-51.3-.1-77v-5.6c3.3 0 6.3.1 9.2 0 15.4-.3 25.9-10.2 25.9-25.6.3-42.3.4-84.6.1-126.9zM107.6 47.2h200v85.3c0 8.7 3 11.6 11.7 11.6h73V187H107.6V47.2zM341.3 233c-.6-1.8-2.1-2.7-4.5-2.7-2 0-3.4.8-4.1 2.3-.7 1.6-1.1 5.6-1.1 12v60.7c0 5.7.4 9.4 1.1 11.2.7 1.8 2.2 2.7 4.4 2.7 2.4 0 4-1 4.9-3s1.3-6 1.3-11.9v-15h-6.6v-19.2h38.5V338h-20.7l-3-9.1c-2.2 3.9-5.1 6.8-8.5 8.8-3.4 2-7.4 2.9-12.1 2.9-5.5 0-10.7-1.3-15.5-4s-8.5-6-11-10-4.1-8.1-4.7-12.5c-.6-4.3-.9-10.9-.9-19.6v-37.6c0-12.1.7-20.9 2-26.3 1.3-5.5 5-10.5 11.2-15 6.2-4.6 14.2-6.8 23.9-6.8 9.6 0 17.6 2 24 5.9 6.4 4 10.5 8.7 12.4 14.1 1.9 5.4 2.9 13.3 2.9 23.7v5.5h-32.9v-11.5c0-7.1-.3-11.7-1-13.5zm-55.1-21.5L269.4 338h-50l-19-126.5h34.7c4 34.8 6.9 64.3 8.6 88.4 1.7-24.4 3.5-46 5.4-64.9l2.3-23.5h34.8zM147.3 317.2c.9 1.4 2.4 2 4.6 2s3.8-.9 4.9-2.6c1.1-1.7 1.6-4.3 1.6-7.7 0-7.4-1-12.3-3-14.6-2.1-2.3-7.2-6.1-15.4-11.5s-13.6-9.3-16.3-11.8c-2.7-2.4-4.9-5.8-6.6-10.2-1.7-4.3-2.6-9.8-2.6-16.6 0-9.7 1.2-16.8 3.7-21.3s6.5-8 12-10.5 12.2-3.8 20-3.8c8.5 0 15.8 1.4 21.8 4.1 6 2.8 10 6.2 12 10.4s2.9 11.3 2.9 21.4v5h-30.5v-9.4c0-4.4-.4-7.2-1.2-8.4-.8-1.2-2.1-1.8-3.9-1.8-2 0-3.5.8-4.5 2.4s-1.5 4.1-1.5 7.3c0 4.2.6 7.4 1.7 9.5 1.1 2.1 4.2 4.7 9.3 7.7 14.6 8.7 23.9 15.8 27.7 21.4 3.8 5.6 5.7 14.6 5.7 27 0 9-1.1 15.7-3.2 19.9-2.1 4.3-6.2 7.9-12.2 10.7-6 2.9-13.1 4.3-21.1 4.3-8.8 0-16.3-1.7-22.5-5-6.2-3.3-10.3-7.6-12.2-12.7-1.9-5.2-2.9-12.5-2.9-22v-8.3H146v15.4c0 5.3.5 8.4 1.3 9.7zm240.8 131.2c-92-.1-184.1-.1-276.1-.1-2.5 0-4.7.3-4.7-3.6.1-25.7.1-51.3.1-77 0-.7.1-1.4.2-2.5h284.8c.1 1.5.2 2.8.2 4.2 0 24.8-.1 49.6.1 74.4.1 3.8-1.1 4.6-4.6 4.6z"/></symbol><symbol id="uslugi___calculator" viewBox="-5 -5 510 510"><style>.lst0{fill:#fff;stroke:red;stroke-width:20;stroke-miterlimit:10}</style><path class="lst0" d="M478 490H22c-6.6 0-12-5.4-12-12V22c0-6.6 5.4-12 12-12h456c6.6 0 12 5.4 12 12v456c0 6.6-5.4 12-12 12z"/><path d="M445.1 212.7c-.1-15.4-10.7-25.2-26.1-25.4h-9.1v-4.9-43.9c0-4.2-1.2-7.7-4-10.9C379 97 352.3 66.3 325.4 35.7c-1.9-2.2-4.3-4-6.5-6H103.8C93.1 33.6 89.9 41.5 90 52.3c.3 43.2.1 86.3.1 129.5v5.5h-8.9c-15.6.1-26.2 10.1-26.3 25.7-.2 42.2-.2 84.3 0 126.5.1 15.4 10.5 25.3 25.9 25.7 2.9.1 5.7 0 9.3 0v5.1c0 25.8.2 51.6-.1 77.4-.2 10.8 3.1 18.7 13.7 22.6h292.6c10.6-3.9 13.9-11.8 13.7-22.5-.4-25.7-.1-51.3-.1-77v-5.6c3.3 0 6.3.1 9.2 0 15.4-.3 25.9-10.2 25.9-25.6.3-42.3.4-84.6.1-126.9zM107.6 47.2h200v85.3c0 8.7 3 11.6 11.7 11.6h73V187H107.6V47.2zM341.3 233c-.6-1.8-2.1-2.7-4.5-2.7-2 0-3.4.8-4.1 2.3-.7 1.6-1.1 5.6-1.1 12v60.7c0 5.7.4 9.4 1.1 11.2.7 1.8 2.2 2.7 4.4 2.7 2.4 0 4-1 4.9-3s1.3-6 1.3-11.9v-15h-6.6v-19.2h38.5V338h-20.7l-3-9.1c-2.2 3.9-5.1 6.8-8.5 8.8-3.4 2-7.4 2.9-12.1 2.9-5.5 0-10.7-1.3-15.5-4s-8.5-6-11-10-4.1-8.1-4.7-12.5c-.6-4.3-.9-10.9-.9-19.6v-37.6c0-12.1.7-20.9 2-26.3 1.3-5.5 5-10.5 11.2-15 6.2-4.6 14.2-6.8 23.9-6.8 9.6 0 17.6 2 24 5.9 6.4 4 10.5 8.7 12.4 14.1 1.9 5.4 2.9 13.3 2.9 23.7v5.5h-32.9v-11.5c0-7.1-.3-11.7-1-13.5zm-55.1-21.5L269.4 338h-50l-19-126.5h34.7c4 34.8 6.9 64.3 8.6 88.4 1.7-24.4 3.5-46 5.4-64.9l2.3-23.5h34.8zM147.3 317.2c.9 1.4 2.4 2 4.6 2s3.8-.9 4.9-2.6c1.1-1.7 1.6-4.3 1.6-7.7 0-7.4-1-12.3-3-14.6-2.1-2.3-7.2-6.1-15.4-11.5s-13.6-9.3-16.3-11.8c-2.7-2.4-4.9-5.8-6.6-10.2-1.7-4.3-2.6-9.8-2.6-16.6 0-9.7 1.2-16.8 3.7-21.3s6.5-8 12-10.5 12.2-3.8 20-3.8c8.5 0 15.8 1.4 21.8 4.1 6 2.8 10 6.2 12 10.4s2.9 11.3 2.9 21.4v5h-30.5v-9.4c0-4.4-.4-7.2-1.2-8.4-.8-1.2-2.1-1.8-3.9-1.8-2 0-3.5.8-4.5 2.4s-1.5 4.1-1.5 7.3c0 4.2.6 7.4 1.7 9.5 1.1 2.1 4.2 4.7 9.3 7.7 14.6 8.7 23.9 15.8 27.7 21.4 3.8 5.6 5.7 14.6 5.7 27 0 9-1.1 15.7-3.2 19.9-2.1 4.3-6.2 7.9-12.2 10.7-6 2.9-13.1 4.3-21.1 4.3-8.8 0-16.3-1.7-22.5-5-6.2-3.3-10.3-7.6-12.2-12.7-1.9-5.2-2.9-12.5-2.9-22v-8.3H146v15.4c0 5.3.5 8.4 1.3 9.7zm240.8 131.2c-92-.1-184.1-.1-276.1-.1-2.5 0-4.7.3-4.7-3.6.1-25.7.1-51.3.1-77 0-.7.1-1.4.2-2.5h284.8c.1 1.5.2 2.8.2 4.2 0 24.8-.1 49.6.1 74.4.1 3.8-1.1 4.6-4.6 4.6z"/></symbol><symbol id="uslugi___manager" viewBox="-5 -5 510 510"><style>.mst0{fill:#fff;stroke:red;stroke-width:20;stroke-miterlimit:10}</style><path class="mst0" d="M478 490H22c-6.6 0-12-5.4-12-12V22c0-6.6 5.4-12 12-12h456c6.6 0 12 5.4 12 12v456c0 6.6-5.4 12-12 12z"/><path d="M445.1 212.7c-.1-15.4-10.7-25.2-26.1-25.4h-9.1v-4.9-43.9c0-4.2-1.2-7.7-4-10.9C379 97 352.3 66.3 325.4 35.7c-1.9-2.2-4.3-4-6.5-6H103.8C93.1 33.6 89.9 41.5 90 52.3c.3 43.2.1 86.3.1 129.5v5.5h-8.9c-15.6.1-26.2 10.1-26.3 25.7-.2 42.2-.2 84.3 0 126.5.1 15.4 10.5 25.3 25.9 25.7 2.9.1 5.7 0 9.3 0v5.1c0 25.8.2 51.6-.1 77.4-.2 10.8 3.1 18.7 13.7 22.6h292.6c10.6-3.9 13.9-11.8 13.7-22.5-.4-25.7-.1-51.3-.1-77v-5.6c3.3 0 6.3.1 9.2 0 15.4-.3 25.9-10.2 25.9-25.6.3-42.3.4-84.6.1-126.9zM107.6 47.2h200v85.3c0 8.7 3 11.6 11.7 11.6h73V187H107.6V47.2zM341.3 233c-.6-1.8-2.1-2.7-4.5-2.7-2 0-3.4.8-4.1 2.3-.7 1.6-1.1 5.6-1.1 12v60.7c0 5.7.4 9.4 1.1 11.2.7 1.8 2.2 2.7 4.4 2.7 2.4 0 4-1 4.9-3s1.3-6 1.3-11.9v-15h-6.6v-19.2h38.5V338h-20.7l-3-9.1c-2.2 3.9-5.1 6.8-8.5 8.8-3.4 2-7.4 2.9-12.1 2.9-5.5 0-10.7-1.3-15.5-4s-8.5-6-11-10-4.1-8.1-4.7-12.5c-.6-4.3-.9-10.9-.9-19.6v-37.6c0-12.1.7-20.9 2-26.3 1.3-5.5 5-10.5 11.2-15 6.2-4.6 14.2-6.8 23.9-6.8 9.6 0 17.6 2 24 5.9 6.4 4 10.5 8.7 12.4 14.1 1.9 5.4 2.9 13.3 2.9 23.7v5.5h-32.9v-11.5c0-7.1-.3-11.7-1-13.5zm-55.1-21.5L269.4 338h-50l-19-126.5h34.7c4 34.8 6.9 64.3 8.6 88.4 1.7-24.4 3.5-46 5.4-64.9l2.3-23.5h34.8zM147.3 317.2c.9 1.4 2.4 2 4.6 2s3.8-.9 4.9-2.6c1.1-1.7 1.6-4.3 1.6-7.7 0-7.4-1-12.3-3-14.6-2.1-2.3-7.2-6.1-15.4-11.5s-13.6-9.3-16.3-11.8c-2.7-2.4-4.9-5.8-6.6-10.2-1.7-4.3-2.6-9.8-2.6-16.6 0-9.7 1.2-16.8 3.7-21.3s6.5-8 12-10.5 12.2-3.8 20-3.8c8.5 0 15.8 1.4 21.8 4.1 6 2.8 10 6.2 12 10.4s2.9 11.3 2.9 21.4v5h-30.5v-9.4c0-4.4-.4-7.2-1.2-8.4-.8-1.2-2.1-1.8-3.9-1.8-2 0-3.5.8-4.5 2.4s-1.5 4.1-1.5 7.3c0 4.2.6 7.4 1.7 9.5 1.1 2.1 4.2 4.7 9.3 7.7 14.6 8.7 23.9 15.8 27.7 21.4 3.8 5.6 5.7 14.6 5.7 27 0 9-1.1 15.7-3.2 19.9-2.1 4.3-6.2 7.9-12.2 10.7-6 2.9-13.1 4.3-21.1 4.3-8.8 0-16.3-1.7-22.5-5-6.2-3.3-10.3-7.6-12.2-12.7-1.9-5.2-2.9-12.5-2.9-22v-8.3H146v15.4c0 5.3.5 8.4 1.3 9.7zm240.8 131.2c-92-.1-184.1-.1-276.1-.1-2.5 0-4.7.3-4.7-3.6.1-25.7.1-51.3.1-77 0-.7.1-1.4.2-2.5h284.8c.1 1.5.2 2.8.2 4.2 0 24.8-.1 49.6.1 74.4.1 3.8-1.1 4.6-4.6 4.6z"/></symbol><symbol id="uslugi___montazman" viewBox="-5 -5 510 510"><style>.nst0{fill:#fff;stroke:red;stroke-width:20;stroke-miterlimit:10}</style><path class="nst0" d="M478 490H22c-6.6 0-12-5.4-12-12V22c0-6.6 5.4-12 12-12h456c6.6 0 12 5.4 12 12v456c0 6.6-5.4 12-12 12z"/><path d="M445.1 212.7c-.1-15.4-10.7-25.2-26.1-25.4h-9.1v-4.9-43.9c0-4.2-1.2-7.7-4-10.9C379 97 352.3 66.3 325.4 35.7c-1.9-2.2-4.3-4-6.5-6H103.8C93.1 33.6 89.9 41.5 90 52.3c.3 43.2.1 86.3.1 129.5v5.5h-8.9c-15.6.1-26.2 10.1-26.3 25.7-.2 42.2-.2 84.3 0 126.5.1 15.4 10.5 25.3 25.9 25.7 2.9.1 5.7 0 9.3 0v5.1c0 25.8.2 51.6-.1 77.4-.2 10.8 3.1 18.7 13.7 22.6h292.6c10.6-3.9 13.9-11.8 13.7-22.5-.4-25.7-.1-51.3-.1-77v-5.6c3.3 0 6.3.1 9.2 0 15.4-.3 25.9-10.2 25.9-25.6.3-42.3.4-84.6.1-126.9zM107.6 47.2h200v85.3c0 8.7 3 11.6 11.7 11.6h73V187H107.6V47.2zM341.3 233c-.6-1.8-2.1-2.7-4.5-2.7-2 0-3.4.8-4.1 2.3-.7 1.6-1.1 5.6-1.1 12v60.7c0 5.7.4 9.4 1.1 11.2.7 1.8 2.2 2.7 4.4 2.7 2.4 0 4-1 4.9-3s1.3-6 1.3-11.9v-15h-6.6v-19.2h38.5V338h-20.7l-3-9.1c-2.2 3.9-5.1 6.8-8.5 8.8-3.4 2-7.4 2.9-12.1 2.9-5.5 0-10.7-1.3-15.5-4s-8.5-6-11-10-4.1-8.1-4.7-12.5c-.6-4.3-.9-10.9-.9-19.6v-37.6c0-12.1.7-20.9 2-26.3 1.3-5.5 5-10.5 11.2-15 6.2-4.6 14.2-6.8 23.9-6.8 9.6 0 17.6 2 24 5.9 6.4 4 10.5 8.7 12.4 14.1 1.9 5.4 2.9 13.3 2.9 23.7v5.5h-32.9v-11.5c0-7.1-.3-11.7-1-13.5zm-55.1-21.5L269.4 338h-50l-19-126.5h34.7c4 34.8 6.9 64.3 8.6 88.4 1.7-24.4 3.5-46 5.4-64.9l2.3-23.5h34.8zM147.3 317.2c.9 1.4 2.4 2 4.6 2s3.8-.9 4.9-2.6c1.1-1.7 1.6-4.3 1.6-7.7 0-7.4-1-12.3-3-14.6-2.1-2.3-7.2-6.1-15.4-11.5s-13.6-9.3-16.3-11.8c-2.7-2.4-4.9-5.8-6.6-10.2-1.7-4.3-2.6-9.8-2.6-16.6 0-9.7 1.2-16.8 3.7-21.3s6.5-8 12-10.5 12.2-3.8 20-3.8c8.5 0 15.8 1.4 21.8 4.1 6 2.8 10 6.2 12 10.4s2.9 11.3 2.9 21.4v5h-30.5v-9.4c0-4.4-.4-7.2-1.2-8.4-.8-1.2-2.1-1.8-3.9-1.8-2 0-3.5.8-4.5 2.4s-1.5 4.1-1.5 7.3c0 4.2.6 7.4 1.7 9.5 1.1 2.1 4.2 4.7 9.3 7.7 14.6 8.7 23.9 15.8 27.7 21.4 3.8 5.6 5.7 14.6 5.7 27 0 9-1.1 15.7-3.2 19.9-2.1 4.3-6.2 7.9-12.2 10.7-6 2.9-13.1 4.3-21.1 4.3-8.8 0-16.3-1.7-22.5-5-6.2-3.3-10.3-7.6-12.2-12.7-1.9-5.2-2.9-12.5-2.9-22v-8.3H146v15.4c0 5.3.5 8.4 1.3 9.7zm240.8 131.2c-92-.1-184.1-.1-276.1-.1-2.5 0-4.7.3-4.7-3.6.1-25.7.1-51.3.1-77 0-.7.1-1.4.2-2.5h284.8c.1 1.5.2 2.8.2 4.2 0 24.8-.1 49.6.1 74.4.1 3.8-1.1 4.6-4.6 4.6z"/></symbol><symbol id="uslugi___projectman" viewBox="-5 -5 510 510"><style>.ost0{fill:#fff;stroke:red;stroke-width:20;stroke-miterlimit:10}</style><path class="ost0" d="M478 490H22c-6.6 0-12-5.4-12-12V22c0-6.6 5.4-12 12-12h456c6.6 0 12 5.4 12 12v456c0 6.6-5.4 12-12 12z"/><path d="M445.1 212.7c-.1-15.4-10.7-25.2-26.1-25.4h-9.1v-4.9-43.9c0-4.2-1.2-7.7-4-10.9C379 97 352.3 66.3 325.4 35.7c-1.9-2.2-4.3-4-6.5-6H103.8C93.1 33.6 89.9 41.5 90 52.3c.3 43.2.1 86.3.1 129.5v5.5h-8.9c-15.6.1-26.2 10.1-26.3 25.7-.2 42.2-.2 84.3 0 126.5.1 15.4 10.5 25.3 25.9 25.7 2.9.1 5.7 0 9.3 0v5.1c0 25.8.2 51.6-.1 77.4-.2 10.8 3.1 18.7 13.7 22.6h292.6c10.6-3.9 13.9-11.8 13.7-22.5-.4-25.7-.1-51.3-.1-77v-5.6c3.3 0 6.3.1 9.2 0 15.4-.3 25.9-10.2 25.9-25.6.3-42.3.4-84.6.1-126.9zM107.6 47.2h200v85.3c0 8.7 3 11.6 11.7 11.6h73V187H107.6V47.2zM341.3 233c-.6-1.8-2.1-2.7-4.5-2.7-2 0-3.4.8-4.1 2.3-.7 1.6-1.1 5.6-1.1 12v60.7c0 5.7.4 9.4 1.1 11.2.7 1.8 2.2 2.7 4.4 2.7 2.4 0 4-1 4.9-3s1.3-6 1.3-11.9v-15h-6.6v-19.2h38.5V338h-20.7l-3-9.1c-2.2 3.9-5.1 6.8-8.5 8.8-3.4 2-7.4 2.9-12.1 2.9-5.5 0-10.7-1.3-15.5-4s-8.5-6-11-10-4.1-8.1-4.7-12.5c-.6-4.3-.9-10.9-.9-19.6v-37.6c0-12.1.7-20.9 2-26.3 1.3-5.5 5-10.5 11.2-15 6.2-4.6 14.2-6.8 23.9-6.8 9.6 0 17.6 2 24 5.9 6.4 4 10.5 8.7 12.4 14.1 1.9 5.4 2.9 13.3 2.9 23.7v5.5h-32.9v-11.5c0-7.1-.3-11.7-1-13.5zm-55.1-21.5L269.4 338h-50l-19-126.5h34.7c4 34.8 6.9 64.3 8.6 88.4 1.7-24.4 3.5-46 5.4-64.9l2.3-23.5h34.8zM147.3 317.2c.9 1.4 2.4 2 4.6 2s3.8-.9 4.9-2.6c1.1-1.7 1.6-4.3 1.6-7.7 0-7.4-1-12.3-3-14.6-2.1-2.3-7.2-6.1-15.4-11.5s-13.6-9.3-16.3-11.8c-2.7-2.4-4.9-5.8-6.6-10.2-1.7-4.3-2.6-9.8-2.6-16.6 0-9.7 1.2-16.8 3.7-21.3s6.5-8 12-10.5 12.2-3.8 20-3.8c8.5 0 15.8 1.4 21.8 4.1 6 2.8 10 6.2 12 10.4s2.9 11.3 2.9 21.4v5h-30.5v-9.4c0-4.4-.4-7.2-1.2-8.4-.8-1.2-2.1-1.8-3.9-1.8-2 0-3.5.8-4.5 2.4s-1.5 4.1-1.5 7.3c0 4.2.6 7.4 1.7 9.5 1.1 2.1 4.2 4.7 9.3 7.7 14.6 8.7 23.9 15.8 27.7 21.4 3.8 5.6 5.7 14.6 5.7 27 0 9-1.1 15.7-3.2 19.9-2.1 4.3-6.2 7.9-12.2 10.7-6 2.9-13.1 4.3-21.1 4.3-8.8 0-16.3-1.7-22.5-5-6.2-3.3-10.3-7.6-12.2-12.7-1.9-5.2-2.9-12.5-2.9-22v-8.3H146v15.4c0 5.3.5 8.4 1.3 9.7zm240.8 131.2c-92-.1-184.1-.1-276.1-.1-2.5 0-4.7.3-4.7-3.6.1-25.7.1-51.3.1-77 0-.7.1-1.4.2-2.5h284.8c.1 1.5.2 2.8.2 4.2 0 24.8-.1 49.6.1 74.4.1 3.8-1.1 4.6-4.6 4.6z"/></symbol><symbol id="why___experience" viewBox="-5 -5 510 510"><style>.pst0{fill:#fff;stroke:red;stroke-width:20;stroke-miterlimit:10}</style><path class="pst0" d="M478 490H22c-6.6 0-12-5.4-12-12V22c0-6.6 5.4-12 12-12h456c6.6 0 12 5.4 12 12v456c0 6.6-5.4 12-12 12z"/><path d="M445.1 212.7c-.1-15.4-10.7-25.2-26.1-25.4h-9.1v-4.9-43.9c0-4.2-1.2-7.7-4-10.9C379 97 352.3 66.3 325.4 35.7c-1.9-2.2-4.3-4-6.5-6H103.8C93.1 33.6 89.9 41.5 90 52.3c.3 43.2.1 86.3.1 129.5v5.5h-8.9c-15.6.1-26.2 10.1-26.3 25.7-.2 42.2-.2 84.3 0 126.5.1 15.4 10.5 25.3 25.9 25.7 2.9.1 5.7 0 9.3 0v5.1c0 25.8.2 51.6-.1 77.4-.2 10.8 3.1 18.7 13.7 22.6h292.6c10.6-3.9 13.9-11.8 13.7-22.5-.4-25.7-.1-51.3-.1-77v-5.6c3.3 0 6.3.1 9.2 0 15.4-.3 25.9-10.2 25.9-25.6.3-42.3.4-84.6.1-126.9zM107.6 47.2h200v85.3c0 8.7 3 11.6 11.7 11.6h73V187H107.6V47.2zM341.3 233c-.6-1.8-2.1-2.7-4.5-2.7-2 0-3.4.8-4.1 2.3-.7 1.6-1.1 5.6-1.1 12v60.7c0 5.7.4 9.4 1.1 11.2.7 1.8 2.2 2.7 4.4 2.7 2.4 0 4-1 4.9-3s1.3-6 1.3-11.9v-15h-6.6v-19.2h38.5V338h-20.7l-3-9.1c-2.2 3.9-5.1 6.8-8.5 8.8-3.4 2-7.4 2.9-12.1 2.9-5.5 0-10.7-1.3-15.5-4s-8.5-6-11-10-4.1-8.1-4.7-12.5c-.6-4.3-.9-10.9-.9-19.6v-37.6c0-12.1.7-20.9 2-26.3 1.3-5.5 5-10.5 11.2-15 6.2-4.6 14.2-6.8 23.9-6.8 9.6 0 17.6 2 24 5.9 6.4 4 10.5 8.7 12.4 14.1 1.9 5.4 2.9 13.3 2.9 23.7v5.5h-32.9v-11.5c0-7.1-.3-11.7-1-13.5zm-55.1-21.5L269.4 338h-50l-19-126.5h34.7c4 34.8 6.9 64.3 8.6 88.4 1.7-24.4 3.5-46 5.4-64.9l2.3-23.5h34.8zM147.3 317.2c.9 1.4 2.4 2 4.6 2s3.8-.9 4.9-2.6c1.1-1.7 1.6-4.3 1.6-7.7 0-7.4-1-12.3-3-14.6-2.1-2.3-7.2-6.1-15.4-11.5s-13.6-9.3-16.3-11.8c-2.7-2.4-4.9-5.8-6.6-10.2-1.7-4.3-2.6-9.8-2.6-16.6 0-9.7 1.2-16.8 3.7-21.3s6.5-8 12-10.5 12.2-3.8 20-3.8c8.5 0 15.8 1.4 21.8 4.1 6 2.8 10 6.2 12 10.4s2.9 11.3 2.9 21.4v5h-30.5v-9.4c0-4.4-.4-7.2-1.2-8.4-.8-1.2-2.1-1.8-3.9-1.8-2 0-3.5.8-4.5 2.4s-1.5 4.1-1.5 7.3c0 4.2.6 7.4 1.7 9.5 1.1 2.1 4.2 4.7 9.3 7.7 14.6 8.7 23.9 15.8 27.7 21.4 3.8 5.6 5.7 14.6 5.7 27 0 9-1.1 15.7-3.2 19.9-2.1 4.3-6.2 7.9-12.2 10.7-6 2.9-13.1 4.3-21.1 4.3-8.8 0-16.3-1.7-22.5-5-6.2-3.3-10.3-7.6-12.2-12.7-1.9-5.2-2.9-12.5-2.9-22v-8.3H146v15.4c0 5.3.5 8.4 1.3 9.7zm240.8 131.2c-92-.1-184.1-.1-276.1-.1-2.5 0-4.7.3-4.7-3.6.1-25.7.1-51.3.1-77 0-.7.1-1.4.2-2.5h284.8c.1 1.5.2 2.8.2 4.2 0 24.8-.1 49.6.1 74.4.1 3.8-1.1 4.6-4.6 4.6z"/></symbol><symbol id="why___optimization" viewBox="-5 -5 510 510"><style>.qst0{fill:#fff;stroke:red;stroke-width:20;stroke-miterlimit:10}</style><path class="qst0" d="M478 490H22c-6.6 0-12-5.4-12-12V22c0-6.6 5.4-12 12-12h456c6.6 0 12 5.4 12 12v456c0 6.6-5.4 12-12 12z"/><path d="M445.1 212.7c-.1-15.4-10.7-25.2-26.1-25.4h-9.1v-4.9-43.9c0-4.2-1.2-7.7-4-10.9C379 97 352.3 66.3 325.4 35.7c-1.9-2.2-4.3-4-6.5-6H103.8C93.1 33.6 89.9 41.5 90 52.3c.3 43.2.1 86.3.1 129.5v5.5h-8.9c-15.6.1-26.2 10.1-26.3 25.7-.2 42.2-.2 84.3 0 126.5.1 15.4 10.5 25.3 25.9 25.7 2.9.1 5.7 0 9.3 0v5.1c0 25.8.2 51.6-.1 77.4-.2 10.8 3.1 18.7 13.7 22.6h292.6c10.6-3.9 13.9-11.8 13.7-22.5-.4-25.7-.1-51.3-.1-77v-5.6c3.3 0 6.3.1 9.2 0 15.4-.3 25.9-10.2 25.9-25.6.3-42.3.4-84.6.1-126.9zM107.6 47.2h200v85.3c0 8.7 3 11.6 11.7 11.6h73V187H107.6V47.2zM341.3 233c-.6-1.8-2.1-2.7-4.5-2.7-2 0-3.4.8-4.1 2.3-.7 1.6-1.1 5.6-1.1 12v60.7c0 5.7.4 9.4 1.1 11.2.7 1.8 2.2 2.7 4.4 2.7 2.4 0 4-1 4.9-3s1.3-6 1.3-11.9v-15h-6.6v-19.2h38.5V338h-20.7l-3-9.1c-2.2 3.9-5.1 6.8-8.5 8.8-3.4 2-7.4 2.9-12.1 2.9-5.5 0-10.7-1.3-15.5-4s-8.5-6-11-10-4.1-8.1-4.7-12.5c-.6-4.3-.9-10.9-.9-19.6v-37.6c0-12.1.7-20.9 2-26.3 1.3-5.5 5-10.5 11.2-15 6.2-4.6 14.2-6.8 23.9-6.8 9.6 0 17.6 2 24 5.9 6.4 4 10.5 8.7 12.4 14.1 1.9 5.4 2.9 13.3 2.9 23.7v5.5h-32.9v-11.5c0-7.1-.3-11.7-1-13.5zm-55.1-21.5L269.4 338h-50l-19-126.5h34.7c4 34.8 6.9 64.3 8.6 88.4 1.7-24.4 3.5-46 5.4-64.9l2.3-23.5h34.8zM147.3 317.2c.9 1.4 2.4 2 4.6 2s3.8-.9 4.9-2.6c1.1-1.7 1.6-4.3 1.6-7.7 0-7.4-1-12.3-3-14.6-2.1-2.3-7.2-6.1-15.4-11.5s-13.6-9.3-16.3-11.8c-2.7-2.4-4.9-5.8-6.6-10.2-1.7-4.3-2.6-9.8-2.6-16.6 0-9.7 1.2-16.8 3.7-21.3s6.5-8 12-10.5 12.2-3.8 20-3.8c8.5 0 15.8 1.4 21.8 4.1 6 2.8 10 6.2 12 10.4s2.9 11.3 2.9 21.4v5h-30.5v-9.4c0-4.4-.4-7.2-1.2-8.4-.8-1.2-2.1-1.8-3.9-1.8-2 0-3.5.8-4.5 2.4s-1.5 4.1-1.5 7.3c0 4.2.6 7.4 1.7 9.5 1.1 2.1 4.2 4.7 9.3 7.7 14.6 8.7 23.9 15.8 27.7 21.4 3.8 5.6 5.7 14.6 5.7 27 0 9-1.1 15.7-3.2 19.9-2.1 4.3-6.2 7.9-12.2 10.7-6 2.9-13.1 4.3-21.1 4.3-8.8 0-16.3-1.7-22.5-5-6.2-3.3-10.3-7.6-12.2-12.7-1.9-5.2-2.9-12.5-2.9-22v-8.3H146v15.4c0 5.3.5 8.4 1.3 9.7zm240.8 131.2c-92-.1-184.1-.1-276.1-.1-2.5 0-4.7.3-4.7-3.6.1-25.7.1-51.3.1-77 0-.7.1-1.4.2-2.5h284.8c.1 1.5.2 2.8.2 4.2 0 24.8-.1 49.6.1 74.4.1 3.8-1.1 4.6-4.6 4.6z"/></symbol><symbol id="why___team" viewBox="-5 -5 510 510"><style>.rst0{fill:#fff;stroke:red;stroke-width:20;stroke-miterlimit:10}</style><path class="rst0" d="M478 490H22c-6.6 0-12-5.4-12-12V22c0-6.6 5.4-12 12-12h456c6.6 0 12 5.4 12 12v456c0 6.6-5.4 12-12 12z"/><path d="M445.1 212.7c-.1-15.4-10.7-25.2-26.1-25.4h-9.1v-4.9-43.9c0-4.2-1.2-7.7-4-10.9C379 97 352.3 66.3 325.4 35.7c-1.9-2.2-4.3-4-6.5-6H103.8C93.1 33.6 89.9 41.5 90 52.3c.3 43.2.1 86.3.1 129.5v5.5h-8.9c-15.6.1-26.2 10.1-26.3 25.7-.2 42.2-.2 84.3 0 126.5.1 15.4 10.5 25.3 25.9 25.7 2.9.1 5.7 0 9.3 0v5.1c0 25.8.2 51.6-.1 77.4-.2 10.8 3.1 18.7 13.7 22.6h292.6c10.6-3.9 13.9-11.8 13.7-22.5-.4-25.7-.1-51.3-.1-77v-5.6c3.3 0 6.3.1 9.2 0 15.4-.3 25.9-10.2 25.9-25.6.3-42.3.4-84.6.1-126.9zM107.6 47.2h200v85.3c0 8.7 3 11.6 11.7 11.6h73V187H107.6V47.2zM341.3 233c-.6-1.8-2.1-2.7-4.5-2.7-2 0-3.4.8-4.1 2.3-.7 1.6-1.1 5.6-1.1 12v60.7c0 5.7.4 9.4 1.1 11.2.7 1.8 2.2 2.7 4.4 2.7 2.4 0 4-1 4.9-3s1.3-6 1.3-11.9v-15h-6.6v-19.2h38.5V338h-20.7l-3-9.1c-2.2 3.9-5.1 6.8-8.5 8.8-3.4 2-7.4 2.9-12.1 2.9-5.5 0-10.7-1.3-15.5-4s-8.5-6-11-10-4.1-8.1-4.7-12.5c-.6-4.3-.9-10.9-.9-19.6v-37.6c0-12.1.7-20.9 2-26.3 1.3-5.5 5-10.5 11.2-15 6.2-4.6 14.2-6.8 23.9-6.8 9.6 0 17.6 2 24 5.9 6.4 4 10.5 8.7 12.4 14.1 1.9 5.4 2.9 13.3 2.9 23.7v5.5h-32.9v-11.5c0-7.1-.3-11.7-1-13.5zm-55.1-21.5L269.4 338h-50l-19-126.5h34.7c4 34.8 6.9 64.3 8.6 88.4 1.7-24.4 3.5-46 5.4-64.9l2.3-23.5h34.8zM147.3 317.2c.9 1.4 2.4 2 4.6 2s3.8-.9 4.9-2.6c1.1-1.7 1.6-4.3 1.6-7.7 0-7.4-1-12.3-3-14.6-2.1-2.3-7.2-6.1-15.4-11.5s-13.6-9.3-16.3-11.8c-2.7-2.4-4.9-5.8-6.6-10.2-1.7-4.3-2.6-9.8-2.6-16.6 0-9.7 1.2-16.8 3.7-21.3s6.5-8 12-10.5 12.2-3.8 20-3.8c8.5 0 15.8 1.4 21.8 4.1 6 2.8 10 6.2 12 10.4s2.9 11.3 2.9 21.4v5h-30.5v-9.4c0-4.4-.4-7.2-1.2-8.4-.8-1.2-2.1-1.8-3.9-1.8-2 0-3.5.8-4.5 2.4s-1.5 4.1-1.5 7.3c0 4.2.6 7.4 1.7 9.5 1.1 2.1 4.2 4.7 9.3 7.7 14.6 8.7 23.9 15.8 27.7 21.4 3.8 5.6 5.7 14.6 5.7 27 0 9-1.1 15.7-3.2 19.9-2.1 4.3-6.2 7.9-12.2 10.7-6 2.9-13.1 4.3-21.1 4.3-8.8 0-16.3-1.7-22.5-5-6.2-3.3-10.3-7.6-12.2-12.7-1.9-5.2-2.9-12.5-2.9-22v-8.3H146v15.4c0 5.3.5 8.4 1.3 9.7zm240.8 131.2c-92-.1-184.1-.1-276.1-.1-2.5 0-4.7.3-4.7-3.6.1-25.7.1-51.3.1-77 0-.7.1-1.4.2-2.5h284.8c.1 1.5.2 2.8.2 4.2 0 24.8-.1 49.6.1 74.4.1 3.8-1.1 4.6-4.6 4.6z"/></symbol><symbol id="why___technology" viewBox="-5 -5 510 510"><style>.sst0{fill:#fff;stroke:red;stroke-width:20;stroke-miterlimit:10}</style><path class="sst0" d="M478 490H22c-6.6 0-12-5.4-12-12V22c0-6.6 5.4-12 12-12h456c6.6 0 12 5.4 12 12v456c0 6.6-5.4 12-12 12z"/><path d="M445.1 212.7c-.1-15.4-10.7-25.2-26.1-25.4h-9.1v-4.9-43.9c0-4.2-1.2-7.7-4-10.9C379 97 352.3 66.3 325.4 35.7c-1.9-2.2-4.3-4-6.5-6H103.8C93.1 33.6 89.9 41.5 90 52.3c.3 43.2.1 86.3.1 129.5v5.5h-8.9c-15.6.1-26.2 10.1-26.3 25.7-.2 42.2-.2 84.3 0 126.5.1 15.4 10.5 25.3 25.9 25.7 2.9.1 5.7 0 9.3 0v5.1c0 25.8.2 51.6-.1 77.4-.2 10.8 3.1 18.7 13.7 22.6h292.6c10.6-3.9 13.9-11.8 13.7-22.5-.4-25.7-.1-51.3-.1-77v-5.6c3.3 0 6.3.1 9.2 0 15.4-.3 25.9-10.2 25.9-25.6.3-42.3.4-84.6.1-126.9zM107.6 47.2h200v85.3c0 8.7 3 11.6 11.7 11.6h73V187H107.6V47.2zM341.3 233c-.6-1.8-2.1-2.7-4.5-2.7-2 0-3.4.8-4.1 2.3-.7 1.6-1.1 5.6-1.1 12v60.7c0 5.7.4 9.4 1.1 11.2.7 1.8 2.2 2.7 4.4 2.7 2.4 0 4-1 4.9-3s1.3-6 1.3-11.9v-15h-6.6v-19.2h38.5V338h-20.7l-3-9.1c-2.2 3.9-5.1 6.8-8.5 8.8-3.4 2-7.4 2.9-12.1 2.9-5.5 0-10.7-1.3-15.5-4s-8.5-6-11-10-4.1-8.1-4.7-12.5c-.6-4.3-.9-10.9-.9-19.6v-37.6c0-12.1.7-20.9 2-26.3 1.3-5.5 5-10.5 11.2-15 6.2-4.6 14.2-6.8 23.9-6.8 9.6 0 17.6 2 24 5.9 6.4 4 10.5 8.7 12.4 14.1 1.9 5.4 2.9 13.3 2.9 23.7v5.5h-32.9v-11.5c0-7.1-.3-11.7-1-13.5zm-55.1-21.5L269.4 338h-50l-19-126.5h34.7c4 34.8 6.9 64.3 8.6 88.4 1.7-24.4 3.5-46 5.4-64.9l2.3-23.5h34.8zM147.3 317.2c.9 1.4 2.4 2 4.6 2s3.8-.9 4.9-2.6c1.1-1.7 1.6-4.3 1.6-7.7 0-7.4-1-12.3-3-14.6-2.1-2.3-7.2-6.1-15.4-11.5s-13.6-9.3-16.3-11.8c-2.7-2.4-4.9-5.8-6.6-10.2-1.7-4.3-2.6-9.8-2.6-16.6 0-9.7 1.2-16.8 3.7-21.3s6.5-8 12-10.5 12.2-3.8 20-3.8c8.5 0 15.8 1.4 21.8 4.1 6 2.8 10 6.2 12 10.4s2.9 11.3 2.9 21.4v5h-30.5v-9.4c0-4.4-.4-7.2-1.2-8.4-.8-1.2-2.1-1.8-3.9-1.8-2 0-3.5.8-4.5 2.4s-1.5 4.1-1.5 7.3c0 4.2.6 7.4 1.7 9.5 1.1 2.1 4.2 4.7 9.3 7.7 14.6 8.7 23.9 15.8 27.7 21.4 3.8 5.6 5.7 14.6 5.7 27 0 9-1.1 15.7-3.2 19.9-2.1 4.3-6.2 7.9-12.2 10.7-6 2.9-13.1 4.3-21.1 4.3-8.8 0-16.3-1.7-22.5-5-6.2-3.3-10.3-7.6-12.2-12.7-1.9-5.2-2.9-12.5-2.9-22v-8.3H146v15.4c0 5.3.5 8.4 1.3 9.7zm240.8 131.2c-92-.1-184.1-.1-276.1-.1-2.5 0-4.7.3-4.7-3.6.1-25.7.1-51.3.1-77 0-.7.1-1.4.2-2.5h284.8c.1 1.5.2 2.8.2 4.2 0 24.8-.1 49.6.1 74.4.1 3.8-1.1 4.6-4.6 4.6z"/></symbol></svg>