<?xml version="1.0" encoding="utf-8"?>
<!-- Generator: Adobe Illustrator 19.0.1, SVG Export Plug-In . SVG Version: 6.00 Build 0)  -->
<svg version="1.1" id="Слой_1" xmlns="http://www.w3.org/2000/svg" xmlns:xlink="http://www.w3.org/1999/xlink" x="0px" y="0px"
	 viewBox="0 0 100 100" style="enable-background:new 0 0 100 100;" xml:space="preserve">
<g>
	<path class="st0" d="M-13.6,151.8c-0.8-0.5-0.6-0.6,0.1-0.9c3.1-1.5,6.3-2.9,9.5-4.2c2.3-0.9,4.6-1.7,6.9-2.5
		c0.4-0.2,0.8-0.3,1.2-0.7c1.4-1.3,3-2.2,4.7-2.9c0.5-0.2,1.1-0.5,1.7-0.5c0.5-0.1,0.9-0.2,1.4-0.3c0.6-0.1,1.2-0.4,1.6-0.8
		c0.9-0.7,1.9-1,3-1.4c0.1,0,0.3-0.1,0.4-0.1c0.9,0,1.8-0.1,2.6-0.1c0.4,0,0.5,0.1,0.5,0.5c0,0.2,0,0.5,0,0.7c0,12.8,0,25.5,0,38.3
		c0,0.2,0,0.3,0,0.5c0,0.3-0.1,0.6-0.4,0.8c-0.5,0.4-1,0.8-1.6,1.1c-2.6,1.5-5.3,3.1-7.9,4.6c-0.8,0.4-1.6,0.8-2.3,1.2
		c-0.6,0.3-1.2,0.6-1.8,0.9c-0.4,0.2-0.7,0.4-1.2,0.4c0-0.1,0-0.2,0-0.3c0.1-1.1-0.2-2.2-0.4-3.2c-0.4-1.4-0.9-2.8-1.3-4.2
		c0-0.1-0.1-0.2-0.2-0.3c0-0.2,0-0.4-0.1-0.6c-0.4-1.1-0.8-2.2-1.3-3.3c-0.5-1-1-1.9-1.3-2.9c-0.4-1.1-0.7-2.3-1.1-3.4
		c-0.2-0.5-0.3-1-0.6-1.4c-1-2.1-2-4.2-3-6.2c-0.2-0.4-0.4-0.8-0.7-1.2c-0.7-1-1.5-2-2.2-3c-0.3-0.4-0.6-0.7-0.9-1
		c-0.8-0.8-1.6-1.6-2.4-2.4c-0.2-0.2-0.3-0.3-0.5-0.4C-11.9,152.2-12.7,151.8-13.6,151.8z"/>
	<path class="st1" d="M-80.8,189.6c-0.4,0.4-0.7,0.8-1.1,1.2c-0.5,0.5-0.5,0.5-1.1,0.2c-1.8-0.8-3.6-1.6-5.5-2.3
		c-2.6-1.1-5.2-2.2-7.8-3.3c-0.1,0-0.2-0.1-0.4-0.2c-0.2-0.1-0.3-0.2-0.3-0.5c0-0.2,0-0.5,0-0.7c0-13.6,0-27.1,0-40.7
		c0,0,0-0.1,0-0.1c0-0.3-0.2-0.7,0.2-0.9c0.3-0.2,0.6,0.2,0.8,0.4c0.6,0.5,1.2,0.9,1.9,1.2c0.3,0.1,0.7,0.3,1,0.3
		c2.2,0.1,4.2,0.8,6.3,1.6c1.3,0.5,2.5,1.1,3.7,1.7c2.5,1.3,5.1,2.3,7.6,3.4c2.2,0.9,4.4,1.8,6.7,2.6c0.2,0.1,0.4,0.2,0.6,0.3
		c0.2,0.1,0.1,0.3,0.2,0.4c-0.1,0.1-0.2,0.2-0.3,0.3c-0.8,1.3-1.7,2.5-2.3,3.8c-0.4,0.8-0.8,1.6-1.1,2.4c-0.5,1-1,1.9-1.3,2.9
		c-1.8,4.7-3.6,9.3-5.3,14c-0.5,1.3-0.7,2.8-0.9,4.2c0,0.1,0,0.1,0,0.2c-0.1,0.1-0.1,0.1-0.2,0.2c-0.5,2.3-0.9,4.5-1.4,6.8
		c0,0.1,0,0.2,0,0.3C-80.8,189.4-80.8,189.5-80.8,189.6z"/>
	<path class="st2" d="M-79.3,182c0-0.1,0-0.1,0-0.2c0.2-1.4,0.4-2.8,0.9-4.2c1.8-4.7,3.6-9.3,5.3-14c0.4-1,0.9-1.9,1.3-2.9
		c0.4-0.8,0.8-1.6,1.1-2.4c0.6-1.4,1.5-2.6,2.3-3.8c0.1-0.1,0.2-0.2,0.3-0.3c0.2,0.1,0.4,0.1,0.5,0.2c0.4,0.1,0.8,0.2,1.2,0.3
		c1.3,0.5,2.7,0.7,4.1,0.9c0.6,0,1.1,0.3,1.5,0.6c0.2,0.1,0.2,0.3,0.2,0.5c-0.1,0.3-0.3,0.5-0.3,0.8c0.8,0.3,1.7,0.3,2.6,0.4
		c1.1,0.1,2.3,0.1,3.4,0c0.5,0,0.9-0.3,1.1-0.7c0.2-0.5,0.6-0.9,0.9-1.3c0.6-0.9,1.5-1.5,2.5-1.9c1-0.3,2-0.6,3-0.9
		c1.3-0.4,2.5-0.9,3.7-1.5c0.4-0.2,0.9-0.4,1.3-0.6c0.6-0.3,1.3-0.4,2-0.5c1-0.1,2.1-0.2,3.1,0c0.3,0.1,0.6,0.1,0.9,0.2
		c1.3,0.4,2.6,0.7,3.9,0.9c3.4,0.7,6.8,1.3,10.1,2.2c1.6,0.4,3.1,0.4,4.6,0.1c0.5-0.1,1.1-0.3,1.6-0.5c0.3-0.1,0.4-0.3,0.3-0.6
		c-0.1-0.2,0.1-0.4,0.2-0.5c0.4-0.2,0.9-0.4,1.4-0.5c0.2,0,0.4,0,0.5-0.2c0.9,0,1.7,0.4,2.5,0.7c0.2,0.1,0.4,0.3,0.5,0.4
		c0.8,0.8,1.6,1.6,2.4,2.4c0.3,0.3,0.6,0.7,0.9,1c0.7,1,1.5,2,2.2,3c0.3,0.4,0.5,0.8,0.7,1.2c1,2.1,2,4.2,3,6.2
		c0.2,0.5,0.4,0.9,0.6,1.4c0.4,1.1,0.7,2.3,1.1,3.4c0.3,1,0.8,2,1.3,2.9c0.5,1.1,0.9,2.1,1.3,3.3c0.1,0.2,0.1,0.4,0.1,0.6
		c-1.5,0.1-2.9,0.5-4.3,0.9c-0.1,0-0.1,0.1-0.2,0.2c-0.1,0-0.3-0.1-0.4,0.1c-0.5,0.1-1,0.3-1.5,0.5c-0.4,0.2-0.9,0.3-1.3,0.3
		c-0.8,0.1-1.6,0.3-2.3,0.8c-0.2,0.1-0.4,0.2-0.6,0.3c-0.2,0.1-0.4,0.2-0.7,0.1c-0.6-0.1-1.1-0.2-1.7-0.3c-0.2,0-0.3-0.2-0.3-0.4
		c0.1-0.6,0.3-1.2,0.5-1.8c0.3-1,0.3-2,0.2-3c0-0.1-0.1-0.2-0.1-0.3c-0.1,0-0.2,0-0.3,0.1c-1.2,1.1-2.4,2.2-3.7,3.1
		c-0.2,0.1-0.2,0.3-0.2,0.5c0.2,0.4,0.3,0.9,0.4,1.3c0.4,1.1,0.3,2.2-0.4,3.3c-0.3,0.5-0.6,1-0.9,1.4c-0.8,1.1-1.9,1.5-3.2,1.1
		c-0.9-0.2-1.6-0.6-2.4-1c-0.1-0.1-0.3-0.2-0.4-0.3c-0.2-0.1-0.4-0.4-0.7-0.3c-0.4,0.2-0.1,0.5-0.1,0.8c0,0.8,0.1,1.7,0,2.5
		c-0.2,1.5-0.9,2.7-2.2,3.5c-0.3,0.2-0.6,0.3-0.9,0.4c-0.6,0.1-1.1,0.2-1.7,0.3c-0.2,0-0.4,0.1-0.7,0.1c-0.3,0.1-0.5,0.2-0.6,0.6
		c0,0.1,0,0.1,0,0.2c-0.3,1.2-1.2,1.9-2.2,2.5c-0.5,0.3-1.1,0.3-1.7,0.2c-0.7-0.1-1.3-0.3-2-0.5c-0.3-0.1-0.6-0.2-1-0.2
		c-0.1,0.8-0.8,1.2-1.2,1.8c-0.3,0.4-0.7,0.6-1.2,0.7c-0.5,0.1-1,0.2-1.4,0.2c-0.4,0-0.8-0.1-1.2-0.2c-0.9-0.4-1.7-0.7-2.5-1.2
		c-0.3-0.2-0.5-0.2-0.8,0c-0.7,0.4-1.4,0.6-2.2,0.8c-0.9,0.2-1.7,0-2.5-0.1c-0.4-0.1-0.7-0.5-0.9-0.8c-0.4-0.7-1-1.1-1.6-1.5
		c-0.4-0.3-0.9-0.5-1.3-0.6c-0.5-0.1-1.1-0.2-1.6-0.4c-0.6-0.2-1.1-0.5-1.5-1c-0.5-0.6-0.9-1.2-1.1-2.1c-0.9,0.4-1.8,0.2-2.6-0.1
		c-0.6-0.2-1.2-0.6-1.7-0.9c-0.4-0.3-0.7-0.7-0.8-1.3c-0.1-0.5-0.1-1-0.2-1.5c0-0.2-0.1-0.4-0.4-0.3c-1.2,0.2-2.3-0.3-3.4-0.8
		c-0.4-0.2-0.7-0.5-0.9-1c-0.1-0.4-0.2-0.9-0.2-1.3c0-0.3,0-0.5,0-0.8c0-0.1-0.1-0.2-0.2-0.2c-0.2,0-0.4,0.2-0.4,0.3
		c0,0.2,0.1,0.4,0.1,0.6c0.1,0.3,0.2,0.6,0.2,0.9c0.1,0.3,0,0.6-0.5,0.6c-0.1,0-0.1,0-0.2,0c-1.5,0.3-1.5,0.3-2.9-0.5
		c-0.5-0.3-1.1-0.5-1.7-0.5c-0.7-0.1-1.4-0.3-2-0.6c-0.8-0.4-1.7-0.6-2.6-0.8c-0.2,0-0.3,0-0.5,0c-0.1,0-0.1,0-0.2-0.1
		C-77.4,182.2-78.3,182.1-79.3,182z M-59.9,183.7c0.1,0,0.2,0,0.2-0.1c0.6-0.8,1.4-1.1,2.3-1.3c1.2-0.3,2.3,0,3.1,1
		c0.3,0.4,0.5,0.7,0.7,1.1c0.1,0.2,0.2,0.4,0.3,0.6c0.2,0.3,0.2,0.3,0.5,0.3c0.2,0,0.3-0.1,0.5-0.1c1.1-0.2,2.2-0.1,3.1,0.7
		c0.6,0.5,0.9,1.2,1.1,1.9c0.3,0.8,0.2,1.5,0,2.3c-0.1,0.2-0.1,0.3-0.2,0.5c0,0.1,0,0.2,0.1,0.2c0.4,0.1,0.7,0.1,1.1,0.1
		c0.3,0,0.6,0,0.9,0c0.3,0,0.5,0.1,0.7,0.4c0.7,0.9,1.4,1.8,2.1,2.7c0.3,0.4,0.6,0.7,0.9,1c0.1,0.2,0.3,0.3,0.5,0.2
		c0.4-0.2,0.7,0,1.1,0.2c0.5,0.3,0.9,0.6,1.4,0.9c0.5,0.4,1.1,0.5,1.7,0.4c0.7,0,1.3-0.3,1.9-0.6c0.1-0.1,0.3-0.2,0.3-0.4
		c0.1-0.4,0.3-0.7,0.3-1.1c0-0.2-0.1-0.4-0.3-0.6c-1.2-0.9-2.3-1.9-3.5-2.8c-0.8-0.6-1.6-1.1-2.6-1.1c0,0-0.1,0-0.1,0
		c-0.1,0-0.2-0.1-0.2-0.3c0-0.2,0.1-0.2,0.2-0.2c0.8,0,1.6,0.2,2.3,0.7c1,0.8,2,1.5,3,2.4c1,0.9,2.1,1.6,3.4,2.1
		c1.1,0.4,2.3,0.5,3.4,0c0.5-0.2,0.8-0.5,1.1-0.9c0-0.1,0.1-0.1,0.1-0.2c0.2-0.4,0.3-0.8,0.4-1.3c0.2-0.6,0-0.9-0.6-1.2
		c-0.6-0.3-1.2-0.7-1.7-1.1c-0.6-0.5-1.1-1-1.7-1.5c-1.3-1.2-2.6-2.6-4.1-3.6c-0.1,0-0.1-0.1-0.1-0.1c-0.1-0.1,0-0.2,0-0.3
		c0.1-0.1,0.1-0.1,0.2-0.1c0.1,0.1,0.3,0.2,0.4,0.3c1.2,0.8,2.2,1.7,3.2,2.7c0.9,0.9,1.8,1.8,2.9,2.6c1.1,0.8,2.3,1.2,3.7,1.3
		c0.6,0.1,1.1-0.1,1.7-0.4c0.7-0.5,1.3-1.1,1.5-1.9c0.5-1.6,0.5-3.2-0.6-4.6c-0.6-0.8-1.2-1.6-1.9-2.3c-0.6-0.5-1.1-1-1.8-1.3
		c-1.1-0.5-2.1-1.3-3.2-2.1c-0.1-0.1-0.3-0.1-0.3-0.3c0-0.2,0.3-0.2,0.4-0.4c0.1-0.3,0.3-0.2,0.6-0.1c2,1.2,4,2.3,5.8,3.9
		c0.4,0.4,0.9,0.7,1.4,1.1c1.5,1.3,3.3,2,5.2,2.5c0.5,0.1,0.8,0,1.2-0.3c1-1,1.6-2.1,1.7-3.5c0-1.7-0.6-3.1-1.7-4.3
		c-1.4-1.6-3-3-4.9-4.2c-1.1-0.7-2.2-1.4-3.3-2.2c-3-2.1-6.1-4.1-9.3-5.9c-1.1-0.6-2.2-1.3-3.2-2.1c-1.1-0.8-2.3-1.4-3.5-1.9
		c-0.9-0.4-1.8-0.6-2.7-0.5c-0.5,0-1,0.1-1.4,0.3c-1,0.4-2,0.8-3,1.4c-1,0.6-2.1,1.2-3.1,1.8c-1.7,0.9-3.4,1.7-5.2,2.3
		c-1.3,0.4-2.6,0-3.3-1.1c-0.6-0.8-0.5-2,0.2-2.7c0.4-0.4,0.8-0.7,1.2-1c0.5-0.3,1-0.6,1.5-0.9c0.6-0.4,1.1-0.9,1.5-1.5
		c0.1-0.1,0.1-0.2,0.1-0.3c0-0.1,0-0.2-0.1-0.2c-0.1,0-0.3,0-0.4,0c-2,0.1-4,0-5.9-0.4c-0.4-0.1-0.5,0-0.6,0.4c-0.2,1-0.6,2-1,3
		c-0.2,0.4-0.3,0.9-0.4,1.3c-0.6,1.6-0.9,3.2-1.4,4.8c-0.2,0.7-0.4,1.4-0.6,2.2c-0.4,1.9-0.8,3.7-1.3,5.6c-0.4,1.8-0.8,3.6-0.8,5.5
		c0,0.2,0,0.5,0,0.7c0,0.1,0.1,0.2,0.3,0.2c0.5-0.1,1.1-0.2,1.3-0.8c0-0.1,0.1-0.1,0.1-0.2c0.1-0.2,0.3-0.2,0.5-0.1
		c1.1,0.4,2.1,0.9,3,1.6C-61.1,182.8-60.5,183.2-59.9,183.7z M-38.5,151.2c-1.6,0-3.1,0.3-4.4,1c-1.5,0.9-3.2,1.4-4.9,1.9
		c-0.5,0.1-1,0.3-1.5,0.4c-1.4,0.3-2.5,1.1-3.2,2.3c-0.2,0.4-0.4,0.7-0.7,1.1c-0.2,0.4-0.5,0.8-0.7,1.2c-0.6,0.9-1.3,1.7-2.3,2.2
		c-0.6,0.3-1.1,0.7-1.7,1.1c-0.2,0.2-0.4,0.4-0.6,0.6c-0.1,0.1-0.2,0.3-0.3,0.5c-0.2,0.8,0.2,1.8,1,2.2c0.6,0.3,1.3,0.4,2,0.2
		c1.5-0.5,3-1.1,4.4-1.9c1.1-0.6,2.2-1.2,3.3-1.8c1.4-0.8,2.9-1.5,4.5-2c0.6-0.2,1.1-0.3,1.7-0.3c1,0,1.9,0.2,2.8,0.6
		c1.1,0.4,2.1,1.1,3.1,1.7c1.8,1.2,3.7,2.5,5.5,3.7c3.5,2.4,6.9,5,10.6,7.1c0.7,0.4,1.3,1,1.9,1.6c1,1,1.9,2,2.9,3
		c0.1,0.1,0.3,0.3,0.4,0.4c0.3,0.2,0.4,0.2,0.7,0c0.1,0,0.1-0.1,0.2-0.1c0.9-0.8,1.9-1.6,2.8-2.4c0.3-0.3,0.5-0.7,0.9-1
		c0.4-0.2,0.4-0.5,0.3-0.9c-0.9-3.7-1.6-7.5-2.7-11.2c-0.6-2-1.2-3.9-1.9-5.8c-0.2-0.4-0.3-0.9-0.4-1.3c-0.1-0.4-0.2-0.8-0.3-1.2
		c-0.1-0.2-0.2-0.2-0.4-0.1c-0.8,0.5-1.7,0.7-2.7,0.8c-1.4,0.2-2.8,0.3-4.1-0.1c-3.4-0.9-6.8-1.5-10.1-2.3c-1.4-0.3-2.9-0.5-4.3-1
		C-37.2,151.3-37.9,151.2-38.5,151.2z M-49.4,191.4c0.2-0.4,0.4-0.7,0.5-1c0.9-1.5,0-3.5-0.9-4.2c-0.3-0.3-0.7-0.5-1.1-0.5
		c-0.6-0.1-1.2,0-1.8,0.2c-0.2,0.1-0.4,0.3-0.8,0.2c-0.1-0.3-0.2-0.6-0.3-0.9c-0.3-0.7-0.6-1.4-1.2-1.9c-0.5-0.5-1.1-0.7-1.8-0.6
		c-0.5,0-1,0.2-1.5,0.4c-0.4,0.2-0.8,0.4-1,0.8c-0.1,0.2-0.2,0.5-0.5,0.6c-0.4-0.3-0.7-0.6-1.1-0.9c-0.6-0.4-1.1-0.9-1.7-1.3
		c-0.5-0.4-1.1-0.7-1.7-0.9c-0.4-0.1-0.5,0-0.5,0.3c0,0.6,0,1.3,0,1.9c0,0.2,0,0.4,0.1,0.6c0.1,0.4,0.3,0.8,0.8,0.9
		c0.4,0.1,0.8,0.3,1.3,0.5c0.7,0.2,1.3,0.2,2,0c0.2-0.1,0.3-0.2,0.6-0.1c0.1,0.3,0.1,0.7,0.1,1.1c0,0.6,0.1,1.2,0.2,1.7
		c0.1,0.3,0.2,0.5,0.5,0.7c0.5,0.4,1.1,0.7,1.7,0.9c1.4,0.4,1.4,0.3,2.3-0.4c0.2-0.1,0.3-0.4,0.6-0.2c0,0.3,0,0.7,0,1
		c0,0.4,0.1,0.8,0.3,1.1c0.5,0.9,1.2,1.6,2.3,1.7c0.2,0,0.4,0.1,0.7,0.1c0.9,0.1,1.6,0.6,2.4,1.1c0.5,0.4,1,0.8,1.3,1.4
		c0.2,0.3,0.5,0.5,0.9,0.5c0.2,0,0.4,0.1,0.6,0.1c1.1,0.1,2.5-0.3,3.4-1c0-0.1,0-0.1-0.1-0.2c-0.8-0.8-1.4-1.8-2.1-2.7
		c-0.1-0.2-0.3-0.4-0.5-0.5c-0.9-0.5-1.8-0.9-2.8-0.9C-48.7,191.4-48.9,191.4-49.4,191.4z M-21.5,184.8
		C-21.5,184.8-21.5,184.8-21.5,184.8c-0.1,0-0.1,0-0.1,0.1c0,0,0,0,0.1,0.1C-21.5,184.9-21.5,184.8-21.5,184.8z"/>
	<path class="st3" d="M-2,179.4c0.1-0.1,0.3-0.1,0.4-0.1c-0.1,0.2,0,0.4,0.1,0.6c0.5,1,1,2,1.5,3c0.2,0.5,0.5,0.9,0.8,1.3
		c0.4,0.6,0.9,1.2,1.6,1.5c0.8,0.4,1.5,0.7,2.4,0.3c0,0.1,0,0.2,0,0.3c-0.7,0.3-1.3,0.1-2-0.1c-0.9-0.3-1.7-1-2.2-1.8
		c-0.4-0.6-0.7-1.1-1.1-1.7c-0.5-0.9-0.9-1.8-1.4-2.8C-1.9,179.9-1.9,179.6-2,179.4z"/>
	<path class="st3" d="M-76.5,182.5c0.1,0,0.1,0,0.2,0.1c-0.1,0.7-0.4,1.4-0.7,2.1c-0.6,1-1.1,2-1.7,2.9c-0.5,0.8-1.2,1.5-2,2
		c0-0.1,0-0.2,0-0.3c0.6-0.5,1.3-1.1,1.7-1.7C-78.1,186-77,184.4-76.5,182.5z"/>
	<path class="st4" d="M4.8,186.1c-0.9,0.4-1.7,0-2.4-0.3c-0.7-0.3-1.2-0.9-1.6-1.5c-0.3-0.4-0.6-0.9-0.8-1.3c-0.5-1-1-2-1.5-3
		c-0.1-0.2-0.2-0.4-0.1-0.6c0.1-0.1,0.1-0.2,0.2-0.2c1.4-0.3,2.8-0.7,4.3-0.9c0.1,0.1,0.2,0.2,0.2,0.3c0.4,1.4,0.9,2.8,1.3,4.2
		C4.7,183.9,4.9,185,4.8,186.1z"/>
	<path class="st4" d="M-76.5,182.5c-0.5,1.9-1.6,3.5-2.6,5.1c-0.4,0.7-1.1,1.2-1.7,1.7c0-0.1,0-0.2,0-0.3c0.5-2.3,0.9-4.5,1.4-6.8
		c0-0.1,0.1-0.2,0.2-0.2C-78.3,182.1-77.4,182.2-76.5,182.5z"/>
	<path class="st3" d="M-59.9,183.7c-0.6-0.5-1.2-0.9-1.8-1.4c-0.9-0.7-1.9-1.2-3-1.6c-0.2-0.1-0.4,0-0.5,0.1c0,0-0.1,0.1-0.1,0.2
		c-0.2,0.6-0.8,0.7-1.3,0.8c-0.2,0-0.3-0.1-0.3-0.2c0-0.2,0-0.4,0-0.7c0-1.9,0.3-3.7,0.8-5.5c0.5-1.9,0.9-3.7,1.3-5.6
		c0.2-0.7,0.4-1.4,0.6-2.2c0.5-1.6,0.8-3.2,1.4-4.8c0.2-0.4,0.3-0.9,0.4-1.3c0.4-1,0.8-1.9,1-3c0.1-0.4,0.2-0.5,0.6-0.4
		c2,0.4,3.9,0.5,5.9,0.4c0.1,0,0.3,0,0.4,0c0.1,0,0.2,0.1,0.1,0.2c0,0.1-0.1,0.2-0.1,0.3c-0.4,0.6-0.9,1.1-1.5,1.5
		c-0.5,0.3-1,0.6-1.5,0.9c-0.4,0.3-0.8,0.6-1.2,1c-0.7,0.7-0.8,1.9-0.2,2.7c0.7,1.1,2.1,1.6,3.3,1.1c1.8-0.6,3.6-1.4,5.2-2.3
		c1-0.6,2.1-1.2,3.1-1.8c1-0.5,2-1,3-1.4c0.5-0.2,0.9-0.3,1.4-0.3c1-0.1,1.9,0.1,2.7,0.5c1.2,0.5,2.4,1.1,3.5,1.9
		c1,0.8,2.1,1.4,3.2,2.1c3.2,1.8,6.2,3.8,9.3,5.9c1.1,0.8,2.2,1.5,3.3,2.2c1.8,1.1,3.5,2.5,4.9,4.2c1.1,1.2,1.7,2.7,1.7,4.3
		c0,1.4-0.7,2.5-1.7,3.5c-0.3,0.3-0.7,0.4-1.2,0.3c-1.9-0.5-3.7-1.2-5.2-2.5c-0.4-0.4-0.9-0.7-1.4-1.1c-1.8-1.6-3.8-2.7-5.8-3.9
		c-0.2-0.1-0.4-0.2-0.6,0.1c-0.1,0.2-0.4,0.2-0.4,0.4c0,0.2,0.2,0.2,0.3,0.3c1,0.7,2,1.5,3.2,2.1c0.7,0.3,1.2,0.8,1.8,1.3
		c0.8,0.7,1.3,1.5,1.9,2.3c1.1,1.5,1.1,3,0.6,4.6c-0.3,0.8-0.8,1.5-1.5,1.9c-0.5,0.3-1.1,0.5-1.7,0.4c-1.4-0.1-2.6-0.6-3.7-1.3
		c-1.1-0.8-2-1.7-2.9-2.6c-1-1-2-1.9-3.2-2.7c-0.1-0.1-0.3-0.2-0.4-0.3c-0.1,0-0.2,0-0.2,0.1c-0.1,0.1-0.1,0.2,0,0.3
		c0,0.1,0.1,0.1,0.1,0.1c1.5,1,2.8,2.3,4.1,3.6c0.5,0.5,1.1,1,1.7,1.5c0.5,0.4,1.1,0.8,1.7,1.1c0.6,0.3,0.7,0.6,0.6,1.2
		c-0.1,0.4-0.3,0.9-0.4,1.3c0,0.1,0,0.1-0.1,0.2c-0.3,0.4-0.6,0.7-1.1,0.9c-1.1,0.4-2.3,0.4-3.4,0c-1.3-0.5-2.4-1.1-3.4-2.1
		c-0.9-0.9-2-1.6-3-2.4c-0.7-0.5-1.5-0.7-2.3-0.7c-0.1,0-0.2,0.1-0.2,0.2c0,0.1,0.1,0.2,0.2,0.3c0,0,0.1,0,0.1,0
		c1,0,1.9,0.5,2.6,1.1c1.2,0.9,2.3,1.9,3.5,2.8c0.2,0.2,0.3,0.3,0.3,0.6c0,0.4-0.1,0.8-0.3,1.1c-0.1,0.1-0.2,0.3-0.3,0.4
		c-0.6,0.3-1.2,0.6-1.9,0.6c-0.6,0-1.2-0.1-1.7-0.4c-0.4-0.3-0.9-0.6-1.4-0.9c-0.3-0.2-0.7-0.4-1.1-0.2c-0.2,0.1-0.4,0-0.5-0.2
		c-0.3-0.3-0.6-0.7-0.9-1c-0.7-0.9-1.4-1.8-2.1-2.7c-0.2-0.3-0.4-0.4-0.7-0.4c-0.3,0-0.6,0-0.9,0c-0.4,0-0.7-0.1-1.1-0.1
		c-0.1,0-0.2-0.1-0.1-0.2c0-0.2,0.1-0.3,0.2-0.5c0.3-0.8,0.3-1.5,0-2.3c-0.2-0.7-0.5-1.4-1.1-1.9c-0.9-0.8-1.9-1-3.1-0.7
		c-0.2,0-0.3,0.1-0.5,0.1c-0.3,0.1-0.4,0.1-0.5-0.3c-0.1-0.2-0.2-0.4-0.3-0.6c-0.2-0.4-0.4-0.8-0.7-1.1c-0.8-1-1.9-1.3-3.1-1
		c-0.9,0.2-1.7,0.5-2.3,1.3C-59.7,183.6-59.8,183.6-59.9,183.7z"/>
	<path class="st3" d="M-38.5,151.2c0.6,0,1.3,0,1.9,0.3c1.4,0.5,2.8,0.7,4.3,1c3.4,0.7,6.8,1.4,10.1,2.3c1.4,0.4,2.8,0.3,4.1,0.1
		c0.9-0.2,1.8-0.4,2.7-0.8c0.2-0.1,0.3-0.1,0.4,0.1c0.1,0.4,0.2,0.8,0.3,1.2c0.1,0.4,0.2,0.9,0.4,1.3c0.7,1.9,1.3,3.9,1.9,5.8
		c1.1,3.7,1.8,7.5,2.7,11.2c0.1,0.4,0.1,0.7-0.3,0.9c-0.4,0.2-0.6,0.7-0.9,1c-0.9,0.8-1.9,1.6-2.8,2.4c0,0-0.1,0.1-0.2,0.1
		c-0.3,0.2-0.4,0.2-0.7,0c-0.1-0.1-0.3-0.3-0.4-0.4c-1-1-1.9-2-2.9-3c-0.6-0.6-1.2-1.2-1.9-1.6c-3.7-2.1-7-4.7-10.6-7.1
		c-1.8-1.2-3.7-2.5-5.5-3.7c-1-0.7-2-1.3-3.1-1.7c-0.9-0.4-1.8-0.6-2.8-0.6c-0.6,0-1.1,0.2-1.7,0.3c-1.6,0.4-3.1,1.2-4.5,2
		c-1.1,0.6-2.2,1.2-3.3,1.8c-1.4,0.8-2.9,1.3-4.4,1.9c-0.7,0.2-1.4,0.1-2-0.2c-0.8-0.4-1.2-1.4-1-2.2c0.1-0.2,0.2-0.4,0.3-0.5
		c0.2-0.2,0.4-0.4,0.6-0.6c0.6-0.4,1.1-0.8,1.7-1.1c0.9-0.6,1.7-1.3,2.3-2.2c0.2-0.4,0.5-0.8,0.7-1.2c0.2-0.4,0.4-0.7,0.7-1.1
		c0.8-1.2,1.8-2,3.2-2.3c0.5-0.1,1-0.3,1.5-0.4c1.7-0.5,3.3-1,4.9-1.9C-41.5,151.5-40.1,151.2-38.5,151.2z"/>
	<path class="st3" d="M-49.4,191.4c0.5,0,0.7,0,1,0c1,0,2,0.4,2.8,0.9c0.2,0.1,0.3,0.3,0.5,0.5c0.7,0.9,1.3,1.8,2.1,2.7
		c0,0,0,0.1,0.1,0.2c-0.9,0.7-2.2,1.1-3.4,1c-0.2,0-0.4-0.1-0.6-0.1c-0.4,0-0.7-0.2-0.9-0.5c-0.3-0.6-0.8-1-1.3-1.4
		c-0.7-0.5-1.5-1-2.4-1.1c-0.2,0-0.4-0.1-0.7-0.1c-1.1-0.2-1.8-0.8-2.3-1.7c-0.2-0.3-0.3-0.7-0.3-1.1c0-0.4,0-0.7,0-1
		c-0.3-0.2-0.5,0.1-0.6,0.2c-1,0.7-0.9,0.8-2.3,0.4c-0.6-0.2-1.2-0.5-1.7-0.9c-0.3-0.2-0.4-0.4-0.5-0.7c-0.1-0.6-0.2-1.2-0.2-1.7
		c0-0.4,0-0.8-0.1-1.1c-0.3-0.1-0.5,0-0.6,0.1c-0.7,0.3-1.3,0.3-2,0c-0.4-0.1-0.8-0.3-1.3-0.5c-0.5-0.2-0.7-0.5-0.8-0.9
		c0-0.2-0.1-0.4-0.1-0.6c0-0.6,0-1.3,0-1.9c0-0.4,0.1-0.4,0.5-0.3c0.6,0.2,1.2,0.5,1.7,0.9c0.6,0.4,1.2,0.8,1.7,1.3
		c0.4,0.3,0.7,0.6,1.1,0.9c0.3-0.1,0.4-0.4,0.5-0.6c0.2-0.4,0.6-0.7,1-0.8c0.5-0.2,1-0.3,1.5-0.4c0.7-0.1,1.3,0.2,1.8,0.6
		c0.6,0.5,0.9,1.2,1.2,1.9c0.1,0.3,0.2,0.6,0.3,0.9c0.3,0.1,0.5-0.1,0.8-0.2c0.6-0.3,1.2-0.3,1.8-0.2c0.4,0,0.8,0.2,1.1,0.5
		c0.9,0.7,1.8,2.7,0.9,4.2C-49,190.7-49.2,190.9-49.4,191.4z"/>
	<path d="M64.4,92c-3.2,0-6.2,0-9.3,0c-11.8,0-23.6,0-35.4,0c-1.4,0-1.4,0-1.4-1.3c0-13.3,0-26.6,0-39.9c0-0.4,0-0.8,0-1.3
		c5.3,0,10.5,0,15.9,0c0,2.9,0,5.7,0,8.6c1.2-1.2,2.2-2.4,3.4-3.6c1.4,1.5,2.5,2.7,3.6,3.9c1.2-1.3,2.4-2.5,3.7-3.9
		c1.2,1.4,2.3,2.5,3.3,3.7c0.1-0.1,0.2-0.1,0.3-0.2c0-2.8,0-5.7,0-8.6c5.3,0,10.6,0,15.9,0C64.4,63.6,64.4,77.7,64.4,92z M23.5,86.6
		c1.3,0,2.4,0,3.7,0c0-4.1,0-8.2,0-12.3c0.6-0.1,1.1-0.1,1.7-0.2c-1.2-2.4-2.4-4.7-3.6-7.2c-1.3,2.5-2.4,4.8-3.6,7.2
		c0.7,0.1,1.2,0.1,1.8,0.1C23.5,78.5,23.5,82.5,23.5,86.6z M37.9,74.4c0.6-0.1,1.1-0.1,1.8-0.2c-1.2-2.4-2.3-4.7-3.6-7.1
		c-1.3,2.5-2.4,4.8-3.6,7.2c0.7,0.1,1.1,0.1,1.8,0.2c0,4.1,0,8.2,0,12.2c1.3,0,2.4,0,3.6,0C37.9,82.5,37.9,78.5,37.9,74.4z"/>
	<path d="M78.6,12.2c0,0.3,0.1,0.6,0.1,0.9c0,5.8,0,11.7,0,17.5c0,0.5,0.1,0.9-0.6,1.1c-6.6,1.8-13.2,3.6-19.8,5.6
		c-4.3,1.3-8.7,1.2-13,0.6c-5.7-0.8-11.4-1.8-17.1-2.9c-2.9-0.5-3.8-3.3-1.9-5.7c1.2-1.6,3-2.2,4.9-2.6c2.1-0.5,4.1,0.1,6.2,0.3
		c1.6,0.2,3.2,0.3,4.9,0.4c1.7,0,2.8-0.7,3-1.9c0.2-1.4-0.5-2.6-2.1-3.2c-2.8-1.1-5.7-1.1-8.6-0.9c-9.1,0.7-18.1,2.5-26.6,5.9
		c-1.3,0.5-2.8,0.7-4.2,0.7c-2.5,0-3.6-1.6-3-4c0.3-1.3,1.1-2.2,2.2-2.7c6.8-3,13.5-6.1,20.4-8.7c3.2-1.2,6.8-1.4,10.3-2
		c2.2-0.3,4.5-0.4,6.7-0.7c5.3-0.6,10.5,0.4,15.7,1.4c5.3,1,10.5,1.9,15.9,1.7C74.1,12.7,76.3,12.4,78.6,12.2z"/>
	<path d="M84.2,6.7c5.3,0,10.6,0,15.8,0c0,11.8,0,23.6,0,35.4c-5.3,0-10.5,0-15.8,0C84.2,30.3,84.2,18.6,84.2,6.7z M87.6,36
		c0,1.5,1.3,2.7,2.8,2.7c1.5,0,2.7-1.3,2.7-2.8c0-1.5-1.3-2.7-2.8-2.7C88.8,33.3,87.6,34.6,87.6,36z"/>
	<path d="M68.2,49.4c2.3,2.3,4.3,4.6,6.6,6.6c1.7,1.5,2.3,3.1,2.2,5.3c-0.1,8.6-0.1,17.2-0.1,25.8c0,0.4,0,0.8,0,1.3
		c-2.9,1.2-5.8,2.3-8.7,3.5C68.2,77.8,68.2,63.8,68.2,49.4z"/>
</g>
</svg>
