<?xml version="1.0" encoding="utf-8"?>
<!-- Generator: Adobe Illustrator 19.0.1, SVG Export Plug-In . SVG Version: 6.00 Build 0)  -->
<svg version="1.1" id="Слой_1" xmlns="http://www.w3.org/2000/svg" xmlns:xlink="http://www.w3.org/1999/xlink" x="0px" y="0px"
	 viewBox="0 0 215 110" style="enable-background:new 0 0 215 110;" xml:space="preserve">
<style type="text/css">
	.st0{fill:#009245;}
	.st1{fill:#FBB03B;}
</style>
<g>
	<g>
		<path class="st0" d="M199.5,33.5c-0.5-0.1-0.8-0.2-1.3-0.2c0.2,0.9-0.4,1.3-1,1.4c-0.4,0.1-0.9-0.3-1.5-0.5
			c-0.6,0.8-1.1-0.3-1.7-0.4c-0.1,0.2-0.1,0.5-0.2,0.6c-0.9-0.2-1.8-0.4-2.7-0.6c0,0.1,0,0.2-0.1,0.3c2.5,1.3,4.8,3.3,8.1,1.2
			c-0.1,0.6-0.1,1-0.2,1.7c1-0.2,2-0.5,3.1-0.8c0,0.3,0,0.5,0,0.5c0.9,0.3,1.7,0.5,2.6,0.8c-0.8,0.6-1.5,1.1-2.2,1.6
			c0.3,0.5,0.3,0.5-0.7,0.9c0.1,0.2,0.2,0.5,0.4,0.9c-1,0-2,0-3,0c-0.1,0.2-0.1,0.5-0.2,0.8c-0.6-0.3-1-0.5-1.6-0.7
			c0,0.2-0.1,0.4-0.1,0.8c-1-0.2-1.9-0.4-2.8-0.5c0,0.9,0.8,1.3,1.8,1.6c1.8,0.5,3.5,0.6,4.9-0.8c0.1-0.1,0.2-0.1,0.4-0.1
			c-0.1,0.4-0.2,0.6-0.4,1c0.4-0.1,0.7-0.2,1.1-0.3c0,0,0.1,0.1,0.1,0.1c-0.3,0.3-0.5,0.6-0.9,1c0.9-0.2,1.6-0.3,2.2-0.4
			c0.8,0.4,1.6,0.8,2.6,1.3c-0.5,0.3-1.1,0.5-1.1,0.7c-0.1,0.9-0.9,0.5-1.3,0.8c-0.3,0.3-0.4,0.6-0.7,1.1c-0.6,0-1.3-0.1-2.1-0.2
			c0.4,0.5,0.8,0.8,1.2,1.3c-1.3,0.2-2.3,1.3-3.4,0.2c-0.2,0.3-0.4,0.5-0.7,0.9c2.4,0.7,4.9,0.7,7.5,0.1c-0.4,0.4-0.6,0.7-0.8,0.9
			c0.1,0.1,0.2,0.2,0.3,0.3c-0.4,0.1-0.8,0.3-1.2,0.4c0.2,0.3,0.5,0.6,0.8,0.9c0,0.1-0.1,0.1-0.1,0.2c-0.6-0.1-1.3-0.2-2.1-0.2
			c0.5,1,1.2,1.3,2,1.2c1-0.2,2-0.5,3-0.7c0.4-0.1,0.8-0.2,1.2-0.3c0,0.1,0.1,0.1,0.1,0.2c-0.2,0.3-0.5,0.5-0.6,0.8
			c-0.1,0.2-0.2,0.5-0.1,0.7c0.2,0.6,0.1,1-0.4,1.3c-0.2,0.1-0.3,0.4-0.5,0.6c0,0-0.2,0-0.3-0.1c-0.1,0-0.3-0.1-0.5-0.2
			c0.1,0.2,0.2,0.4,0.3,0.7c-0.9,0.2-1.6,0.5-2.5,0c-0.5-0.3-1.3,0.1-1.9,0.3c2,1.2,4.1,1.9,6.4,0.7c0,0.4,0.1,0.7,0.1,1
			c1-0.2,2-0.4,3-0.7c0,0.1,0.1,0.2,0.1,0.4c-0.8,1-1.7,1.7-3,2.1c0.3,0.2,0.5,0.3,1,0.6c-0.7,0.1-1.3,0.1-1.8,0.2
			c0,0.1-0.1,0.1-0.1,0.2c0.3,0.2,0.5,0.3,0.8,0.5c0,0.1-0.1,0.2-0.1,0.3c-1.2-0.2-2.5-0.8-3.7,0.3c1.6,0.9,3.4,0.8,5.1,0.9
			c-0.1,0.2-0.1,0.4-0.3,0.7c1.7-0.1,3.3-0.2,4.9-0.2c0,0.1,0,0.1,0.1,0.2c-0.7,0.3-1.5,0.6-2.3,0.9l1.2,1.6l-4.8,1.5
			c0,0.8-1.4,1.3-2.5,0.8c-0.1,0.1-0.1,0.3-0.1,0.2c-1.1,0-2,0-3,0c-0.5,0-1-0.1-1.6-0.2c-0.8-0.1-1.6-0.3-2.5-0.3
			c1.3,1.4,3,1.6,4.6,2.2c1.7,0.7,3.4,0.6,5.2-0.2c-0.1,0.6-0.2,0.8-0.3,1.1c1.4,0,2.9,0,4.5,0c-0.4,0.4-0.6,0.5-0.8,0.7
			c0.6,0.1,1.2,0.3,1.9,0.5c-0.7,0.7-1.3,0.8-3.4,0.5c0.3,0.1,0.7,0.3,1,0.4c0.3,0.2,0.6,0.4,0.9,0.6c-1,0.7-1.9-0.4-2.8,0.2
			c-0.7,0.4-1.7,0.3-2.8,0.5c0.5,0.7,0.8,1.1,1.1,1.6c-0.1,0.1-0.2,0.2-0.2,0.2c-0.6-0.4-1.1-0.8-1.4-1.1c-0.7,0.2-1.3,0.3-1.9,0.5
			c0,0.1,0,0.4,0.1,0.9c-0.8-0.5-1.6-0.9-2.5-1.3c0.1,0.6,0.1,0.9,0.2,1.4c-0.5-0.4-0.8-0.7-1.2-1c0,0.1,0,0.1,0,0.2
			c-0.4,0-0.7,0-1.2,0c0.2,0.1,0.3,0.3,0.4,0.3c1.7,0.8,3.5,1.6,5.2,2.4c1.4,0.6,2.8,0.4,4.2-0.4c0.5-0.3,1.2-0.5,1.7-0.8
			c0.1,0.1,0.1,0.2,0.2,0.3c-0.3,0.3-0.6,0.7-1,1.1c1.2-0.2,2.2-0.4,3.3-0.6c0,0.1,0.1,0.2,0.1,0.3c-0.9,1-2.3,0.8-3.6,1.5
			c1.1,0.2,2.1,0.4,3.1,0.5c0,0.1,0,0.2,0,0.3c-0.6,0-1.2,0.1-2.1,0.1c0.7,0.3,1.2,0.5,1.8,0.8c0,0.1-0.1,0.2-0.1,0.3
			c-0.7,0-1.4-0.1-2.1-0.1c0.2,0.2,0.3,0.4,0.5,0.6c-0.3,0.1-0.5,0.2-0.9,0.4c0.3,0.2,0.5,0.3,0.8,0.4c0,0.1,0,0.2,0,0.2
			c-0.6,0.1-1.1,0.2-1.7,0.2c0.1,0.2,0.3,0.3,0.5,0.7c-0.6,0-1.1,0.1-1.7,0.1c0,0.2,0.1,0.3,0.2,0.7c-0.5-0.1-0.9-0.1-1.3-0.2
			c0.8,0.9,1.9,0.9,3,1.1c1.1,0.2,2.2,0.3,3.2,0.5c0,0.1,0,0.2,0,0.3c-0.6,0.2-1.3,0.3-2,0.5c0.1,0.2,0.3,0.4,0.5,0.6
			c0,0.1-0.1,0.2-0.1,0.2c-0.8-0.4-1.6-0.7-2.4-1.1c0,0-0.1,0.1-0.1,0.1c0.3,0.2,0.6,0.4,1.1,0.8c-0.6,0.2-0.9,0.3-1.3,0.4
			c0.2,0.3,0.3,0.6,0.5,0.8c0,0.1-0.1,0.2-0.1,0.2c-0.6-0.3-1.2-0.6-1.9-0.9c-0.2,0.4-0.5,1.1-1.3,0.5c-0.4-0.4-0.9-0.7-1.4-1.2
			c-0.2,0.7,0.7,1.5-0.3,1.9c-0.2,0.1-0.6-0.2-1-0.3c-0.1,0.2-0.2,0.4-0.4,0.7c-0.2-0.3-0.5-0.6-0.7-0.9c-0.3,0.1-0.5,0.2-0.8,0.4
			c-0.2-0.3-0.3-0.5-0.6-0.7c-0.2-0.2-0.6-0.3-0.6-0.3c-0.5,0.8-1,0.1-1.5,0c-0.1,0-0.2,0-0.1,0c0,0.5-0.1,1-0.1,1.3
			c-1.2,0-2.2,0-3.3,0c0,0-0.1,0.2-0.1,0.3c-0.9-0.2-1.8-0.3-2.6-0.6c-0.5-0.2-0.8-0.6-1.2-1c0,0-0.1,0.1-0.2,0.2
			c-0.4-0.4-0.7-0.9-1.2-1.4c-0.5,1.6,0.4,2.9,0.5,4.3c-2,0-3.9,0-5.9,0c0.1-0.3,0.3-0.6,0.3-0.8c0.3-1.4,0.7-2.8,0.9-4.2
			c0.1-0.9-0.9-0.5-1.3-1.1c0,1.5-1,2-2,2.5c0-0.3,0-0.5,0-0.7c-0.1,0-0.1,0-0.2,0c-0.2,0.3-0.4,0.6-0.6,0.9c-0.6,1-0.7,1.1-1.3,1
			c-0.6,0.3-1.3,0.6-1.9,0.8c0,0.1,0.1,0.1,0.1,0.2c-0.2-0.1-0.3-0.3-0.5-0.4c-1.2,0.8-1.2,0.8-1.5-0.8c-0.6,0.5-1.2,0.9-2,1.5
			c0-0.6-0.1-1-0.1-1.3c-0.4,0.3-0.8,0.6-1.2,0.8c-0.5,0.3-1,0.2-1.1-0.5c-0.3,0.2-0.5,0.3-0.7,0.4c-0.4-0.2-0.8-0.4-1.3-0.6
			c0.2-0.3,0.3-0.7,0.6-1.1c-0.9,0.3-1.7,0.5-2.5,0.8c0-0.1-0.1-0.1-0.1-0.2c0.4-0.4,0.7-0.8,1.2-1.4c-0.6,0.1-1,0.2-1.4,0.2
			c-0.2,0-0.4-0.2-0.6-0.3c0.1-0.2,0.3-0.4,0.4-0.5c0.8-0.3,1.7-0.5,2.5-0.7c-0.9-0.8-1.6,0.5-2.5,0.3c0-0.2-0.1-0.4-0.1-0.7
			c-0.6,0.1-1.3,1-1.7-0.2c-0.4,0.2-0.9,0.4-1.6,0.8c0.1-0.4,0.1-0.6,0.2-0.9c-0.3,0-0.5,0-1,0c0.3-0.5,0.5-0.8,0.7-1.1
			c-0.8,0.2-1.7,0.4-2.5,0.5c0-0.1-0.1-0.2-0.1-0.3c0.8-0.4,1.5-0.9,2.4-1.4c-0.6-0.1-1-0.2-1.4-0.3c0-0.1,0-0.2,0-0.3
			c0.7-0.1,1.4-0.2,2.1-0.3c-0.1-0.1-0.1-0.3-0.2-0.4c0.5-0.2,1-0.5,1.5-0.6c0.4-0.1,0.9,0.1,1.3,0.2c1.4,0.5,2.7,0,4-0.3
			c0.2,0,0.3-0.4,0.3-0.8c-0.3,0.2-0.7,0.5-1,0.7c-0.1,0-0.2-0.1-0.2-0.1c0.1-0.4,0.2-0.9,0.3-1.2c-0.7,0.6-1.4,1.2-2.2,1.8
			c-0.1,0-0.1-0.1-0.2-0.1c0.1-0.5,0.2-0.9,0.3-1.5c-0.7,0.4-1.2,0.7-1.9,1.1c-0.1-0.6-0.2-1-0.3-1.5c-0.6,0.1-1.1,0.3-1.7,0.4
			c-0.1-0.1-0.1-0.2-0.2-0.2c0.3-0.4,0.6-0.9,0.9-1.4c-0.7,0.1-1.3,0.4-1.9,0.4c-0.4,0-0.9-0.3-1.3-0.5c0.4-0.2,0.8-0.4,1.2-0.5
			c0.4-0.1,0.8-0.1,1.2-0.2c0-0.1,0-0.2,0.1-0.2c-0.4-0.2-0.7-0.4-1.1-0.7c0-0.1,0-0.2,0-0.2c2.2,0,4.5,0,6.7,0c0-0.2,0-0.3,0-0.5
			c-0.5-0.1-1.1-0.1-1.7-0.2c0.1-0.1,0.1-0.3,0.3-0.7c-1,0.7-1.7,0.4-2.3-0.2c0,0,0,0-0.1-0.1c-0.3-0.1-0.6-0.2-0.9-0.2
			c0.3-0.3,0.5-0.6,0.8-0.8c0.1-0.1,0.2-0.2,0.3-0.3c-0.9,0-1.8,0.4-2.4-0.7c1.2-0.2,2.2-0.4,3.4-0.6c0.5-0.5,0.2-1-0.4-1.4
			c-0.8,0.5-1.9,0.4-2.6-0.1c-0.1-0.1-0.1-0.1-0.1-0.2c-0.2-0.3-0.4-0.6-0.6-0.9c-0.1,0-0.2,0-0.4,0c0.3-0.4,0.6-0.8,0.8-1.2
			c-0.8-0.3-1.7-0.5-2.6-0.8c0-0.1,0.1-0.2,0.1-0.3c0.9-0.5,1.9,0,2.9,0.1c-0.2-0.3-0.5-0.6-0.7-0.9c0-0.1,0.1-0.2,0.1-0.3
			c0.8,0.1,1.6,0.3,2.4,0.4c-0.2-0.7,0.2-0.8,0.8-0.7c0.3,0.1,0.7,0,1,0.2c1.9,0.9,3.6,0,5.3-0.7c0.4-0.1,0.6-0.6,0.8-1
			c-0.6,0.2-1.2,0.4-1.9,0.7c0.1-0.5,0.1-0.7,0.1-0.8c-0.6-0.4-1.1-0.7-1.7-1c-0.5-0.2-1.3,0.5-1.8-0.4c-0.1-0.1-0.6,0.1-1,0.2
			c0.2-0.3,0.3-0.6,0.5-0.8c-0.3,0-0.6,0-0.8-0.1c-0.3-0.1-0.5-0.3-0.8-0.4c0.2-0.2,0.4-0.4,0.6-0.5c-0.6-0.4-1.3-0.8-2-1.2
			c0-0.1,0.1-0.1,0.1-0.2c1.5,0.2,3.1,0.4,4.7,0.7c-0.1-0.3-0.2-0.5-0.3-1c0.5,0.2,0.9,0.3,1.2,0.5c0.3,0.1,0.7,0.4,1.1,0.3
			c2-0.1,3.9-0.5,5.6-1.4c0.1,0,0.1-0.1,0.2-0.2c-0.6-0.3-1.4,0.4-1.5-0.5c-0.7,0-1.3-0.1-1.9-0.1c0-0.2-0.1-0.4-0.1-0.6
			c-0.4,0.2-0.9,0.3-1.3,0.5c-0.1-0.4-0.1-0.7-0.2-1.1c-1.5,0.7-1.5,0.7-2-0.1c-0.4,0.1-0.9,0.3-1.3,0.4c0-0.1-0.1-0.1-0.1-0.2
			c0.1-0.3,0.3-0.6,0.4-0.8c-0.8,0.9-1.6,0.2-2.3,0c-0.4-0.1-0.8-0.1-1.4-0.2c0.5-0.4,0.9-0.7,1.3-1.1c-0.6-0.2-1.2-0.5-1.8-0.7
			c3.6-1.4,7.3-0.6,10.8-1.6c-0.7-0.4-1.7,0-2-1.1c1.8-0.4,3.7-0.6,5.2-1.8c0-0.1,0-0.2,0-0.3c-0.4,0-0.8,0-1.4,0
			c-0.1,0.2-0.3,0.5-0.5,1c-0.2-0.4-0.3-0.6-0.4-0.9c-0.2,0.2-0.5,0.5-0.7,0.8c-0.1-0.2-0.3-0.5-0.3-0.6c-0.4,0.3-0.8,0.7-1.3,0.9
			c-0.5,0.1-1.2,0.1-1.3-0.7c-0.3,0.3-0.5,0.5-1,0.9c0.1-1.1-0.4-1.1-1-1c-0.5,0.1-1,0.5-1.2-0.4c0-0.1-0.4-0.1-0.8-0.1
			c0.2-0.3,0.3-0.5,0.4-0.7c-0.7-0.3-1.4-0.7-2.1-1c0-0.1,0-0.2,0.1-0.3c0.5-0.1,1-0.1,1.6-0.2c0.2,0,0.6,0,0.6-0.1
			c0.3-1.3,1.4-0.8,2.2-1.1c1.5-0.4,3-0.8,4.5-1.2c-0.7-1.5-0.7-1.5,0.7-1.8c-0.4-0.5-0.8-0.5-1.3-0.2c-0.3,0.2-0.6,0.5-0.8,0.8
			c-0.7,0.6-1.3,0.5-1.8-0.2c0-0.1-0.1-0.1-0.2-0.1c-0.3-0.2-0.6-0.3-0.8-0.6c-0.7,0-1.4,0.2-1.6-0.9c-0.1-0.3-0.8-0.5-1.3-0.8
			c0-0.1,0-0.2,0-0.2c0.4,0,0.8,0,1.1,0c0.3,0,0.5-0.3,0.8-0.3c0.3,0,0.7,0,0.9,0.1c1,0.6,2.4,0.4,3.1-0.4c-0.5-0.3-1.5,0.6-1.5-0.7
			c-1.2,0.2-1.3,0.2-1.4-0.8c-0.3,0-0.6-0.1-0.6-0.1c-0.5-0.7-1-1.2-1.4-1.8c0.6-1.1,1.5,0.4,2.3-0.3c0-0.2,0-0.5,0.1-1
			c1.9,1.4,3.7,0.8,5.5,0.2c-1.1-1.1-2-2.1-3.1-3.2c-0.2,0.2-0.3,0.4-0.4,0.5c-0.4-0.2-0.8-0.4-1.1-0.6c-0.5-0.4-1.1-0.7-1.7-0.7
			c0,0-0.1-0.4-0.1-0.6c-0.6-0.3-1.2-0.6-1.8-0.9c0-0.1,0.1-0.2,0.1-0.3c0.8,0.1,1.6,0.2,2.5,0.3c-0.1-0.3-0.1-0.6-0.3-1.1
			c0.5,0.2,0.8,0.3,1.2,0.5c0.3,0.2,0.6,0.5,1,0.7c0.6-0.8,0.1-1.3-0.6-1.8c1-0.2,1.9-0.8,2.9,0.4c0-0.5,0.1-1,0-1
			c-0.4-0.2-0.8-0.3-1.4-0.5c-0.3-0.2-0.7-0.6-1.2-1c-0.1,0-0.4,0-0.8-0.1c0.1-0.3,0.2-0.5,0.3-0.6c-0.2-0.2-0.4-0.4-0.6-0.6
			c0.3-0.2,0.5-0.5,0.8-0.6c0.1-0.1,0.4,0.1,0.6,0.2c0.6,0.1,1.1,0.2,1-0.7c0.7,0.2,1.4,0.4,2.1,0.7c-0.1-0.4-0.1-0.7-0.2-0.9
			c0.1,0,0.2-0.1,0.3-0.1c0.6,0.2,1.2,0.4,1.7,0.7c0.6,0.4,1.2,0.4,1.8,0c1-0.7,2-1.3,3-2c0.3-0.2,0.4-0.6,0.5-1
			c-0.8,1.4-2.3,1.3-3.6,1.6c-0.4,0.1-0.7,0.6-1.1,1c-0.1-0.3-0.1-0.5-0.2-0.7c-0.1,0.1-0.2,0.2-0.3,0.2c-0.3,0-0.6,0-1,0
			c0.2-0.3,0.3-0.5,0.5-0.8c0.2-0.2,0.5-0.4,0.7-0.7c-0.7,0.3-1.4,0.7-2.2,0.9c-0.1,0.1-0.4-0.1-0.6-0.2c-0.2-0.2-0.3-0.5-0.5-0.9
			c0.3-0.2,0.6-0.5,1-0.8c0,0,0-0.1,0-0.1c-0.2,0.1-0.4,0.1-0.6,0.2c-0.2,0.1-0.3,0.3-0.5,0.4c-0.4,0.3-0.9,0.8-1.4,0.3
			c-0.1-0.1,0.3-0.8,0.4-1.1c-1,0.1-2.1,0.1-2.9-0.8c0-0.1,0-0.2,0-0.3c0.8-0.1,1.6-0.2,2.3-0.4c0.1-0.3,0.2-0.7,0.3-1
			c0.3,0.1,0.7,0.2,1,0.4c0.9,0.5,1.7,1,2.6,1.5c0-0.1,0.1-0.1,0.1-0.2c-0.2-0.2-0.4-0.5-0.7-0.7c0.1-0.1,0.1-0.2,0.2-0.3
			c0.5,0.2,1.1,0.3,1.6,0.6c1.5,1,3,0.6,4.7,0.4c-0.1-0.5-0.3-0.8-0.3-1.1c-0.6,0.3-1.2,0.5-1.8,0.8c0-0.5-0.1-0.7-0.1-0.9
			c-0.5,0-0.9,0-1.5,0c0.4-0.4,0.6-0.7,0.9-1.1c-0.4,0.1-0.6,0.2-0.8,0.2c-0.3,0-0.7,0-1,0c-0.4,0-0.7-0.2-1.1-0.1
			c-0.5,0.1-1,0.1-1.1-0.5c0-0.2,0.5-0.5,0.8-0.6c0.2-0.1,0.5-0.1,0.8-0.2c-0.7-0.5-0.6-1.5-1.7-1.4c-0.1,0-0.3-0.2-0.3-0.3
			c0-0.1,0.1-0.3,0.3-0.4c0.2-0.1,0.5-0.2,0.5-0.2c-0.2-0.3-0.5-0.6-0.7-1c-0.1-0.2,0-0.5,0-0.7c0.2,0,0.5,0,0.6,0
			c0.6,0.3,1.2,0.7,1.8,1.1c0.5,0.3,0.9,0.7,1.4-0.1c0.1-0.1,0.3-0.1,0.4-0.1c-0.4-0.5-0.7-1.1-1-1.6c0.1-0.1,0.2-0.2,0.3-0.2
			c0.5,0.2,0.9,0.4,1.5,0.6c0-0.4,0-0.8,0-0.9c-0.5-0.1-1-0.2-1.4-0.3c0.2-0.3,0.3-0.7,0.5-1.2c-0.2-0.3-0.6-0.7-0.9-1.2
			c-0.2-0.3-0.2-0.7-0.2-1.1c0.3,0.1,0.7,0.2,1,0.3c0.2,0.1,0.4,0.3,0.7,0.4c0.1-0.3,0.1-0.4,0.1-0.6c0.1-0.2,0.2-0.4,0.4-0.4
			c0.2,0,0.3,0.2,0.5,0.3c0.1,0.2,0.1,0.4,0.2,0.6c0.2,0.7,0.4,1.3,0.7,2c0.4-1.2,0.2-2.2-0.6-3.2c-0.5-0.5-1.1-1.1-0.8-2.2
			c0.5,0.5,1.2,1.5,1.8,2.1c0.1,0.1,0.4,0,0.4-0.2V3c1.5,0.8,0.4,1.6,0.9,2.7c0.6-0.7,0.8-1.6,2.1-1.2c-0.6,0.8-1.2,1.4-1.6,2.2
			c-0.4,0.7-0.7,1.6-0.9,2.4c1.3-0.3,1-1.8,2.1-2.3c0.1,0.2,0.1,0.5,0.2,0.7c0.7-0.3,1.5-0.6,2.2-0.9c0.1,0.1,0.1,0.2,0.2,0.3
			c-0.4,0.4-0.9,0.8-1.3,1.2c0.5,0.3,1,0.6,1.6,0.9c-1,0.7-2.1,0-3,0.2c0.7,0.5,1.4,1,2.1,1.5c-0.1,0.1-0.1,0.3-0.2,0.4
			c-0.4,0-0.8-0.1-1.2,0c-0.4,0.1-0.7,0.4-1.1,0.8c-0.1-0.4-0.1-0.7-0.2-1c-0.8,0-1.2,0.4-1.1,1.2c0.1,1.1,0.3,2.2,0.4,3.4
			c1.1-0.6,2-1.2,2.5-2.4c0.1-0.3,0.3-0.7,0.5-1c0.5-1,0.6-1,1.5-0.2c0.4-0.4,0.7-0.7,1.1-1.1c0.2-0.1,0.4-0.1,0.6-0.2
			c0,0.2,0.1,0.5,0,0.7c-0.2,0.4-0.4,0.7-0.7,1.1c0.4,0,0.6,0,0.8,0c0.2,0,0.5,0.1,0.8,0.2c-0.6,0.6-1.2,1-1.7,1.5
			c0.1,0.1,0.1,0.2,0.2,0.4c0.4,0.1,0.8,0.1,1.1,0.3c0.2,0.1,0.3,0.3,0.4,0.5c-0.1,0.1-0.3,0.3-0.4,0.4c-0.4,0.3-0.9,0.6-1.4,1
			c-0.1-0.1-0.4-0.2-0.8-0.4c-0.2,0.2-0.3,0.5-0.5,0.8c0.8,0.2,1.5,0.3,2.3,0.4c0,0.1,0,0.2,0.1,0.2c-0.4,0.3-0.9,0.5-1.3,0.8
			c0,0,0.1,0.1,0.1,0.1c-0.3,0.3-0.6,0.6-1,1c0.9,0.1,1.6-1.1,2.6-0.3c-0.1,0.2-0.2,0.4-0.2,0.6c1.2,0.6,2.3,1.1,3.5,1.7
			c-0.8,0.9-2,1.2-2.9,0.9c-0.1,0-0.4,0.1-0.5,0.2c-0.1,0.2-0.2,0.5-0.3,1c-0.7-0.7-1.3-1.2-2-1.8c0,0-0.2,0.1-0.5,0.3
			c0.1,0.3,0.2,0.5,0.3,0.8c-0.8,0.3-0.9,0.2-1.8-0.8c-0.6,1.1-0.8,1.1-1.7-0.3c0.1,1.1,0.6,1.5,1.9,1.5c0.3,0,0.7,0.1,1,0.1
			c-0.1,0.3-0.2,0.6-0.3,1c1.5,1,2.6-0.1,3.9-1c0.1,0.3,0.1,0.5,0.2,0.8c0.3-0.1,0.7-0.2,1-0.3c0.2,0.5,0.4,0.9,0.7,1.3
			c0.5-0.2,0.9-0.4,1.4-0.6c0.5-0.1,1-0.5,1.4,0.2c0.1,0.1,0.5,0.1,0.7,0.2c0.4,0.1,0.8,0.1,1.3,0.2c-0.4,1.1-1.2,0.8-1.9,0.9
			c0.1,0.2,0.2,0.3,0.3,0.5c-0.4,0.2-0.8,0.3-1.3,0.5c0.2,0.2,0.3,0.4,0.5,0.6c-1,0.3-1.6-0.5-2.3-0.9c-0.1,0.1-0.1,0.2-0.2,0.2
			c0.5,0.3,0.9,0.6,1.4,1c-0.1,0.1-0.2,0.3-0.3,0.4c-0.4-0.1-0.8-0.1-1.1-0.3c-0.4-0.2-0.7-0.5-1.2-0.9c-0.1,0.4-0.2,0.6-0.2,0.9
			c0,0.7-0.3,0.9-0.9,0.5c-0.3-0.2-0.5-0.4-0.7-0.6c-0.2,0.7-0.6,0.6-1.1,0.2c-0.3-0.2-0.7-0.4-1.1-0.5c0.7,1.5,2.1,1.7,3.4,2.2
			c1.7,0.8,2.6-0.8,4-1.4c-0.2,0.4-0.4,0.7-0.5,0.8c0.2,0.3,0.3,0.5,0.5,0.7c0.5-0.3,1.1-0.6,1.9-1.1c-0.1,0.3-0.1,0.6-0.2,0.9
			c0.7,0,1.3,0,2,0c0,0.1,0.1,0.2,0.1,0.3c-0.6,0.3-1.2,0.6-1.9,1c0,0.2,0.1,0.4,0.2,0.9c-0.8-0.3-1.4-0.5-2.1-0.7
			c0.1,0.2,0.2,0.5,0.4,0.8c-0.1,0.1-0.3,0.1-0.4,0.2C199.3,33,199.3,33.2,199.5,33.5z M174,72.7c-0.6-0.4-1-0.9-1.5-1
			c-0.2,0-0.6,0.5-1,0.9c-0.3-0.4-0.5-0.8-0.8-1.2c-0.4,0.4-0.6,0.7-0.9,1c0.7,0.2,1.3,0.4,1.9,0.4C172.4,73,173.1,72.8,174,72.7z
			 M182.9,28.5c-0.5,0.2-1,0.5-1.5,0.5c-0.5,0-0.9-0.5-1.5-0.8c0.3,1.3,0.5,1.5,1.5,1.4c0.6-0.1,1.3-0.2,1.9-0.3
			c0.3-0.1,0.6-0.3,1.1-0.6C183.7,28.4,183.1,29.6,182.9,28.5z M186.4,15.7c-0.2-1.1-0.8-1.7-1.9-1.6
			C185.1,14.6,185.7,15.1,186.4,15.7z M185.2,10.4c0.4,1,0.8,1.8,1.2,2.8C186.6,11.9,186.2,11.2,185.2,10.4z M188.3,17.8
			c0.6-0.3,1-0.5,1.6-0.8C188.2,16.8,188.2,16.8,188.3,17.8z M188.7,26.2c0.1,0,0.2,0,0.3,0c0-0.6-0.1-1.3-0.1-1.9
			c-0.1,0-0.2,0-0.2,0C188.7,25,188.7,25.6,188.7,26.2z"/>
	</g>
	<path class="st0" d="M165.7,74c0.7,0,1.5-1.3,2.7-0.7c0,0,0.1,0,0.2,0c0.7-0.9,1.5-1.7,2.2-2.6c0.3-0.3,0.3-0.8,0.5-1.3
		c-1.1,1.1-2.2,1.1-3.5,0.6c-0.4-0.1-0.6,0-1.1-1c1.1,0,1.9,0,2.4,0c0.3-1,0.4-1.6,0.6-2.3c0.3-1,0.7-1.8,1.1-2.8
		c-0.1-0.1-0.2-0.1-0.4-0.1c-0.5,0.5-0.9,1-1.4,1.4c-0.5,0.4-1,0.9-1.5,1.2c-0.5,0.3-1,0.4-1.5,0.6c0-0.1-0.1-0.2-0.1-0.3
		c0.5-0.4,1.1-0.9,1.7-1.4c0-0.8,0.3-1.4,1.4-0.6c-0.2-0.5-0.3-0.7-0.4-0.9c0.1-0.1,0.2-0.1,0.3-0.1c1.9-0.4,2-0.7,1.4-2.6
		c-0.2-0.5,0-1.3,0.1-1.9c0-0.3,0.2-0.5,0.5-1c-2.5,0.6-3.4,3.2-5.3,4c-0.1-0.1-0.1-0.2-0.2-0.3c0.2-0.3,0.5-0.6,0.8-0.9
		c-0.3-0.3-0.5-0.6-0.8-0.9c0.5-0.1,0.8-0.6,1.6-2c0.3,0.1,0.5,0.1,1,0.3c-0.1-0.7-0.2-1.2-0.3-1.6c0.3-0.5,0.6-0.9,0.9-1.3
		c-0.1-0.1-0.2-0.2-0.3-0.3c-0.3,0.2-0.6,0.3-0.9,0.5c-0.9,0.6-1.8,1.2-2.8,1.8c-0.6,0.4-1.3,0.8-1.9-0.1c0.4-0.5,0.8-1.3,1.3-1.5
		c1.3-0.6,2.3-1.5,2.9-2.7c0.2-0.5,0.3-1.1,0.5-1.8c0.1,0,0.3-0.2,0.6-0.4c-0.1-0.1-0.1-0.3-0.2-0.4c-0.5,0.2-0.9,0.3-1.4,0.6
		c-1.4,0.8-2.8,1.8-4.2,2.6c-0.2,0.1-0.6,0-1,0c0.2-0.3,0.3-0.7,0.5-0.9c0.7-0.8,1.5-1.6,2.3-2.3c0,0,0-0.2,0-0.2
		c0.2-0.5,0.4-1,0.7-1.6c0,0.1-0.1-0.1-0.1-0.1c0.4-0.6,0.8-1.2,1.2-1.7c-0.1-0.1-0.2-0.2-0.3-0.3c-0.4,0.3-0.8,0.5-1.2,0.8
		c-1,0.6-1.9,1.2-2.9,1.6c-1.5,0.6-1.9,0.9-2.6-1.6c1.5-0.7,1.5-0.8,0.6-1.9c0.6-0.1,1.2-0.2,1.8-0.3c0.5-0.1,1-0.4,1.6-0.6
		c0-0.1,0-0.4-0.1-0.4c-0.7,0-1.5,0-2.2,0c0.4,0,0.8-0.7,1.1-1.1c0.4-0.8,0.5-1.6,0.8-2.4c0.5-0.9,0.4-1.5-0.5-1.9
		c-1.6,2.4-4.3,3.3-5.4,1.9c1-0.7,2-1.3,3.1-2.1c-1-0.6-0.6-1.3-0.3-2c0.2-0.6,0.3-1.2,0.6-2.1c-0.8,0.5-1.2,0.8-1.6,1.1
		c0-0.4-0.1-0.9,0.1-1.3c0.3-0.7,0.7-1.2,1.1-1.9c-0.1-0.1-0.2-0.2-0.2-0.3c-1.6,0.8-2.9,2.7-5.1,2.2c1.2-1.2,2.3-2.3,3.5-3.5
		c-0.1-0.1-0.1-0.2-0.2-0.2c-1.3,0.4-2.7,0.8-4.2,1.2c0.1-0.5,0.1-0.8,0.1-0.8c0.6,0,1.8,0,1.8,0c0-0.7,0-1.3,0-1.9
		c1-0.3,2.3,0,1.7-1.7c-0.6,0.3-1.2,0.5-1.8,0.8c-0.1-0.1-0.1-0.2-0.2-0.3c0.7-0.9,1.5-1.8,2.2-2.6c-0.1-0.1-0.1-0.1-0.2-0.2
		c-1.3,0.7-2.7,1.3-4.2,2.1c1-2.1,1.5-4.2,3.5-5.2c-0.1-0.1-0.2-0.2-0.3-0.3c-1.1,0.6-2.2,1.3-3.4,2c-0.3-1.8,1.7-2,1.8-3.8
		c-0.9,0.7-1.6,1.1-2.4,1.7c0.4-0.5,0.7-0.4,1.1-1.4c-0.4,0-0.8,0-1.1,0c-0.1,0,0.3-0.7,0.7-1.1c-0.5-0.1-0.8-0.3-1.4-0.4
		c0.2,0.6,0.3,1.5,0.5,1.5c-0.2,0-0.4,0-0.7,0c0.2,1,0.3,1.1,0.5,1.7c-0.1-0.1-0.3-0.1-0.5-0.3c-0.1,0.1-0.1,0.2-0.2,0.3
		c0.3,0.4,0.6,0.8,1,1.2c-0.6,0.4-1.2,0.8-1.8,1.4c-0.2,0.2-0.2,0.7-0.1,1c0.1,0.4,0.3,0.8,0.6,1.4c-0.6,0.2-1.1,0.6-1.6,0.5
		c-0.5-0.1-0.8-0.7-1.4-1.4c0.4,2.6,2,3.9,3.4,5.4c-0.1,0.1-0.2,0.3-0.3,0.4c-1.1-0.6-2.2-1.1-3.3-1.7c-0.1,0.1-0.1,0.1-0.2,0.2
		c0.5,0.7,1,1.5,1.6,2.2c-0.2,0.5-0.3,1-0.6,1.8c-0.8-0.4-1.6-0.7-2.4-1.1c0.4,1.8-0.9,2-1.8,2.5c1.1,0.1,2.1,0.2,3.2,0.2
		c0,0.1,0,0.2,0,0.3c-1.2,0.6-2.3,1.2-3.5,1.8c0.1,0.1,0.1,0.2,0.2,0.4c0.9-0.3,2.1,0.5,2.8-0.9c0.1-0.2,0.8,0,1.2,0.1
		c0.2,0.1,0.1,0.7,0.1,0.9c0.4,0.5,0.7,1,1.1,1.5c-0.1,0.1-0.2,0.2-0.3,0.3c-0.7-0.2-1.4-0.5-2.1-0.7c-0.7-0.2-2.3-0.2-2.3-0.4
		c0,0.6,0,1,0,1.4c1,0.5,2.8,1.1,4.2,1.6c-0.8,0.7-1.8,0.9-2.6,0.3c-1.4-0.9-2.6-2.1-4-3.3c0.2,1.1,0.4,1.9,0.6,2.8
		c0.4-0.1,0.7-0.4,1.1-0.5c0.1,0.5,0.2,1.5,0.4,1.5c-0.8,0-1.4,0-2.4,0c0.8,1,1.5,2.2,2.2,3.1c0.2-0.1,0.4-0.1,0.7-0.3
		c0,0.3-0.1,0.6-0.2,1c0.3-0.2,0.5-0.3,0.6-0.4c0.2,0.3,0.4,0.7,0.6,1.1c-0.4,0-0.8-0.1-1,0.1c-1.1,0.7-2,0.5-3-0.2
		c-0.2-0.1-0.6,0.1-0.9,0.1c0,0.1,0,0.2,0,0.4c0.5,0.3,1.1,0.6,1.6,0.9c0,0.8,0.1,1.6,0.1,2.6c-0.7-0.4-1-0.6-1.3-0.8
		c-0.3-0.2-0.7-0.3-1-0.4c-0.1,0.1-0.2,0.1-0.3,0.2c0.2,0.5,0.3,1.1,0.6,1.6c0.3,0.4,0.7,0.8,1,1.2c-1.4,0.3-2.8,0.6-4.2,0.9
		c0.1,0.1,0.1,0.2,0.2,0.3c-0.3,0.5-0.5,1-0.8,1.6c1.5,0.3,2,1.7,2.5,3c-1.1-0.6-2.1-1.3-3.2-1.9c0.2,0.9,0.3,1.5,0.4,2.1
		c0.2,0,0.5-0.1,0.4-0.1c0.3,0.5,0.4,0.9,0.7,1.1c0.3,0.3,0.6,0.5,1,0.8c-1,0.5-1.6,2-3,0.6c0,0.6,0.2,1.4,0.3,1.4
		c0.9,0,1,0.7,1.4,1.3c0.3,0.5,0.9,0.8,1.4,1.1c1,0.6,2,1.1,3.2,1.7c-1.2,0.4-2.2,0.7-3.3,0.2c-0.9-0.5-2-0.6-3-0.9
		c-0.1,0.2-0.2,0.4-0.3,0.5c0.5,0.4,1,0.7,1.7,1.2c-0.7,0.3-1.1,0.4-1.5,0.6c0.5,0.4,1,0.7,1.6,1.1c-0.6,0.3-1,0.4-1.4,0.6
		c0,0.1,0.1,0.2,0.1,0.3c0.6-0.1,1.2-0.2,1.9-0.4c-2,1.1-2,1.1-1.4,2.7c1,0.7,1.7,1.2,2.4,1.7c-1.1,1.2-1.8,1.2-3.1,0.1
		c-0.5-0.5-1-0.9-1.6-1.3c-0.1,0.1-0.3,0.2-0.4,0.3c0.3,0.9,0.6,1.8,0.9,2.8c-0.1,0.2-0.4,0.4-0.8,0.9c1.4-0.1,2.3,0.3,2.9,1.4
		c0.2,0.3,0.8,0.5,1.2,0.5c0.1,0,0.3-0.6,0.6-1.3c0.1,0.6,0.2,0.8,0.1,1.1c-0.2,1.6-1.6,0.5-2.3,1c0,0.2,0,0.3,0,0.5
		c2.6,0.1,5.2,0.3,7.8,0.4c0,0.1,0,0.1,0,0.2c-1.1,0.6-2.2,1.2-3.6,1.9c0.9,0.2,1.5,0.3,2.2,0.4c0.1-0.2,0.2-0.5,0.4-0.8
		c0.7,0.7,1.4,1.3,2.1,1.9c0.1,0.1,0.3-0.1,0.5-0.1c0.2,0,0.6,0,0.6,0.1c0.5,1.2,0.9,0.5,1.3-0.1c0.1-0.2,0.1-0.3,0.3-0.4
		c1.3-0.2,1.9-0.4,3.9-0.6c0,2.8,0,5.4,0,8.4c2,0,2.1,0,2.9,0c-0.1-1-0.1-1-0.2-1.3c-0.2-2.1-0.5-4.2-0.6-6.2c0-0.4,0.5-1.1,0.6-1.1
		c1.1,0.3,1.7-0.1,1.9-1.8c0.4,0.8,0.5,1.3,0.8,1.6c0.3,0.3,0.8,0.6,1.2,0.7c0.3,0.1,0.7-0.1,1.1-0.2c0-0.1,0-0.2,0-0.3
		c-0.5-0.2-0.9-0.4-1.5-0.6c0.2-0.3,0.4-0.6,0.6-0.8c0.8,0.3,1.2,1.6,2.4,0.9c-0.4-0.2-0.6-0.4-0.8-0.5c0-0.1,0-0.4,0-0.4
		c0.6,0,1.3,0,2,0c-0.6,0-1-0.4-1.8-0.8c1.3-0.2,2.7,0.2,3.1-0.4c0.9-1.2,2-0.6,3-0.8c0.2,0,0.4,0,0.5-0.1c-0.1-0.4-0.1-0.7-0.1-1
		c1.2-0.3,1.9-1,2.4-2.1c0.2-0.4,0.7-1.1,1-1.1c1.2-0.1,1.5-0.8,1.9-1.8C169.4,74,167.3,74,165.7,74z M169.2,60.9
		c0.3,0.4,0.5,1.1,1,1.1c-1,0-1.7,0-2.4,0c0,0,0-0.1-0.1-0.2C168.2,61.5,168.7,61.3,169.2,60.9z M137.2,62.7
		c0.7-0.5,2.3-0.2,3.6,0.6C140.2,64.3,138.8,64.1,137.2,62.7z M136.4,72.5c0-0.2-0.1-0.3-0.1-0.5c0.6-0.2,1.2-0.4,1.8-0.5
		c0.5,0,1.1,0.2,1.6,0.3c0.1,0.1,0.1,0.1,0.2,0.2C138.7,72.2,137.6,72.3,136.4,72.5z M139.1,76c1.4-1,3.7-1,4.7,0
		C142.2,76,140.6,76,139.1,76z M143.4,57.4c-1.7-0.3-3.4-0.4-4.7-1.7c-0.2-0.2-0.3-0.6-0.4-0.9c0.3-0.1,0.6-0.3,0.9-0.4
		c0.1,0,0.3,0.1,0.4,0.3c0.7,1,2.3,1.5,3.4,1.1c-0.2,0.3-0.3,0.6-0.5,0.9c0.5-0.1,0.9-0.1,1.3-0.2C143.7,56.8,143.5,57.1,143.4,57.4
		z M144,83c0-0.2,0-0.4,0-0.6c1-0.1,2-0.3,3-0.4c0,0.3,0,0.7,0.1,1.2C146,83.1,145,83.1,144,83z M155,38c0.5-0.7,1-1.4,1.7-2
		c0.4-0.4,1-0.4,1.6-0.7C157.4,36.7,156.4,37.7,155,38z"/>
	<g>
		<path class="st0" d="M129.4,64.2L129.4,64.2C129.4,64.2,129.4,64.2,129.4,64.2z"/>
		<path class="st0" d="M132.8,81c0.5,0,1.1-1.2,2-0.7c0,0,0.1-0.1,0.1-0.1c0.5-0.6,1.1-1.1,1.5-1.7c0.2-0.2,0.2-0.6,0.3-0.9
			c-0.8,0.7-1.5,1.1-2.4,0.8c-0.2-0.1-0.4-0.3-0.8-0.3c0.8,0,1.3,0,1.6,0c0.2-1,0.3-1.4,0.4-1.8c0.2-0.6,0.5-1.3,0.7-1.9
			c-0.1,0-0.2-0.1-0.2-0.2c-0.3,0.3-0.6,0.6-0.9,0.8c-0.3,0.3-0.7,0.5-1.1,0.7c-0.3,0.2-0.7,0.3-1.1,0.4c0-0.1,0-0.1-0.1-0.2
			c0.4-0.3,0.7-0.6,1.2-0.9c0-0.5,0.2-0.9,1-0.4c-0.2-0.3-0.2-0.5-0.3-0.6c0.1,0,0.1-0.1,0.2-0.1c1.3-0.2,1.4-0.5,1-1.6
			c-0.1-0.3,0-0.8,0.1-1.2c0-0.2,0.2-0.3,0.3-0.6c-1.7,0.4-2.3,2-3.7,2.6c-0.1-0.1-0.1-0.1-0.2-0.2c0.2-0.2,0.3-0.4,0.5-0.6
			c-0.2-0.2-0.3-0.4-0.5-0.6c0.3-0.1,0.6-0.4,1.1-1.3c0.2,0,0.4,0.1,0.7,0.2c-0.1-0.4-0.2-0.8-0.2-1c0.2-0.3,0.4-0.6,0.6-0.8
			c-0.1-0.1-0.1-0.1-0.2-0.2c-0.2,0.1-0.4,0.2-0.7,0.3c-0.6,0.4-1.3,0.8-1.9,1.1c-0.4,0.3-0.9,0.5-1.3-0.1c0.3-0.3,0.5-0.8,0.9-1
			c0.9-0.4,1.6-0.9,2-1.7c0.2-0.3,0.2-0.7,0.3-1.1c0,0,0.2-0.1,0.4-0.2c0-0.1-0.1-0.2-0.1-0.2c-0.3,0.1-0.6,0.2-0.9,0.4
			c-1,0.5-1.9,1.1-2.9,1.7c-0.2,0.1-0.4,0-0.7,0c0.1-0.2,0.2-0.4,0.3-0.6c0.5-0.5,1.1-1,1.6-1.5c0,0,0-0.1,0-0.1
			c0.1-0.3,0.3-0.6,0.5-1c0,0-0.1-0.1,0-0.1c0.3-0.4,0.6-0.8,0.8-1.1c-0.1-0.1-0.1-0.1-0.2-0.2c-0.3,0.2-0.6,0.3-0.8,0.5
			c-0.7,0.4-1.3,0.8-2,1.1c-1,0.4-1.3,0.6-1.8-1c1-0.4,1-0.5,0.4-1.2c0.4-0.1,0.8-0.1,1.2-0.2c0.4-0.1,0.7-0.4,1.1-0.5
			c0-0.1,0-0.4,0-0.4c-0.5,0-1,0-1.5,0c0.3,0,0.6-0.3,0.7-0.6c0.2-0.5,0.3-1,0.6-1.5c0.3-0.6,0.3-0.9-0.4-1.2
			c-1.1,1.5-3,2.1-3.7,1.2c0.7-0.4,1.4-0.8,2.2-1.3c-0.7-0.4-0.4-0.8-0.2-1.3c0.2-0.4,0.2-0.8,0.4-1.3c-0.5,0.3-0.8,0.5-1.1,0.7
			c0-0.3-0.1-0.6,0-0.8c0.2-0.4,0.5-0.8,0.7-1.2c-0.1-0.1-0.1-0.1-0.2-0.2c-1.1,0.5-2,1.7-3.5,1.4c0.8-0.7,1.6-1.5,2.4-2.2
			c0,0-0.1-0.1-0.1-0.1c-0.9,0.2-1.8,0.5-2.9,0.8c0.1-0.3,0.2-0.5,0.2-0.5c0.4,0,0.4,0,1.4,0c0-0.4,0-0.8,0-1.2c0-0.2,1.4,0,1-1.1
			c-0.4,0.2-0.9,0.3-1.3,0.5c0-0.1-0.1-0.1-0.2-0.2c0.5-0.6,1-1.1,1.5-1.7c-0.1,0-0.1-0.1-0.2-0.1c-0.9,0.4-1.9,0.9-2.9,1.3
			c0.7-1.3,1-2.7,2.4-3.3c-0.1-0.1-0.1-0.1-0.2-0.2c-0.8,0.4-1.5,0.8-2.3,1.3c-0.2-1.2,1.2-1.3,1.3-2.4c-0.6,0.4-1.1,0.8-1.6,1.2
			c0.4-0.4,0.6-0.9,0.9-0.9c-0.2,0-0.4,0-0.5,0c0,0,0.1-0.1,0.1-0.2c-0.7-0.1-0.7-0.6-0.5-1.1c-0.3,0.1-0.5,0.3-0.9,0.5
			c0.4,0.3,0.8,0.8,1.1,0.8c-0.2,0-0.4,0-0.6,0c0.1,0,0.2,0.6,0.4,1c-0.1,0-0.1,0.1-0.2,0.1c-0.1,0-0.2-0.1-0.4-0.2
			c0,0.1-0.1,0.1-0.1,0.1c0.2,0.2,0.4,0.5,0.7,0.8c-0.4,0.3-0.9,0.5-1.2,0.9c-0.1,0.1-0.1,0.4-0.1,0.6c0.1,0.3,0.2,0.5,0.4,0.9
			c-0.4,0.1-0.8,0.4-1.1,0.3c-0.3-0.1-0.6-0.5-1-0.9c0.2,1.7,1.4,2.5,2.3,3.5c-0.1,0.1-0.1,0.2-0.2,0.3c-0.8-0.4-1.5-0.7-2.3-1.1
			c0,0-0.1,0.1-0.1,0.1c0.4,0.5,0.7,1,1.1,1.4c-0.1,0.3-0.2,0.7-0.4,1.2c-0.6-0.2-1.1-0.5-1.7-0.7c0.3,1.1-0.6,1.3-1.3,1.6
			c0.7,0.1,1.5,0.1,2.2,0.2c0,0.1,0,0.1,0,0.2c-0.8,0.4-1.6,0.8-2.4,1.2c0,0.1,0.1,0.2,0.1,0.2c0.6-0.2,1.4,0.3,1.9-0.6
			c0.1-0.1,0.6,0,0.8,0.1c0.1,0.1,0.1,0.4,0.1,0.6c0.3,0.3,0.5,0.6,0.7,1c-0.1,0.1-0.1,0.1-0.2,0.2c-0.5-0.2-1-0.3-1.5-0.5
			c-0.5-0.1-0.6-0.2-1.6-0.2c0,0.4,0,0.6,0,0.9c1,0.3,2,0.7,2.9,1c-0.6,0.5-1.2,0.5-1.8,0.2c-0.9-0.6-1.8-1.3-2.7-2.1
			c0.1,0.7,0.3,1.2,0.4,1.8c0.3-0.1,0.5-0.1,0.8-0.1c0.1,0.3,0.2,0.1,0.3,1.1c-0.5,0-1,0-1.7,0c0.6,1,1,1.2,1.5,1.8
			c0.1-0.1,0.3-0.2,0.5-0.3c0,0.2-0.1,0.3-0.1,0.6c0.2-0.1,0.3-0.2,0.4-0.3c0.1,0.2,0.2,0.4,0.4,0.7c-0.3,0-0.5,0-0.7,0
			c-0.7,0.5-1.4,0.3-2-0.1c-0.1-0.1-0.4,0-0.6,0.1c0,0.1,0,0.2,0,0.2c0.4,0.2,0.7,0.4,1.1,0.6c0,0.5,0.1,1,0.1,1.7
			c-0.5-0.3-0.7-0.4-0.9-0.5c-0.2-0.1-0.5-0.2-0.7-0.2c-0.1,0-0.1,0.1-0.2,0.1c0.1,0.3,0.2,0.7,0.4,1c0.2,0.3,0.5,0.5,0.7,0.7
			c-0.9,0.2-1.9,0.4-2.9,0.6c0,0.1,0.1,0.1,0.1,0.2c-0.2,0.3-0.4,0.7-0.5,1c1,0.2,1.4,1.1,1.7,1.9c-0.7-0.4-1.5-0.8-2.2-1.2
			c0.1,0.6,0.2,0.9,0.3,1.3c0.1,0,0.3,0,0.3,0c0.2,0.3,0.3,0.5,0.5,0.7c0.2,0.2,0.4,0.3,0.7,0.5c-0.7,0.3-1.1,1.3-2.1,0.4
			c0,0.4,0.1,0.9,0.2,0.9c0.6,0,0.7,0.5,1,0.8c0.2,0.3,0.6,0.5,1,0.7c0.7,0.4,1.4,0.7,2.2,1.1c-0.9,0.3-1.5,0.5-2.3,0.1
			c-0.6-0.3-1.4-0.4-2.1-0.6c-0.1,0.1-0.1,0.2-0.2,0.3c0.4,0.2,0.7,0.5,1.2,0.8c-0.5,0.2-0.8,0.3-1,0.4c0.4,0.2,0.7,0.5,1.1,0.7
			c-0.4,0.2-0.7,0.3-1,0.4c0,0.1,0,0.1,0.1,0.2c0.4-0.1,0.9-0.2,1.3-0.2c-1.4,0.7-1.4,0.7-0.9,1.7c0.7,0.5,1.2,0.8,1.7,1.1
			c-0.7,0.8-1.3,0.8-2.1,0.1c-0.4-0.3-0.7-0.6-1.1-0.9c-0.1,0.1-0.2,0.1-0.3,0.2c0.2,0.6,0.4,1.2,0.6,1.8c-0.1,0.1-0.3,0.3-0.5,0.6
			c0.9-0.1,1.6,0.2,2,0.9c0.1,0.2,0.6,0.3,0.9,0.3c0.1,0,0.2-0.4,0.4-0.8c0,0.4,0.1,0.5,0.1,0.7c-0.2,1-1.1,0.3-1.6,0.6
			c0,0.1,0,0.2,0,0.3c1.8,0.1,3.6,0.2,5.4,0.3c0,0,0,0.1,0,0.1c-0.8,0.4-1.5,0.8-2.5,1.2c0.6,0.1,1,0.2,1.5,0.3
			c0.1-0.2,0.2-0.3,0.2-0.5c0.5,0.4,0.9,0.8,1.4,1.2c0.1,0,0.2,0,0.3,0c0.1,0,0.4,0,0.4,0c0.4,0.8,0.6,0.3,0.9-0.1
			c0.1-0.1,0.1-0.2,0.2-0.2c0.9-0.1,1.8-0.2,2.8-0.4c0,1.8,0,3.4,0,5.4c1,0,1.4,0,1.9,0c0,0-0.1-0.6-0.1-0.9c-0.2-1.3-0.3-2.7-0.4-4
			c0-0.2,0.3-0.7,0.4-0.7c0.8,0.2,1.2-0.1,1.3-1.1c0.3,0.5,0.4,0.8,0.6,1c0.2,0.2,0.5,0.4,0.8,0.4c0.2,0.1,0.5-0.1,0.8-0.1
			c0-0.1,0-0.1,0-0.2c-0.3-0.1-0.6-0.2-1-0.4c0.2-0.2,0.3-0.4,0.4-0.5c0.5,0.2,0.8,1,1.7,0.6c-0.3-0.1-0.4-0.1-0.6-0.1c0,0,0,0,0,0
			c0.4,0,0.9,0,1.4,0c-0.4,0-0.7-0.5-1.2-0.8c0.9-0.1,1.8,0,2.1-0.3c0.7-0.8,1.4-0.4,2.1-0.5c0.1,0,0.2,0,0.4-0.1
			c0-0.2-0.1-0.5-0.1-0.6c0.8-0.2,1.3-0.6,1.7-1.3c0.1-0.3,0.5-0.4,0.7-0.4c0.8-0.1,1-0.9,1.3-0.9C135.5,81,134,81,132.8,81z
			 M135.4,72.2c0.2,0.2,0.4,0.4,0.7,0.8c-0.7,0-1.2,0-1.6,0c0-0.1,0-0.1,0-0.2C134.8,72.6,135.1,72.4,135.4,72.2z M113.4,73.2
			c0.5-0.3,1.6-0.1,2.5,0.4C115.4,74.3,114.5,74.1,113.4,73.2z M112.8,79.5c0-0.1,0-0.2-0.1-0.3c0.4-0.1,0.8-0.3,1.3-0.3
			c0.4,0,0.8,0.1,1.1,0.2c0,0,0.1,0.1,0.1,0.1C114.5,79.3,113.6,79.4,112.8,79.5z M114.7,82c1-1,2.6-1,3.2,0
			C116.8,82,115.7,82,114.7,82z M117.7,69.8c-1.1-0.2-2.3-0.3-3.2-1.1c-0.1-0.1-0.2-0.4-0.3-0.6c0.2-0.1,0.4-0.2,0.6-0.2
			c0.1,0,0.2,0.1,0.3,0.2c0.5,0.6,1.6,1,2.4,0.7c-0.1,0.2-0.2,0.4-0.3,0.6c0.4-0.1,0.6-0.1,0.9-0.1
			C117.8,69.5,117.8,69.7,117.7,69.8z M118.1,86.2c0-0.1,0-0.2,0-0.4c0.7-0.1,1.4-0.2,2.1-0.3c0,0.2,0,0.4,0,0.8
			C119.4,86.3,118.7,86.2,118.1,86.2z M125.7,57.5c0.4-0.4,0.7-0.9,1.2-1.3c0.3-0.2,0.7-0.3,1.1-0.4
			C127.3,56.6,126.6,57.2,125.7,57.5z"/>
	</g>
	<rect y="91" class="st0" width="215" height="2"/>
</g>
<g>
	<polygon class="st1" points="100,87 0,87 0,28 100,28 	"/>
	<path class="st1" d="M40.5,88c-5.8,0-10.5,4.7-10.5,10.5c0,5.8,4.7,10.5,10.5,10.5S51,104.3,51,98.5C51,92.7,46.3,88,40.5,88z
		 M40.5,103.7c-2.9,0-5.2-2.3-5.2-5.2c0-2.9,2.3-5.2,5.2-5.2s5.2,2.3,5.2,5.2C45.8,101.4,43.4,103.7,40.5,103.7z"/>
	<path class="st1" d="M130.5,88c-5.8,0-10.5,4.7-10.5,10.5c0,5.8,4.7,10.5,10.5,10.5c5.8,0,10.5-4.7,10.5-10.5
		C141,92.7,136.3,88,130.5,88z M130.5,103.7c-2.9,0-5.2-2.3-5.2-5.2c0-2.9,2.3-5.2,5.2-5.2c2.9,0,5.2,2.3,5.2,5.2
		C135.8,101.4,133.4,103.7,130.5,103.7z"/>
	<polygon class="st1" points="28,95 15,95 15,89 32,89 	"/>
	<path class="st1" d="M151.4,85.5c0,0-0.1-3.5-1.5-5.3c-3.9-5.3-12-6.9-15.1-9.1c-0.7-0.5-14.2-17.1-19.9-17.1c0,0-12.9,0-12.9,0v35
		H49l4,6h65c3.4-12,19.5-13.5,25.1-1h5.6c1.4,0,1.8-0.9,2.1-1.2C154.5,89.9,151.4,85.5,151.4,85.5z M127.5,70H108V56h4.5
		c4.3,0,7.7,3.2,12.2,7.6l3.8,4.3C129.2,68.8,128.6,70,127.5,70z"/>
	<path class="st1" d="M102,53h13c0,0-6-12-13-12V53z"/>
</g>
</svg>
