<?xml version="1.0" encoding="utf-8"?>
<!-- Generator: Adobe Illustrator 19.0.1, SVG Export Plug-In . SVG Version: 6.00 Build 0)  -->
<svg version="1.1" id="Слой_1" xmlns="http://www.w3.org/2000/svg" xmlns:xlink="http://www.w3.org/1999/xlink" x="0px" y="0px"
	 viewBox="0 0 215 110" style="enable-background:new 0 0 215 110;" xml:space="preserve">
<style type="text/css">
	.st0{fill:#FBB03B;}
	.st1{fill:#FF0000;}
</style>
<g>
	<polygon class="st0" points="162,87 62,87 62,28 162,28 	"/>
	<path class="st0" d="M102.5,88c-5.8,0-10.5,4.7-10.5,10.5c0,5.8,4.7,10.5,10.5,10.5c5.8,0,10.5-4.7,10.5-10.5
		C113,92.7,108.3,88,102.5,88z M102.5,103.7c-2.9,0-5.2-2.3-5.2-5.2c0-2.9,2.3-5.2,5.2-5.2c2.9,0,5.2,2.3,5.2,5.2
		C107.8,101.4,105.4,103.7,102.5,103.7z"/>
	<path class="st0" d="M192.5,88c-5.8,0-10.5,4.7-10.5,10.5c0,5.8,4.7,10.5,10.5,10.5c5.8,0,10.5-4.7,10.5-10.5
		C203,92.7,198.3,88,192.5,88z M192.5,103.7c-2.9,0-5.2-2.3-5.2-5.2c0-2.9,2.3-5.2,5.2-5.2c2.9,0,5.2,2.3,5.2,5.2
		C197.8,101.4,195.4,103.7,192.5,103.7z"/>
	<polygon class="st0" points="90,95 77,95 77,89 94,89 	"/>
	<path class="st0" d="M213.4,85.5c0,0-0.1-3.5-1.5-5.3c-3.9-5.3-12-6.9-15.1-9.1c-0.7-0.5-14.2-17.1-19.9-17.1c0,0-12.9,0-12.9,0v35
		h-53l4,6h65c3.4-12,19.5-13.5,25.1-1h5.6c1.4,0,1.8-0.9,2.1-1.2C216.5,89.9,213.4,85.5,213.4,85.5z M189.5,70H170V56h4.5
		c4.3,0,7.7,3.2,12.2,7.6l3.8,4.3C191.2,68.8,190.6,70,189.5,70z"/>
	<path class="st0" d="M164,53h13c0,0-6-12-13-12V53z"/>
</g>
<g>
	<g>
		<path class="st1" d="M31.4,99.6c-0.3,0.1-2,0.3-2.3,0.4c-0.3,0.1-0.3,0.4-0.1,0.6c0.1,0.1,0.2,0.3,0.2,0.4c0,0.2,0,0.3,0,0.5
			c0,1.3,0.4,2.5,0.9,3.6c0.1,0.3,0.4,0.5,0.7,0.6c0.7,0.2,1.4,0.2,2.2,0.1c0.4-0.1,0.8-0.2,1-0.7c0.5-1.3,1.1-2.5,1-3.9
			c0-0.2,0-0.5,0.1-0.6c0.3-0.4,0.3-0.6-0.2-0.8c-0.3-0.1-0.6-0.2-0.9-0.1c-0.4,0.1-0.9-0.1-1.4-0.2c0-0.4-0.1-0.7-0.1-1.1
			c0-0.3,0.1-0.6,0-0.9c0,0,0,0,0,0c0-0.4,0.2-0.7,0-1.1c0-0.1,0.1-0.3,0.1-0.4c-0.2-0.3,0.1-0.6,0-0.9c-0.1-0.2,0-0.4,0-0.6
			c0-0.2,0.1-0.3,0-0.5c-0.1-0.3,0-0.5,0.1-0.7c-0.2-0.2-0.2-0.4,0-0.6c-0.2-0.4-0.2-0.8-0.1-1.2c0-0.1,0.1-0.2,0-0.3
			c-0.1-0.1,0-0.3,0.1-0.4c0-0.1,0-0.1,0-0.2c0-0.2,0-0.4,0-0.6c-0.1-0.1-0.1-0.3,0-0.5c0-0.3,0-0.5,0-0.7c0,0,0-0.1,0-0.1
			c-0.3-0.2-0.2-0.5,0-0.6c0-0.1,0-0.2,0-0.3c0-0.3,0-0.5,0-0.8c0-0.1,0-0.2,0-0.3c0-0.3-0.1-0.6-0.1-0.9c0-0.1,0-0.2,0-0.3
			c0.1-0.2,0.1-0.4,0-0.7c0-0.1,0-0.3,0-0.4c0.1-0.2,0.1-0.5,0-0.7c0-0.1,0-0.2,0-0.3c0.2-0.4,0.3-0.8,0.5-1.1
			c0-0.1,0.1-0.1,0.2-0.1c0,0,0,0,0.1,0.1c-0.2,0.6-0.4,1.1-0.5,1.7c0,0,0,0,0.1,0c0.2-0.6,0.4-1.2,0.6-1.8c0,0,0.1,0,0.1,0
			c-0.1,0.8-0.1,1.6-0.2,2.3c0,0,0,0,0.1,0c0.1-0.7,0.2-1.5,0.2-2.2l0,0c0.1,0.6,0.3,1.3,0.4,1.9c0,0,0,0,0,0
			c-0.2-0.7-0.3-1.4-0.5-2.2c0,0,0.1,0,0.1,0c0.3,0.6,0.6,1.3,0.9,1.9c0,0,0.1,0,0.1,0c-0.3-0.5-0.5-1.1-0.8-1.6
			c-0.1-0.1-0.1-0.3-0.2-0.4c0,0,0.1,0,0.1,0c0.3,0.5,0.6,1.1,1,1.6c0,0,0,0,0,0c-0.3-0.6-0.6-1.2-0.9-1.7l0.1,0
			c0.3,0.3,0.5,0.7,0.8,1l0.1,0c-0.2-0.3-0.4-0.7-0.7-1c-0.1-0.1-0.2-0.2,0-0.3c0.3,0.3,0.6,0.7,0.8,1c-0.2-0.4-0.5-0.7-0.7-1.1
			c-0.1-0.1-0.1-0.3-0.2-0.4c0,0,0.1,0,0.1-0.1c0.2,0.3,0.4,0.5,0.7,0.8c0,0,0.1-0.1,0.1-0.1c-0.3-0.4-0.6-0.7-0.9-1.1
			c0.4,0,0.6,0.4,0.9,0.6c0,0,0-0.1,0-0.1c0,0,0,0,0,0c0.3-0.4,0.3-0.9,0.3-1.4c0.1,0.1,0.2,0.2,0.1,0.3c-0.1,0.5-0.1,1-0.2,1.5
			c0,0,0,0,0,0c0.1-0.5,0.3-1,0.4-1.5c0.1,0.6-0.1,1.2-0.2,1.8l0.1,0c0.1-0.5,0.3-1,0.4-1.5c0,0.1,0.1,0.2,0.1,0.3
			c0,0.2,0,0.4,0,0.6c-0.1,0.3-0.1,0.7-0.2,1c0,0,0.1,0,0.1,0c0.1-0.5,0.2-1,0.4-1.5c0.1,0.2,0.1,0.3,0.1,0.5
			c-0.1,0.6-0.3,1.1-0.4,1.6c0.3-0.5,0.5-1,0.5-1.7c0.1,0.1,0.1,0.2,0.1,0.3c0,0.3-0.1,0.6-0.2,0.9c-0.1,0.3-0.3,0.7-0.4,1.1
			c0.5-0.6,0.7-1.1,0.7-1.8c0.1,0.9-0.2,1.6-0.6,2.3c0.5-0.5,0.8-1.2,0.8-1.9c0.1,0.8-0.1,1.6-0.5,2.3c0,0,0.1,0,0.1,0
			c0.2-0.4,0.4-0.8,0.5-1.3c0,0,0,0,0.1,0c-0.1,0.5-0.3,1-0.4,1.5c0.3-0.6,0.5-1.2,0.5-1.8c0,0,0.1,0,0.1,0v2c0,0,0,0,0,0
			c0-0.5,0.1-0.9,0.1-1.4c0.2,0.6,0.3,1.2,0.5,1.8c0,0,0,0,0.1,0c-0.2-0.7-0.4-1.5-0.6-2.3c0.3,0.6,0.6,1.1,0.9,1.6l0.1,0
			c-0.3-0.6-0.7-1.2-1-1.9c0,0,0,0,0,0c0.4,0.4,0.7,0.9,1.1,1.3c0,0,0,0,0.1-0.1c-0.5-0.6-1-1.3-1.5-1.9c0,0,0,0,0,0
			c0.5,0.5,1,0.9,1.5,1.4c0-0.1,0-0.1,0-0.1c-0.5-0.5-1-1-1.5-1.5c-0.1-0.1-0.1-0.2-0.2-0.2c0,0,0,0,0.1,0c0.6,0.4,1.1,0.9,1.7,1.3
			c-0.5-0.6-1-1.1-1.7-1.5c-0.1-0.1-0.2-0.1-0.2-0.2c0,0,0,0,0-0.1c0.6,0.3,1.3,0.7,2,0.8c-0.7-0.3-1.3-0.6-2-0.9
			c-0.2-0.1-0.3-0.2-0.4-0.4c0.7,0.2,1.3,0.5,2.1,0.5c-0.7-0.2-1.3-0.5-2-0.7c-0.2-0.1-0.3-0.1-0.4-0.3c0.7,0.2,1.3,0.4,2,0.6
			c-0.3-0.2-0.6-0.4-0.9-0.5c-0.3-0.1-0.7-0.2-1-0.2c-0.2,0-0.2,0-0.3-0.3c0.7,0.1,1.4,0.3,2,0.4c-0.6-0.3-1.2-0.6-1.9-0.5
			c-0.3,0-0.4-0.1-0.5-0.3c0.8,0,1.5,0.1,2.2,0.1c-0.8-0.2-1.5-0.4-2.3-0.2C35.1,79,35.2,79,35.3,79c0.6,0,1.3,0,1.9,0
			c-0.7-0.2-1.4-0.3-2.1-0.2c-0.1,0-0.1,0-0.2-0.1c0,0,0-0.1,0-0.1c0.6-0.1,1.2-0.2,1.8-0.2c-0.7-0.1-1.4-0.1-2,0.1c0,0,0-0.1,0-0.1
			c0.5-0.1,1.1-0.2,1.6-0.3c0,0,0-0.1,0-0.1c-0.6,0.1-1.3,0.2-1.9,0.3c0.4-0.3,1-0.4,1.5-0.6c0,0,0-0.1,0-0.1L34.2,78c0,0,0,0,0-0.1
			c0.5-0.2,0.9-0.4,1.4-0.6c0,0,0,0,0-0.1c-0.5,0.2-1,0.3-1.5,0.5c0,0,0,0,0-0.1c0.3-0.2,0.7-0.3,1-0.5c0,0,0,0,0,0
			c-0.3,0.1-0.7,0.2-1,0.3c0,0,0,0,0-0.1c0.2-0.1,0.3-0.2,0.5-0.3c0,0,0,0,0,0c-0.2,0.1-0.3,0.1-0.5,0.2c-0.1-0.2-0.1-0.3-0.2-0.5
			c0.1,0,0.1,0.1,0.1,0.2c0,0.1,0.1,0.1,0.1,0.2c0-0.1,0-0.2,0-0.2c0-0.4,0-0.4,0.4-0.5c0.1,0,0.3,0,0.4-0.1c0.1,0,0.1,0,0.2,0
			c0.1-0.2,0.2-0.2,0.4,0c0-0.1,0-0.1,0-0.2c0,0,0,0,0.1,0c0.1,0.2,0.1,0.3,0.2,0.5c0-0.2,0-0.4-0.1-0.5c0.3,0,0.3,0.1,0.4,0.6
			c0-0.2,0-0.4,0-0.6c0.3,0,0.3,0,0.4,0.6v-0.6c0.4,0.3,0.3,0.6,0.4,0.9v-0.8c0.3,0.1,0.2,0.3,0.3,0.4c0,0.2,0,0.3,0.1,0.5
			c0,0,0,0,0,0v-0.8c0.4,0.4,0.2,0.8,0.3,1.2c0-0.3,0-0.6,0.1-1c0.5,0.3,0.3,0.9,0.4,1.3c0-0.2,0.1-0.4,0.1-0.5c0-0.2,0-0.3,0-0.5
			c0.2,0.2,0.2,0.4,0.3,0.6c0,0.2,0,0.4,0,0.7c0,0,0,0,0.1,0v-1c0,0,0,0,0.1,0c0.3,0.5,0.2,1.1,0.1,1.6c0.2-0.5,0.2-0.9,0.1-1.4
			c0.4,0.5,0.2,1,0.2,1.6c0,0,0.1,0,0.1,0c0-0.4,0-0.8,0.1-1.3c0.4,0.7,0.2,1.3,0.1,2c0.2-0.5,0.3-1,0.3-1.5
			c0.1,0.1,0.1,0.1,0.1,0.2c0.1,0.5,0,1.1-0.1,1.6c0.2-0.4,0.3-0.9,0.3-1.4c0.4,0.7,0.1,1.5,0,2.2c0.3-0.5,0.4-1.1,0.3-1.7
			c0,0.1,0.1,0.1,0.1,0.1c0,0.1,0.1,0.2,0.1,0.3c0,0.6-0.2,1.2-0.4,1.9c0.4-0.6,0.5-1.2,0.5-1.7c0.3,0.9-0.2,1.6-0.8,2.4
			c0.6-0.5,0.9-1.1,1-1.8c0.3,1-0.3,1.7-0.8,2.4c0.2-0.2,0.5-0.5,0.6-0.8c0.2-0.3,0.2-0.6,0.4-0.9c0.1,0.9-0.3,1.7-0.8,2.5
			c0.5-0.6,0.8-1.2,0.9-2c0,0.9-0.3,1.6-0.8,2.3c0.5-0.5,0.7-1.1,0.9-1.8c0.3,1-0.1,1.8-0.6,2.6c0,0,0.1,0,0.1,0
			c0.2-0.5,0.4-1,0.6-1.5v0.6c0,0,0,0,0,0c0-0.2,0-0.4,0-0.6c0,0,0,0,0.1,0c0.1,0.7,0.1,1.3,0,2c0.2-0.8,0.2-1.6,0-2.4
			c0-0.1,0-0.2,0-0.3l0,0c0-0.2-0.2-0.3-0.1-0.5c0-0.1-0.1-0.2-0.1-0.4c0-0.2-0.1-0.4-0.1-0.6c0,0,0,0,0,0c-0.1-0.2-0.1-0.4-0.2-0.5
			c0,0,0.1,0,0.1-0.1c0.2,0.3,0.5,0.5,0.7,0.8c0.3,0.4,0.6,0.8,0.7,1.3c0-0.1,0.1-0.1,0.1-0.2c0-0.1,0-0.1,0-0.2
			c0-0.7-0.1-1.5-0.3-2.2c-0.3-1-0.8-1.9-1.5-2.7c-0.2-0.3-0.5-0.5-0.8-0.7c-0.2-0.1-0.4-0.3-0.5-0.5c-0.2-0.5-0.3-0.9-0.5-1.5
			c0.5,0.4,0.9,0.7,1.3,1.1c0,0,0,0,0-0.1c-0.4-0.4-0.9-0.9-1.4-1.3c0.3,0.1,0.5,0.1,0.7,0.2c0.1,0,0.2,0.2,0.3,0.3
			c0.1,0.1,0.2,0.2,0.2,0.3c0,0,0,0,0,0c-0.1-0.1-0.1-0.3-0.2-0.4c0,0,0,0,0.1,0c0.1,0.2,0.3,0.3,0.4,0.5c0-0.1-0.1-0.2-0.1-0.4
			c0.1,0,0.1,0.1,0.1,0.1c0,0,0.1,0,0.1,0c-0.2-0.2-0.3-0.5-0.5-0.7c0.4,0,0.5,0.3,0.7,0.5c0,0,0,0,0,0c-0.2-0.2-0.3-0.5-0.5-0.7
			c0.2,0,0.3,0.2,0.5,0.3c0.1,0.2,0.2,0.3,0.3,0.5c0,0,0,0,0.1,0c-0.2-0.2-0.3-0.5-0.4-0.7c0.3,0.1,0.3,0.2,0.9,1.1c0,0,0,0,0.1,0
			c-0.2-0.3-0.4-0.7-0.6-1c0.2,0.1,0.4,0.3,0.5,0.5c0.1,0.2,0.2,0.5,0.3,0.7c0,0,0,0,0.1,0c-0.2-0.3-0.3-0.7-0.5-1.1
			c0.6,0.2,0.7,0.8,1,1.3c0,0,0,0,0.1,0c-0.2-0.3-0.3-0.7-0.5-1.1c0.5,0.3,0.7,0.8,0.9,1.3c0,0,0.1,0,0.1,0
			c-0.2-0.3-0.3-0.7-0.5-1.1c0.4,0.2,0.5,0.5,0.6,0.9c0.1,0.3,0.1,0.7,0.2,1c0-0.5,0-1.1-0.4-1.6c0,0,0.1,0,0.1,0
			c0.1,0.2,0.3,0.3,0.4,0.5c0-0.1,0-0.2-0.1-0.2c0.3,0.2,0.5,0.4,0.6,0.7c0.1,0.3,0.2,0.6,0.3,0.9c0,0,0,0,0,0
			c-0.1-0.4-0.2-0.8-0.2-1.2c0.8,0.3,1.4,0.9,2,1.5c-0.5-0.8-1.2-1.4-2.1-1.8c0.8,0.1,1.5,0.5,2.2,0.8c-0.3-0.2-0.5-0.4-0.8-0.5
			c-0.3-0.1-0.6-0.3-0.9-0.3c-0.3-0.1-0.6-0.1-0.9-0.2c0.8-0.1,1.6,0.1,2.4,0.3c-0.8-0.4-1.6-0.5-2.4-0.4c-0.1,0-0.2,0-0.3,0
			c0,0,0,0,0-0.1c0.8-0.1,1.7-0.1,2.5,0.1c-0.2-0.1-0.4-0.2-0.6-0.2c-0.6-0.1-1.2-0.2-1.9,0c-0.2,0.1-0.3,0.1-0.5-0.1
			c0.9-0.2,1.7-0.2,2.5-0.1c-0.8-0.3-1.7-0.4-2.5-0.1c-0.2,0.1-0.3,0.1-0.5-0.1c0.8-0.1,1.6-0.3,2.4-0.4c-0.8-0.1-1.6-0.1-2.3,0.3
			c-0.2,0.1-0.4,0-0.6-0.1c0.4-0.1,0.8-0.3,1.2-0.3c0.4-0.1,0.8-0.1,1.1-0.2c-0.5-0.2-1.9,0.1-2.3,0.4c-0.2,0.1-0.3,0.1-0.5,0
			c0.3-0.1,0.5-0.2,0.8-0.3c0.3-0.1,0.5-0.2,0.8-0.2c0.3-0.1,0.5-0.1,0.8-0.1c-0.3,0-0.5,0-0.8,0c-0.6,0.1-1.2,0.2-1.6,0.6
			c-0.2,0.1-0.3,0.2-0.5,0.1c0.7-0.4,1.5-0.7,2.3-0.8c-0.8,0-1.6,0.2-2.3,0.7c-0.2,0.2-0.4,0.2-0.6,0.1c0.1,0,0.2,0,0.3,0
			c0,0,0-0.1,0-0.1c0.6-0.4,1.3-0.6,2-0.9c-0.1,0-0.1,0-0.2,0c-0.8,0.1-1.4,0.3-2,0.8c-0.1,0.1-0.2,0.1-0.2,0.1c0,0,0,0,0-0.1
			c0.6-0.4,1.2-0.7,1.8-0.9c-0.1,0-0.2,0-0.3,0c-0.5,0.2-0.9,0.4-1.4,0.6c-0.1,0-0.2,0.1-0.3,0.1l0-0.1l1.4-0.8c0,0,0,0,0,0
			c-0.4,0.2-0.8,0.3-1.2,0.5c0,0,0,0,0-0.1c0.3-0.1,0.5-0.3,0.8-0.5c-0.4,0.1-0.7,0.2-1,0.3l0-0.1c0.2-0.1,0.3-0.2,0.5-0.3
			c0,0,0,0,0,0c-0.3,0.2-0.6,0.3-1,0.5l0-0.1c0.1-0.1,0.3-0.2,0.4-0.3c0,0,0,0,0-0.1c-0.1,0-0.2,0.1-0.3,0.1c-0.1,0-0.2,0-0.2,0
			c-0.1-0.2-0.2-0.1-0.3-0.1c-0.2,0-0.3,0.1-0.5,0.1c0,0,0,0,0-0.1c0.2-0.1,0.4-0.2,0.7-0.3c0,0,0,0,0,0c-0.2,0.1-0.5,0.1-0.7,0.2
			c0,0,0,0,0,0c0.1-0.1,0.2-0.1,0.3-0.2c-0.2,0-0.4,0.1-0.6,0.1c0,0,0-0.1-0.1-0.1c0.1,0,0.1,0,0.2-0.1c0,0,0,0,0-0.1h-0.4
			c0,0,0-0.1-0.1-0.2c-0.2,0.2-0.3,0.2-0.4,0c0,0.1-0.1,0.2-0.2,0.4c-0.1-0.2-0.1-0.3-0.2-0.4c-0.1,0.5-0.1,0.5-0.2,0.6
			c-0.1-0.3-0.1-0.6-0.2-0.8c0,0.4,0.1,0.7-0.1,1.1l-0.2-1c0,0,0,0-0.1,0c0,0.2,0.1,0.4,0.1,0.6c0,0.4,0,0.4-0.1,0.5
			c-0.1-0.4-0.2-0.8-0.3-1.2c0,0-0.1,0-0.1,0c0.1,0.4,0.3,0.9,0.1,1.3c-0.1-0.2-0.1-0.3-0.2-0.5c-0.1-0.2-0.1-0.3-0.2-0.5
			c-0.2,0-0.2,0.1-0.3,0.1c0,0,0,0,0,0c-0.1,0-0.2-0.1-0.3-0.1c0,0.2-0.1,0.2-0.2,0.2c-0.1,0-0.1,0-0.2,0L33.3,72c0,0,0,0,0-0.1
			c0.2-0.2,0.4-0.4,0.6-0.5c0,0,0-0.1,0-0.1c0.2-0.2,0.4-0.3,0.6-0.5c0.3-0.2,0.5-0.3,0.8-0.5c0.7-0.4,1.4-0.4,2.1-0.3
			c0.4,0.1,0.8,0.4,1.2,0.3c0.2,0,0.4,0.1,0.6,0.2c0.2,0.1,0.4,0.2,0.5,0.4c-0.5-0.5-1-0.9-1.7-1.1c-0.3-0.1-0.6-0.2-0.9-0.2
			c-0.2,0-0.3-0.1-0.4,0c-0.2,0-0.3-0.1-0.4-0.1c0,0,0,0,0,0c-0.2-0.2-0.2-0.2-0.3,0c0,0,0,0,0,0c-0.2-0.2-0.3-0.2-0.4,0.1
			c-0.1,0.1-0.2,0.3-0.2,0.4c0,0.3-0.2,0.3-0.4,0.4c0.1-0.3,0.3-0.6,0.4-0.9c-0.1,0-0.2,0.1-0.2,0.1c-0.1,0.2-0.2,0.5-0.2,0.7
			c0,0.1-0.1,0.2-0.1,0.3c0,0-0.1,0-0.1,0c0.1-0.3,0.2-0.6,0.3-1c-0.1,0-0.2,0.1-0.2,0.1c-0.1,0.3-0.2,0.5-0.2,0.8
			c0,0.2-0.1,0.3-0.3,0.4c0.1-0.4,0.2-0.9,0.2-1.3l-0.1,0c0,0.1-0.1,0.2-0.1,0.3c-0.1,0.3-0.1,0.7-0.1,1c0,0.1-0.1,0.2-0.1,0.3
			c0,0-0.1,0-0.1,0c0.1-0.4,0.1-0.9,0.2-1.3c-0.2,0.3-0.4,1-0.3,1.3c0,0.2,0,0.2-0.2,0.3v-1.6c-0.2,0.5-0.2,1-0.1,1.5
			c0,0.2,0,0.3-0.1,0.4c0,0-0.1,0-0.1,0v-1.7c0,0-0.1,0-0.1,0c0,0.1-0.1,0.1-0.1,0.2c0,0.5,0,1,0.1,1.5c0,0.2,0,0.3-0.2,0.3
			c-0.1-0.5-0.1-1-0.2-1.6c-0.2,0.2,0,0.6-0.3,0.8c0-0.3-0.1-0.5-0.1-0.8c-0.3,0.5-0.5,1-0.8,1.6c-0.1-0.1-0.1-0.2,0-0.3
			c0.1-0.3,0.3-0.6,0.4-0.8c0.1-0.3,0.2-0.5,0.3-0.8c0,0-0.1,0-0.1,0c-0.2,0.5-0.5,1-0.7,1.6c0,0,0,0-0.1,0c0-0.2,0-0.3,0-0.5
			c0.2-0.4,0.4-0.9,0.6-1.3c-0.3,0.1-0.4,0.3-0.7,1.3c-0.1-0.1-0.1-0.1-0.2-0.2c0,0,0,0.1,0,0.1c0.1,0.1,0.1,0.3,0.2,0.4
			c0,0-0.1,0-0.1,0.1c-0.4-0.6-1.1-0.8-1.5-1.4c0,0.1,0.1,0.3,0.1,0.4c0,0-0.1,0-0.1,0c0,0,0,0-0.1,0c0.2,0.1,0.4,0.2,0.3,0.5
			c-0.2-0.2-0.3-0.3-0.4-0.4c-0.3-0.4-0.7-0.7-1.2-1c0,0-0.1,0-0.2,0c0.2,0.2,0.4,0.3,0.6,0.5l0,0c-0.3-0.1-0.7-0.3-1-0.4
			c0,0,0,0,0,0c0.2,0.1,0.3,0.2,0.5,0.3c0.5,0.3,1,0.6,1.2,1.1c0,0.1,0,0.2-0.2,0.2l0,0c-0.1,0-0.1,0-0.2,0.1c0,0.1-0.1,0.1-0.1,0.2
			c-0.6-0.4-1.2-0.1-1.7,0.2c0.5-0.1,1-0.3,1.5-0.1c-0.3,0.4-0.7,0.7-1,1.1c0,0,0,0,0.1,0.1c0.3-0.3,0.6-0.6,0.9-0.8c0,0,0,0,0,0.1
			c-0.1,0.6-0.2,1.2-0.2,1.7c-0.3,0-0.1-0.4-0.3-0.5c0,0.1,0,0.2-0.1,0.4c-0.1-0.1-0.2-0.1-0.2-0.2c0-0.1-0.1-0.2-0.1-0.3
			c0,0.1,0,0.2-0.1,0.3c-1-0.7-2-1.1-3.2-1.4c0.6,0.3,1.2,0.6,1.6,1.1c-0.1,0-0.2-0.1-0.3-0.1c-0.2-0.1-0.3-0.3-0.5-0.4
			c-0.5-0.3-1.1-0.6-1.8-0.5c0.7,0.2,1.3,0.4,1.8,0.9c-1-0.6-2-1.1-3.1-0.8c0.8,0.1,1.7,0.3,2.4,0.8c-0.2,0-0.4,0-0.5,0
			c0,0-0.1-0.1-0.1-0.1c-0.1,0-0.1-0.1-0.2-0.1c-0.7-0.4-1.5-0.5-2.4-0.4c0.9,0,1.8,0.2,2.6,0.6c-0.2,0.1-0.3,0.1-0.5,0
			c-0.1-0.1-0.2-0.1-0.3-0.2c-0.7-0.3-1.4-0.4-2.2-0.2c0.9,0,1.7,0.1,2.5,0.6c-0.1,0-0.3,0.1-0.4,0.1c-0.4-0.3-0.9-0.3-1.3-0.4
			c-0.4-0.1-1,0-1.3,0.2c0.8-0.1,1.7-0.1,2.5,0.3c-0.2,0.1-0.3,0.1-0.5,0.1c-0.3-0.1-0.6-0.2-1-0.3c-0.5-0.1-1-0.1-1.5,0.1
			c0.4,0,0.8,0,1.2,0c0.4,0,0.8,0.1,1.2,0.2c-0.4,0.2-0.7,0.4-1.1,0.6c-0.2,0.1-0.3,0.1-0.5,0.2c-0.8,0.1-1.6,0.4-2.3,0.9
			c0.3-0.1,0.5-0.2,0.7-0.3c0.3-0.1,0.5-0.2,0.8-0.3c0.2-0.1,0.5-0.1,0.8-0.2c0,0,0,0.1,0,0.1c-1.1,0.3-1.8,1-2.4,1.8
			c0.4-0.4,0.9-0.8,1.3-1.2c0.3-0.3,0.5-0.3,0.8-0.3c-0.4,0.7-0.5,1.2-0.4,1.8c0-0.6,0.1-1.2,0.5-1.8c-0.1,0.4-0.1,0.7-0.1,1.1
			c0.1-0.2,0.1-0.4,0.1-0.6c0-0.2,0.1-0.4,0.2-0.6c0.1-0.3,0.2-0.3,0.4-0.4c-0.2,0.5-0.2,1-0.1,1.6c0-0.1,0-0.3,0-0.4
			c0.1-0.4,0.1-0.7,0.2-1.1c0-0.1,0.2-0.2,0.2-0.3c-0.1,0.6-0.1,1,0,1.4c0-1.1,0.1-1.5,0.5-1.6c-0.1,0.2-0.1,0.4-0.2,0.6
			c0,0.2,0,0.4,0,0.6c0.1-0.9,0.3-1.3,0.6-1.3c-0.1,0.3-0.1,0.7-0.2,1c0.2-0.8,0.3-1.1,0.7-1.2c0,0.2-0.1,0.5-0.1,0.7
			c0.2-0.6,0.3-0.8,0.5-0.8c0,0.2-0.1,0.4-0.1,0.7c0.3-0.7,0.3-0.7,0.5-0.7c0,0.1,0,0.3-0.1,0.4c0.2-0.2,0.1-0.5,0.5-0.5
			c0,0.1,0,0.1,0,0.2c0,0,0,0.1,0,0.1c0.1-0.3,0.3-0.4,0.6-0.3c-0.1,0.1-0.2,0.2-0.3,0.3c0.1,0.1,0.3,0.2,0.4,0.3c0,0,0,0.1-0.1,0.1
			c-0.1-0.1-0.3-0.1-0.4-0.2c-0.2-0.1-0.3-0.2-0.5-0.1c0.1,0.1,0.2,0.1,0.4,0.2c-0.2,0.1-0.5-0.2-0.7,0c0.2,0.1,0.3,0.1,0.5,0.2
			c-0.1,0.1-0.1,0.1-0.2,0.1c-0.3-0.2-0.4-0.1-0.6,0.1c-0.1,0-0.2,0.1-0.3,0.1c0,0,0,0,0,0.1c-0.3,0.2-0.5,0.4-0.8,0.6
			c-0.1,0.1-0.2,0.2-0.2,0.3c-0.4,0.5-0.7,1.1-0.8,1.7c0.1-0.1,0.1-0.2,0.2-0.3c0.2-0.3,0.4-0.6,0.6-0.9c0.2-0.2,0.4-0.3,0.6-0.5
			c1.4-1.3,3.1-1.7,4.9-1c0.2,0.1,0.3,0.2,0.3,0.4c0,0.2-0.1,0.4-0.1,0.6c-0.1,0-0.1,0-0.2,0.1c0.1,0.1,0.2,0.2,0.2,0.3
			c0,0,0,0,0,0.1c-0.1,0-0.2-0.1-0.3-0.1c-0.1,0-0.2-0.1-0.4-0.1c0.1,0.1,0.1,0.1,0.1,0.2c-1.1,0.1-2,0.4-2.8,0.9
			c0.3,0,0.7-0.1,1-0.1c-0.1,0.3-0.3,0.2-0.5,0.2c-0.2,0-0.4,0-0.6,0c0,0,0,0,0-0.1c-0.9,0.6-1.7,1.4-2.4,2.5
			c0.3-0.4,0.7-0.7,1.2-0.8c-0.1,0.2-0.2,0.3-0.4,0.4c-0.2,0.2-0.5,0.3-0.7,0.4c-0.2,0.1-0.2,0.4-0.4,0.5c-0.1,0.2-0.2,0.4-0.3,0.5
			c0,0,0,0,0,0c0.3-0.3,0.6-0.7,0.9-1c0,0,0.1,0.1,0.1,0.1c-0.1,0.1-0.1,0.3-0.2,0.3c-0.8,0.5-1.1,1.3-1.2,2.2
			c0.2-0.5,0.4-1,0.8-1.4c0,0,0,0,0.1,0c-0.1,0.1-0.1,0.2-0.2,0.3c0.1-0.1,0.2-0.2,0.2-0.3c0-0.1,0-0.2,0.1-0.2l0,0
			c0,0.3,0,0.5,0.1,0.8c0-0.5-0.1-1,0.3-1.5c0.1-0.2,0.3-0.5,0.4-0.7c0.1-0.1,0.2-0.3,0.3-0.4c0.2-0.2,0.5-0.5,0.7-0.7
			c0.2-0.2,0.4-0.4,0.7-0.6c0,0,0.1,0,0.2,0l0.4-0.3c0.1-0.1,0.2-0.1,0.3-0.2c0,0,0,0.1,0.1,0.1c-0.2,0.2-0.4,0.4-0.6,0.5
			c-0.1,0.2-0.3,0.3-0.4,0.5c0.1,0,0.1,0,0.2-0.1c-0.3,0.4-0.5,0.7-0.8,1c0,0,0,0,0.1,0c0.2-0.4,0.5-0.7,0.9-0.9
			c-0.1,0.2-0.3,0.3-0.4,0.5c-0.1,0.2-0.2,0.3-0.4,0.5c0.8-1,1.7-1.7,2.8-2.2c0,0,0.1,0,0.1,0.1c-0.1,0.1-0.1,0.2-0.2,0.3
			c0.1,0,0.3-0.1,0.4-0.1l0,0c-0.2,0.1-0.4,0.3-0.7,0.4c0,0,0,0,0,0c0.1,0,0.2-0.1,0.3-0.1c0,0,0,0,0,0l-0.5,0.3
			c1.4-0.6,1.5-0.6,2.1-0.5c-0.4,0.1-0.7,0.1-1.1,0.2c-0.4,0.1-0.7,0.3-1.1,0.5c0,0,0,0.1,0,0.1c0.6-0.3,1.2-0.7,2-0.6
			c-0.1,0.1-0.1,0.1-0.2,0.1c-0.2,0-0.3,0-0.5,0.1c-0.5,0.1-1.2,0.5-1.4,0.8c0.6-0.4,1.2-0.7,1.9-0.7c0,0.1-0.1,0.1-0.2,0.1
			c-0.6,0-1,0.3-1.5,0.7c-0.2,0.1-0.3,0.3-0.4,0.4c0.6-0.4,1.2-0.8,1.9-0.9c0,0.1-0.1,0.1-0.2,0.2c-0.2,0.1-0.5,0.1-0.7,0.3
			c-0.5,0.2-1,0.7-1.2,1c1-0.8,1.6-1.1,2-1.2c-0.1,0.1-0.2,0.2-0.2,0.2c-0.5,0.1-0.9,0.3-1.3,0.7c-0.3,0.2-0.5,0.5-0.7,0.7l0,0.1
			c0.6-0.5,1.2-1,1.9-1.3c0,0.1-0.1,0.2-0.1,0.2c-0.7,0.1-1.1,0.6-1.6,1.1c-0.1,0.1-0.2,0.2-0.3,0.3c0.6-0.5,1.1-1,1.9-1.3
			c0,0.1-0.1,0.3-0.2,0.4c-0.4,0.3-0.8,0.4-1.1,0.7c-0.3,0.2-0.5,0.5-0.7,0.8c0,0,0,0,0,0l1.8-1.4c0,0,0.1,0.1,0.1,0.1
			c0,0.1-0.1,0.2-0.1,0.3c-0.3,0.2-0.7,0.4-1,0.7c-0.3,0.3-0.5,0.6-0.8,0.9c0,0,0,0,0,0c0.6-0.5,1.1-1.1,1.8-1.5
			c0,0.1,0,0.3-0.1,0.3c-0.3,0.3-0.7,0.5-1,0.8c-0.3,0.3-0.5,0.6-0.7,1c0,0,0,0,0.1,0c0.1-0.1,0.2-0.2,0.3-0.3
			c0.4-0.4,0.8-0.9,1.2-1.3c0,0,0.1,0,0.2,0c0.1,0.1,0.1,0.2,0.2,0.3c0.3,0.6,0.7,1.2,1.2,1.6c-0.5-0.6-0.9-1.2-1.2-2
			C28,80.3,28,80.1,28,80l0.1,0c0.3,0.7,0.6,1.3,1,1.8c-0.3-0.6-0.6-1.3-0.9-1.9c0-0.1,0-0.2-0.1-0.3c0,0,0,0,0.1,0
			c0.3,0.6,0.5,1.3,1,1.8c-0.3-0.6-0.6-1.2-0.9-1.8c-0.1-0.2-0.1-0.2,0-0.5c0.2,0.6,0.5,1.3,1,1.8c-0.3-0.6-0.6-1.2-0.8-1.8
			c0-0.1,0-0.2,0-0.3c0,0,0,0,0.1,0c0.2,0.6,0.5,1.2,0.9,1.8c-0.3-0.6-0.5-1.2-0.8-1.8c0-0.1,0-0.2,0-0.3c0,0,0,0,0.1,0
			c0.3,0.6,0.6,1.1,0.9,1.7c0,0,0,0,0.1,0c-0.3-0.6-0.6-1.2-0.8-1.8c0-0.1,0-0.2,0-0.2c0,0,0,0,0.1,0c0.3,0.5,0.5,1.1,0.8,1.6
			c0,0,0.1,0,0.1,0c-0.2-0.5-0.5-1.1-0.7-1.6c0-0.1,0-0.1,0-0.2c0,0,0,0,0.1,0c0.3,0.5,0.6,1,0.8,1.4c0,0,0,0,0.1,0
			c-0.3-0.5-0.5-1-0.8-1.5c0-0.1,0-0.1-0.1-0.2c0,0,0.1,0,0.1,0c0.3,0.4,0.5,0.9,0.8,1.3c0,0,0,0,0.1,0l-0.7-1.4c0,0,0.1,0,0.1-0.1
			c0.3,0.4,0.5,0.9,0.9,1.3c-0.3-0.5-0.5-0.9-0.8-1.5c0.2,0.1,0.3,0.3,0.4,0.5c0.1,0.2,0.3,0.4,0.4,0.6c0,0,0,0,0.1,0l-0.5-1.1
			c0,0,0,0,0.1,0c0.2,0.3,0.4,0.6,0.6,0.8c0,0,0,0,0.1,0c-0.1-0.3-0.3-0.5-0.4-0.8c0,0,0,0,0.1,0c0.2,0.2,0.3,0.5,0.5,0.7
			c0,0,0,0,0,0c-0.1-0.2-0.2-0.4-0.3-0.6c0,0,0,0,0,0c0.1,0.2,0.2,0.4,0.4,0.6c0,0,0,0,0,0c0-0.1-0.1-0.3-0.1-0.4c0,0,0,0,0.1,0
			c0.1,0.1,0.2,0.2,0.3,0.3c0,0,0-0.1,0-0.1c0.2,0.2,0.3,0.3,0.2,0.6c0.1,0,0.2,0.1,0.2,0.1c0,0.1-0.1,0.1-0.1,0.1h0.1
			c-0.1,0.4-0.1,0.7-0.2,1.2c-0.5,0.2-0.9,0.6-1.2,1.1c0.4-0.3,0.7-0.8,1.3-0.9c-0.5,0.3-1,0.7-1.3,1.3c0.1-0.1,0.1-0.1,0.2-0.2
			c0.2-0.2,0.5-0.5,0.8-0.7c0,0,0.1,0,0.2-0.1c0,0,0,0,0,0.1c-0.5,0.3-0.9,0.8-1.2,1.3c0.4-0.4,0.7-0.7,1.1-1.1c0,0,0.1,0.1,0.1,0.1
			c-0.1,0.1-0.1,0.2-0.2,0.2c-0.4,0.4-0.7,0.9-0.9,1.4c0.4-0.4,0.6-0.9,1.1-1.3c-0.2,0.3-0.4,0.5-0.6,0.8c-0.2,0.3-0.3,0.6-0.5,0.8
			c0,0,0,0,0.1,0l0.8-1.1c0,0,0,0,0.1,0c-0.3,0.6-0.7,1.1-1,1.7c0,0,0,0,0.1,0c0.3-0.5,0.6-1,1-1.4c0,0,0.1,0,0.1,0
			c0,0.1,0,0.1-0.1,0.2c-0.4,0.5-0.7,1.1-0.9,1.7c0.3-0.5,0.6-0.9,0.9-1.4l0.1,0c0,0.1,0,0.3-0.1,0.4c-0.3,0.5-0.6,1-0.9,1.4
			c0,0,0.1,0,0.1,0c0.3-0.4,0.6-0.9,0.9-1.3c0,0,0.1,0,0.1,0c-0.3,0.5-0.6,1.1-0.9,1.6c0,0,0,0,0.1,0c0.2-0.4,0.5-0.7,0.7-1.1
			c0.2,0.1,0.1,0.2,0,0.3c-0.2,0.5-0.4,0.9-0.7,1.4c0,0,0,0,0.1,0c0.2-0.3,0.4-0.7,0.6-1.1c0.1,0.4-0.1,0.6-0.2,0.8
			c-0.1,0.3-0.2,0.5-0.3,0.8c0,0,0,0,0.1,0c0.2-0.3,0.4-0.6,0.6-1c0.1,0.5-0.3,0.9-0.3,1.3c0.1-0.2,0.2-0.4,0.3-0.5c0,0,0,0,0.1,0
			c-0.1,0.3-0.2,0.6-0.3,0.9c0,0,0,0,0,0c0.1-0.1,0.1-0.2,0.2-0.3c0,0.1,0,0.1,0,0.1c0,0.3-0.3,0.6,0,0.9c0,0,0,0,0,0.1
			c-0.2,0.2,0,0.4,0,0.6c0,0.2,0,0.3,0,0.5c0,0.1,0.1,0.3,0.1,0.4c-0.2,0.1,0,0.3-0.1,0.4c0,0.1,0,0.2,0,0.3c0,0.2,0.1,0.4,0.1,0.6
			c0,0.1-0.1,0.2-0.1,0.4c0,0.2-0.1,0.5,0,0.7c0,0.1,0,0.2,0,0.4c0,0,0,0.1,0,0.1c0.1,0.2,0.1,0.4,0.1,0.7c-0.1,0.2-0.1,0.4-0.1,0.6
			c0,0,0,0.1,0,0.2c0,0.1-0.1,0.3,0,0.4c0,0.3,0.1,0.6,0.1,0.8c0,0.2-0.1,0.3-0.1,0.5c0,0.2,0.1,0.5,0,0.7c-0.1,0.3,0,0.6,0,0.9
			c0,0.3,0,0.6,0,1c0,0.3,0,0.6,0,1C31.5,98.8,31.6,99.2,31.4,99.6 M36,69.4c0,0,0.1,0,0.2,0c-0.1,0.1-0.1,0.2-0.2,0.3
			c-0.1,0.1-0.2,0.2-0.2,0.3c0,0-0.1,0-0.1-0.1C35.8,69.7,35.9,69.6,36,69.4z M35.6,69.5c0,0,0.2,0,0.2-0.1
			c-0.1,0.1-0.2,0.3-0.3,0.4c-0.1,0.1-0.1,0.2-0.2,0.2c0,0-0.1,0-0.1-0.1C35.4,69.8,35.5,69.7,35.6,69.5z M25.1,73.1
			c-0.3-0.2-0.6-0.3-0.9-0.5c0,0,0,0,0-0.1c0.3,0.1,0.6,0.3,0.9,0.4C25.2,73,25.2,73.1,25.1,73.1z M25.3,72.6
			C25.3,72.6,25.3,72.6,25.3,72.6c0.3,0.1,0.6,0.3,0.9,0.5c0,0,0,0.1-0.1,0.1L25.3,72.6z M25.3,73.7c0.1-0.1,0.1-0.2,0.2-0.3
			c0,0,0.1,0,0.2,0c0,0,0,0.1,0,0.1c-0.1,0-0.1,0-0.2,0c0,0-0.1,0-0.2,0c0.2,0.2,0.4,0.3,0.6,0.5C25.6,74.1,25.6,73.7,25.3,73.7z
			 M25.9,73.6c0,0,0-0.2,0-0.2c0,0,0.1,0,0.1,0c0.2,0.2,0.3,0.4,0.5,0.7C26,74.2,26.1,73.7,25.9,73.6z M26.4,73.4
			c0.2,0.3,0.3,0.5,0.4,0.7C26.5,74.1,26.3,73.7,26.4,73.4z M26.8,73.6c0.3,0.1,0.3,0.3,0.4,0.6C26.8,74.1,26.9,73.8,26.8,73.6z
			 M27.4,74.3c-0.3-0.1-0.2-0.3-0.2-0.5c0,0,0.1,0,0.1-0.1C27.4,73.9,27.4,74.1,27.4,74.3C27.5,74.2,27.5,74.3,27.4,74.3z
			 M27.6,73.9C27.6,73.9,27.7,73.9,27.6,73.9c0.2,0.1,0.2,0.2,0.4,0.4C27.6,74.3,27.6,74.3,27.6,73.9z M28,74.1
			c0.2,0,0.2,0.2,0.2,0.4C28,74.5,27.9,74.4,28,74.1z M22,81.1c0.1-0.4,0.4-0.8,0.8-1.1c0,0,0.1,0,0.1,0.1
			C22.6,80.5,22.3,80.8,22,81.1z M22.6,79.7C22.6,79.7,22.6,79.7,22.6,79.7c0.2-0.3,0.4-0.5,0.7-0.7C23.2,79.5,22.8,79.5,22.6,79.7z
			 M23.2,78.7c0.1-0.2,0.5-0.5,0.9-0.5C23.9,78.6,23.4,78.4,23.2,78.7z M23.8,78c0.2-0.1,0.4-0.2,0.7-0.3C24.3,78.1,24,78,23.8,78z
			 M24,77.8C24,77.8,24,77.8,24,77.8c0.2-0.2,0.5-0.3,0.8-0.4c0,0,0,0.1,0,0.1C24.5,77.7,24.3,77.7,24,77.8z M24.1,77.6
			C24.1,77.5,24.1,77.5,24.1,77.6c0.3-0.2,0.7-0.3,1-0.4c0,0,0,0.1,0,0.1C24.8,77.4,24.5,77.5,24.1,77.6z M24.6,77.2l0-0.1
			c0.3-0.1,0.7-0.1,1-0.2C25.3,77.3,24.9,77,24.6,77.2z M25.4,78c0-0.2,0.3-0.3,0.7-0.3C25.9,77.8,25.6,77.9,25.4,78z M25.7,76.6
			h0.8C26.2,76.8,25.9,76.6,25.7,76.6z M29.9,71.2C29.9,71.2,29.9,71.2,29.9,71.2c0,0.1,0,0.1,0,0.1C29.8,71.3,29.8,71.3,29.9,71.2
			C29.8,71.2,29.8,71.2,29.9,71.2C29.8,71.1,29.9,71.2,29.9,71.2z M29.5,73.2c-0.1-0.5-0.1-1-0.2-1.4C29.6,72,29.8,73.1,29.5,73.2z
			 M29.7,73.8c0,0.2-0.1,0.4-0.2,0.6C29.4,74.2,29.4,73.9,29.7,73.8z M29.1,72.4c0-0.1,0-0.3,0.1-0.4c0,0,0,0,0.1,0
			c0.1,0.6,0.1,1.2,0.2,1.8c0,0-0.1,0-0.1,0c0-0.1-0.1-0.1-0.1-0.2c-0.1,0.1-0.1,0.2-0.2,0.3C28.8,73.4,29.1,72.9,29.1,72.4z
			 M28.3,75.6c0,0,0.1-0.1,0.1-0.1c0.2,0.2,0.4,0.4,0.6,0.6c0,0-0.1,0.1-0.1,0.1C28.7,75.9,28.5,75.7,28.3,75.6z M28.8,77.1
			c-0.2,0-0.3,0-0.5,0.1c-0.2,0-0.3,0.1-0.5,0.1c0,0,0-0.1,0-0.1c0.5-0.1,0.9-0.2,1.4-0.3l0,0.2C29.1,77.1,29,77.1,28.8,77.1z
			 M29.8,76.2c-0.2-0.2-0.4-0.5-0.6-0.7c0,0-0.1,0-0.1,0.1c0.1,0.2,0.3,0.4,0.4,0.7c0,0,0,0-0.1,0.1c-0.1-0.1-0.2-0.2-0.3-0.3
			c-0.2-0.2-0.4-0.3-0.6-0.5c0,0-0.1-0.1-0.1-0.1c0.2-0.1,0-0.5,0.4-0.3C29.4,75.3,29.6,75.7,29.8,76.2
			C29.8,76.1,29.8,76.2,29.8,76.2z M29.9,72.5c-0.1-0.3-0.2-0.6-0.3-0.9c0,0,0,0,0.1,0C29.8,71.9,29.9,72.2,29.9,72.5
			C29.9,72.5,29.9,72.5,29.9,72.5z M30.3,72.8L30.3,72.8c-0.1-0.1-0.2-0.2-0.3-0.4C30.2,72.5,30.3,72.6,30.3,72.8z M30.5,71
			c0.4,0,1,0.7,1,1C31.1,71.7,30.8,71.4,30.5,71z M31.5,72.5c-0.2-0.4-0.6-0.5-0.7-1C31.3,71.8,31.6,72.2,31.5,72.5z M35.2,79.5
			C35.2,79.5,35.2,79.5,35.2,79.5c0.1,0.2,0.1,0.4,0,0.6c0,0-0.1,0-0.1,0C35,79.9,35.1,79.7,35.2,79.5z M34.9,80.1
			c0,0.2,0,0.3,0,0.4c0-0.1,0.1-0.1,0.1-0.2c0.3,0.2,0.1,0.4,0.1,0.6c-0.2-0.1-0.2-0.2-0.2-0.4c0,0-0.1,0.1-0.1,0.1
			c-0.1-0.1-0.2-0.2-0.2-0.3C34.6,80.3,34.7,80.2,34.9,80.1z M38,74.6c0.1,0.4,0.1,0.8,0.2,1.2c0,0,0,0-0.1,0.1
			c0-0.1-0.1-0.1-0.1-0.2C38,75.3,38,74.9,38,74.6C38,74.6,38,74.6,38,74.6z M37.8,74.6C37.8,74.6,37.8,74.6,37.8,74.6
			c0,0.3,0.1,0.7,0.1,1c0,0-0.1,0-0.1,0V74.6z M37.5,74.6L37.5,74.6l0.1,1.1C37.4,75.3,37.5,74.9,37.5,74.6z M37.2,74.3
			C37.2,74.3,37.3,74.3,37.2,74.3c0.2,0.4,0.1,0.8,0.2,1.2c0,0-0.1,0-0.1,0.1c-0.1-0.1-0.2-0.1-0.2-0.2C37.1,75,37.2,74.7,37.2,74.3
			z M36.9,74.5L36.9,74.5c0.1,0,0.1,0,0.1,0.1c0,0.2,0,0.5,0,0.7c0,0-0.1,0.1-0.1,0.1c0,0-0.1-0.1-0.1-0.1
			C36.9,75.1,36.9,74.8,36.9,74.5z M36.6,74.3c0.1,0.1,0.2,0.2,0.2,0.2c0,0.3,0,0.6,0,0.9c0,0.1-0.1,0.1-0.2,0.2v-0.1
			c0,0-0.1,0-0.2,0C36.5,75.1,36.5,74.7,36.6,74.3z M32.8,71.8c0,0.2,0.2,0.4-0.1,0.6c0-0.2,0-0.4,0-0.6
			C32.7,71.8,32.7,71.8,32.8,71.8z M32.9,77.3c0,0.6-0.1,0.9-0.5,0.8C32.6,77.8,32.8,77.5,32.9,77.3z M32.3,70.9v0.7
			C32.1,71.4,32.2,71.2,32.3,70.9z M32,71.6L32,71.6l0.1,0.5l-0.1,0V71.6z M35,100.6C35,100.6,35,100.7,35,100.6
			c-0.2,0.2-0.4,0.3-0.6,0.3c-1.3,0.3-2.5,0.2-3.8,0.1c-0.3,0-0.5-0.1-0.8-0.2C31.6,101,33.3,101.1,35,100.6z M32.6,83.3
			c-0.2-0.4,0-0.7,0.2-1c0-0.1,0.2-0.1,0.2-0.1c0,0,0,0,0,0.1C32.9,82.6,32.7,82.9,32.6,83.3z M32.9,77.9c0.1-0.3,0.2-0.5,0.2-0.8
			C33.5,77.5,33.4,77.8,32.9,77.9z M33.4,73.8c0-0.2-0.3-0.3-0.1-0.5c0,0,0.1,0,0.1,0c0,0.2,0,0.3,0.1,0.5
			C33.5,73.8,33.5,73.8,33.4,73.8z M33.8,73.7c-0.1-0.3-0.2-0.5-0.3-0.7c0.1,0,0.1,0,0.2-0.1C33.7,73.2,33.9,73.4,33.8,73.7z
			 M34,73.3c-0.1-0.2-0.2-0.4-0.3-0.6c0-0.1,0-0.1,0.1-0.3C34.1,72.9,34.1,73.1,34,73.3z M34.3,73.2c-0.1-0.4-0.3-0.7-0.4-1.1
			c0,0,0.1,0,0.1-0.1C34.2,72,34.4,72.9,34.3,73.2z M34.2,72C34.2,71.9,34.2,71.9,34.2,72c0.3-0.2,0.4,0,0.5,0.2
			c0,0.2,0.1,0.3,0.1,0.5c0,0.1-0.1,0.2-0.1,0.3C34.4,72.5,34.3,72.3,34.2,72z M34.6,75.9c0.1-0.1,0.3-0.3,0.4-0.4
			c-0.2,0-0.3,0-0.4,0c0,0,0,0,0-0.1c0.2-0.1,0.4-0.2,0.5-0.3c0-0.1,0-0.1,0.5-0.4c0,0.1,0,0.2,0.1,0.2c0-0.1,0.1-0.2,0.1-0.4
			c0,0,0,0,0.1,0c0,0.1,0,0.2,0.1,0.3c0,0,0,0,0,0c0-0.1,0-0.2,0-0.2c0,0,0.1-0.1,0.1-0.1c0,0,0.1,0.1,0.1,0.1c0,0.2,0,0.4,0.1,0.5
			c0-0.2,0.1-0.5,0.1-0.7c0,0,0,0,0.1,0v0.9c-0.5-0.1-0.9,0.1-1.3,0.3c0.1-0.1,0.2-0.2,0.3-0.3c0,0,0,0,0-0.1
			C35.1,75.6,34.9,75.8,34.6,75.9C34.6,76,34.6,75.9,34.6,75.9z M37.2,76.1c-0.1,0-0.3,0-0.4,0c-0.2,0-0.3,0-0.5,0.1
			c-0.1,0-0.1,0.1-0.2,0c-0.4,0-0.9-0.1-1.3-0.1c0.5-0.4,2-0.4,2.2-0.2c0.1,0,0.1-0.1,0.2-0.1c0.1,0,0.1,0.1,0.1,0.2
			C37.3,76,37.3,76.1,37.2,76.1z M37.3,76.5c0.3,0,0.5,0,0.7,0C37.7,76.7,37.6,76.7,37.3,76.5z M37.8,76.7
			C37.8,76.7,37.8,76.7,37.8,76.7c0.2-0.1,0.4,0,0.6,0c0,0,0,0,0,0.1c-0.1,0-0.3,0.1-0.4,0.1C37.9,76.9,37.8,76.8,37.8,76.7z
			 M38.8,77.4c0.3,0.1,0.6,0.2,0.9,0.4c0,0,0,0.1,0,0.1C39.4,77.7,39,77.9,38.8,77.4z M39.9,78.9c0,0,0,0,0-0.1
			c0.6,0.3,1.1,0.7,1.5,1.2c-0.3-0.2-0.6-0.5-1-0.7C40.1,79.2,39.9,79.1,39.9,78.9z M40.6,80.3c-0.1-0.1-0.2-0.3-0.3-0.5
			c0.3,0.1,1,0.9,1.2,1.3c-0.1,0-0.1,0-0.2,0C41.1,80.8,40.8,80.6,40.6,80.3z M41.9,82c-0.1-0.2-0.3-0.5-0.4-0.7c0-0.1,0-0.1,0-0.2
			C41.7,81.3,41.9,81.6,41.9,82z M41.6,80.8c-0.4-0.4-0.7-0.8-1.2-1.1c-0.1-0.1-0.2-0.3-0.3-0.4C40.6,79.4,41.6,80.4,41.6,80.8z
			 M41.3,79.7c-0.3-0.2-0.5-0.5-0.8-0.7c-0.2-0.1-0.4-0.2-0.6-0.3c-0.2-0.1-0.3-0.3-0.5-0.5c0,0,0,0,0.1-0.1
			C40.3,78.4,41.3,79.3,41.3,79.7z M40.7,78.7c-0.3-0.2-0.6-0.3-0.9-0.5c-0.1,0-0.2-0.1-0.3-0.1c-0.2,0-0.4-0.1-0.4-0.3
			C39.5,77.8,40.3,78.3,40.7,78.7z M40,77.4c0.2,0.2,0.4,0.3,0.4,0.7c-0.1-0.1-0.2-0.2-0.3-0.3c-0.5-0.4-1-0.6-1.6-0.7
			c0.4,0.2,0.8,0.3,1.2,0.5l0,0.1c-0.3-0.3-0.9-0.2-1.2-0.5c0,0,0-0.1,0-0.1c0,0,0,0,0,0c-0.2,0-0.3-0.1-0.5-0.2c0,0,0,0,0,0
			c0.4,0.1,0.8,0.1,1.2,0.3c0.3,0.1,0.6,0.3,0.8,0.4C40,77.6,40,77.5,40,77.4z M39.6,77.2c-0.4-0.2-0.8-0.5-1.1-0.7
			c-0.1,0-0.1-0.1-0.1-0.2C38.8,76.5,39.4,76.7,39.6,77.2z M38.8,75.8c0,0.1,0.1,0.1,0.1,0.2c-0.3,0.1-0.6-0.1-0.6-0.4
			c0-0.4-0.1-0.8-0.1-1.2C38.4,74.9,38.6,75.4,38.8,75.8z M38.5,72.9c0.2-0.1,0.5-0.2,0.7-0.3c0,0,0,0.1,0,0.1
			c-0.2,0.1-0.4,0.2-0.7,0.3C38.5,72.9,38.5,72.9,38.5,72.9z"/>
		<path class="st1" d="M27.8,81c-0.1,0.2,0.1,0.4,0.2,0.6c0.2,0.3,0.3,0.7,0.5,1c0.2,0.3,0.4,0.6,0.5,0.9c-0.2-0.3-0.5-0.6-0.7-0.9
			c-0.2-0.3-0.4-0.7-0.6-1c0,0.1,0,0.2,0.1,0.3c0.4,0.7,0.8,1.4,1.2,2c-0.5-0.5-0.9-1.2-1.3-1.9c0.3,0.8,0.7,1.6,1.2,2.3
			c-0.6-0.5-0.9-1.2-1.2-1.9c0,0-0.1,0-0.1,0c0.3,0.8,0.7,1.5,1,2.3c-0.2-0.3-0.4-0.6-0.5-0.9c-0.2-0.3-0.3-0.6-0.4-0.9
			c0,0,0,0-0.1,0c0.2,0.8,0.4,1.6,0.5,2.3c-0.3-0.6-0.5-1.3-0.6-2c0,0,0,0-0.1,0c-0.1,0.6-0.1,1.2-0.2,1.8c0,0,0,0-0.1,0
			c0.1-0.7,0.1-1.4,0.2-2.2c-0.3,0.7-0.5,1.5-0.8,2.2c0.2-1,0.5-1.9,1-2.7c0,0,0,0-0.1,0c-0.1,0.2-0.3,0.4-0.4,0.7
			c-0.1,0.2-0.2,0.5-0.4,0.8c-0.1,0.2-0.2,0.5-0.3,0.7c0,0-0.1,0-0.1,0c0.3-0.6,0.5-1.2,0.8-1.9c0,0,0,0,0,0c-0.3,0.5-0.6,1-0.9,1.5
			c0,0,0,0,0-0.1c0.4-0.8,0.7-1.5,1.3-2.1c0.1-0.1,0.1-0.2,0.1-0.3c0,0-0.1,0-0.1,0c-0.5,0.7-0.9,1.3-1.4,2c0.4-0.8,0.8-1.5,1.4-2.1
			C27.7,81.2,27.7,81.1,27.8,81C27.8,81,27.8,81,27.8,81z"/>
		<path class="st1" d="M30.9,69.4c0,0.1,0,0.2,0,0.2c0.2-0.5,0.3-1,0.6-1.4c-0.2,0.5-0.3,1-0.5,1.4c0,0.1,0,0.3,0,0.4c0,0,0,0,0.1,0
			c0.2-0.5,0.4-1,0.5-1.5c0,0,0.1,0,0.1,0c-0.2,0.5-0.4,1-0.5,1.5c0,0.1,0,0.3,0,0.4c0.2-0.4,0.3-1,0.8-1.2c-0.4,0.5-0.7,1-0.8,1.6
			c0,0,0,0,0,0c-0.1-0.1-0.1-0.3-0.2-0.4c-0.4-0.4-0.8-0.8-1.3-1c0.6,0.1,1,0.5,1.3,0.9c-0.1-0.6-0.9-1.2-1.7-1.2
			c0.5-0.1,0.6,0,1.5,0.7c-0.2-0.8-0.7-1.4-1.5-1.7c0.2,0.1,0.3,0.2,0.5,0.2c0.3,0,0.3,0.2,0.6,0.4c0-0.1,0.1-0.2,0.1-0.3
			c-0.1-0.4-0.2-0.8-0.3-1.2c0.3,0.5,0.4,1,0.5,1.6c0-0.4,0.1-0.9,0.1-1.3c0,0,0,0,0,0c0,0.3,0,0.6,0,0.8c0,0.2-0.1,0.5-0.1,0.7
			C30.8,69.3,30.9,69.4,30.9,69.4C30.9,69.4,30.9,69.4,30.9,69.4z"/>
		<path class="st1" d="M22.4,81c0,0.2,0.1,0.3,0.1,0.5c0,0,0,0-0.1,0c0,0,0-0.1-0.1-0.2c0,0.1-0.1,0.1-0.1,0.1c0-0.1,0-0.2,0-0.2
			c0,0,0,0-0.1,0c-0.1,0.2-0.2,0.4-0.3,0.6c0,0,0,0,0,0c0.1-0.1,0.2-0.3,0.4-0.4c0,0.3,0,0.6-0.1,0.9c0,0.1-0.1,0.1-0.2,0.2
			c0,0,0,0,0,0.1c-0.1,0.3-0.2,0.7-0.2,1c0,0.3,0,0.6,0,0.9c0-0.3-0.1-0.7-0.1-1c0,0,0,0-0.1,0c0,0.1,0,0.2,0,0.3
			c0.1-0.8,0-1.6,0.3-2.3C22.1,81.4,22.3,81.2,22.4,81C22.4,81,22.4,81,22.4,81z M21.8,83.4c0.1-0.4,0.3-0.9,0.4-1.3
			C21.9,82.5,21.8,82.9,21.8,83.4z"/>
		<path class="st1" d="M27.8,81c0-0.2-0.1-0.1-0.2,0c-0.4,0.5-0.9,1-1.3,1.5c-0.1,0.1-0.1,0.1-0.2,0.2c0,0,0,0-0.1,0
			c0.2-0.2,0.3-0.5,0.5-0.7c0.3-0.4,0.6-0.9,1.1-1.2c0.1-0.1,0.1-0.2,0.2-0.4c0,0,0,0,0,0c-0.1,0.5,0.2,0.9,0.5,1.3
			c0.2,0.4,0.5,0.7,0.8,1.1c-0.2-0.1-0.3-0.3-0.5-0.4c-0.3-0.4-0.5-0.8-0.8-1.3C27.9,81.1,27.8,81,27.8,81C27.8,81,27.8,81,27.8,81z
			"/>
		<path class="st1" d="M41.8,83.2c0,0.4,0,0.9,0,1.2c0-0.8-0.3-1.6-0.8-2.4c0,0,0,0,0,0c0.1,0.1,0.2,0.2,0.2,0.3c0,0,0,0,0.1,0
			c-0.1-0.2-0.3-0.4-0.4-0.6c0.1,0.1,0.2,0.1,0.3,0.2c0.2,0.3,0.3,0.6,0.5,0.9C41.7,82.8,41.8,83,41.8,83.2z"/>
		<path class="st1" d="M22,73.9c-0.9,0-1.8,0-2.7,0.3C20,73.8,21.6,73.6,22,73.9z"/>
		<path class="st1" d="M22.5,73.7c-0.8,0-1.6,0-2.4,0C20.9,73.4,21.7,73.4,22.5,73.7z"/>
		<path class="st1" d="M28.4,70.2c0.5,0.3,1,0.6,1.2,1.1c-0.1-0.1-0.2-0.1-0.3-0.2c-0.1-0.1-0.3-0.2-0.4-0.3l0,0
			c-0.2-0.2-0.5-0.3-0.7-0.5c-0.2-0.1-0.4-0.2-0.6-0.3C28,70.1,28.2,70.2,28.4,70.2z"/>
		<path class="st1" d="M41.8,83.2c0-0.2-0.1-0.3-0.1-0.5c0-0.1,0-0.2,0-0.2c-0.3-0.5-0.6-0.9-0.8-1.4c0,0,0,0,0,0
			c0.1,0.1,0.3,0.2,0.4,0.3c0.4,0.4,0.6,1,0.7,1.5C41.9,83,41.8,83.1,41.8,83.2z"/>
		<path class="st1" d="M41.1,82.4c0.5,0.9,0.7,1.8,0.5,2.8C41.6,84.3,41.4,83.4,41.1,82.4C41.1,82.5,41.1,82.4,41.1,82.4
			C41.1,82.4,41.1,82.4,41.1,82.4z"/>
		<path class="st1" d="M29.4,71.5c-0.5-0.5-1.1-0.7-1.7-1c0.3,0.1,0.7,0.1,1,0.2c0,0,0,0,0,0c0.1,0,0.1,0.1,0.2,0.1
			C29,71.1,29.2,71.3,29.4,71.5L29.4,71.5z"/>
		<path class="st1" d="M19.4,74.5c0.6-0.3,1.4-0.5,2.2-0.4C20.8,74.2,20.1,74.3,19.4,74.5z"/>
		<path class="st1" d="M28.6,70.8C28.6,70.8,28.6,70.8,28.6,70.8c-0.3-0.2-0.6-0.3-0.9-0.5c0,0,0,0,0,0c0.3,0.1,0.7,0.3,1,0.4
			c0.1,0,0.2,0.1,0.2,0.1c0,0,0,0,0,0c0.2,0.2,0.3,0.5,0.5,0.7l0,0c-0.1-0.1-0.2-0.2-0.2-0.3C29.1,71.1,28.9,70.9,28.6,70.8z"/>
		<path class="st1" d="M29.2,71.6c-0.5-0.3-1.1-0.4-1.7-0.4C28.2,71,28.7,71.1,29.2,71.6z"/>
		<path class="st1" d="M22.2,82.7C22.1,82.6,22.1,82.6,22.2,82.7c0,0,0.1,0.1,0.1,0.2c0,0.2-0.1,0.4-0.1,0.7c0,0,0-0.1,0-0.1
			c0,0,0,0,0,0c0,0.3,0,0.7,0.1,1.1C22,84,22,83.2,22.2,82.7z"/>
		<path class="st1" d="M31.2,71.1c-0.4-0.3-0.8-0.6-1.2-0.9c-0.1,0-0.1,0-0.2-0.1c0,0-0.1,0-0.1-0.1C30.2,70,30.9,70.5,31.2,71.1z"
			/>
		<path class="st1" d="M30.9,69.4c0-0.5,0.1-1,0.3-1.4C31.2,68.5,31.1,68.9,30.9,69.4C30.9,69.4,30.9,69.4,30.9,69.4z"/>
		<path class="st1" d="M42.8,75.3c0.2,0.3,0.3,0.7,0.3,1.1C43,76,42.9,75.6,42.8,75.3C42.8,75.3,42.8,75.3,42.8,75.3z"/>
		<path class="st1" d="M40.8,82.8c-0.1,0.3-0.3,0.6-0.4,0.9c0,0,0,0,0,0C40.5,83.4,40.6,83.1,40.8,82.8
			C40.8,82.8,40.8,82.8,40.8,82.8z"/>
		<path class="st1" d="M30.6,69.3c-0.3-0.2-0.6-0.3-0.9-0.5C30,68.9,30.3,69.1,30.6,69.3z"/>
		<path class="st1" d="M29.8,71.3c0,0,0-0.1,0-0.1l0,0C29.8,71.2,29.9,71.2,29.8,71.3C29.9,71.2,29.9,71.2,29.8,71.3
			C29.9,71.3,29.8,71.3,29.8,71.3L29.8,71.3z"/>
		<path class="st1" d="M29.8,71.2C29.8,71.2,29.8,71.1,29.8,71.2C29.8,71.1,29.8,71.1,29.8,71.2C29.8,71.1,29.8,71.2,29.8,71.2
			L29.8,71.2z"/>
	</g>
	<g>
		<path class="st1" d="M17.6,90.8c0,4,0,8,0,11.9c0,1.2-0.4,1.6-1.6,1.6c-4.8,0-9.6,0-14.3,0c-1.2,0-1.6-0.4-1.6-1.6c0-8,0-16,0-24
			c0-1.2,0.4-1.6,1.6-1.6c4.8,0,9.6,0,14.4,0c1.2,0,1.6,0.4,1.6,1.6C17.6,82.8,17.6,86.8,17.6,90.8z M1.6,89.9c0,2.9,0,5.9,0,8.8
			c0,0.6,0.3,0.9,0.9,0.8c0.5,0,0.7-0.3,0.7-0.9c0-5.8,0-11.6,0-17.3c0-0.1,0-0.2,0-0.3c0-0.4-0.2-0.6-0.6-0.6c-0.7-0.1-1,0.2-1,0.9
			C1.6,84.2,1.6,87.1,1.6,89.9z"/>
		<path class="st1" d="M0,76.6c0-2.8,0-5.7,0-8.6c0-0.8,0.5-1.3,1.4-1.3c2.5,0,5,0,7.5,0c2.4,0,4.8,0,7.1,0c1.1,0,1.5,0.4,1.5,1.5
			c0,2.8,0,5.6,0,8.3c-0.8-0.1-1.5-0.2-2.3-0.2c-4.5,0-9,0-13.5,0C1.2,76.4,0.6,76.5,0,76.6z M1.6,71.5c0,0.8,0,1.7,0,2.5
			c0,0.6,0.2,0.8,0.8,0.8c0.5,0,0.8-0.2,0.8-0.7c0-1.6,0-3.3,0-4.9c0-0.5-0.2-0.7-0.8-0.7c-0.6,0-0.8,0.2-0.8,0.8
			C1.6,70,1.6,70.8,1.6,71.5z"/>
		<path class="st1" d="M16.7,105.2c-0.3,0.6-0.7,0.8-1.3,0.8c-1.5,0-3.1,0-4.6,0c-2.8,0-5.7,0-8.5,0c-0.7,0-1.1-0.2-1.3-0.8
			C6.2,105.2,11.4,105.2,16.7,105.2z"/>
	</g>
	<g>
		<path class="st1" d="M39.6,98.2c0.1-0.5,0.3-0.9,0.7-1.2c0.3-0.2,0.5-0.3,0.9-0.3c0.9,0,1.9,0,2.9,0c0,0.4,0,0.9,0,1.3
			c0.4,0,0.8,0,1.2,0c0-0.4,0-0.8,0-1.3c0.1,0,0.1,0,0.2,0c0.8,0,1.6,0,2.4,0c1.1,0,1.8,0.7,1.8,1.9c0,1.9,0,3.7,0,5.6
			c0,1.1-0.7,1.9-1.9,1.9c-2.1,0-4.2,0-6.3,0c-1,0-1.8-0.6-1.9-1.5c0,0,0,0,0-0.1C39.6,102.4,39.6,100.3,39.6,98.2z M42.1,104.1
			c1.6,0,3.3,0,4.9,0c0-0.2,0-0.4,0-0.6c-1.6,0-3.3,0-4.9,0C42.1,103.7,42.1,103.9,42.1,104.1z M43.4,102.3c0-0.6,0-1.3,0-1.9
			c0.3,0,0.6,0,0.9,0c-0.4-0.5-0.8-1-1.2-1.5c-0.4,0.5-0.8,1-1.2,1.5c0.3,0,0.6,0,0.9,0c0,0.6,0,1.3,0,1.9
			C42.9,102.3,43.1,102.3,43.4,102.3z M46.2,99c-0.4,0.5-0.8,1-1.2,1.5c0.3,0,0.6,0,0.9,0c0,0.6,0,1.3,0,1.9c0.2,0,0.5,0,0.7,0
			c0-0.6,0-1.3,0-1.9c0.3,0,0.6,0,0.9,0C47,99.9,46.6,99.5,46.2,99z"/>
		<path class="st1" d="M61,104.4c-0.1,0.3-0.2,0.6-0.3,0.8c-0.3,0.5-0.8,0.7-1.4,0.7c-2.2,0-4.4,0-6.6,0c-1,0-1.7-0.7-1.7-1.7
			c0-1.9,0-3.9,0-5.8c0-1,0.7-1.7,1.7-1.7c0.9,0,1.7,0,2.6,0c0,0,0.1,0,0.1,0c0,0.4,0,0.9,0,1.3c0.4,0,0.8,0,1.2,0
			c0-0.4,0-0.8,0-1.3c0.1,0,0.2,0,0.2,0c0.8,0,1.5,0,2.3,0c1,0,1.7,0.6,1.9,1.5c0,0,0,0,0,0C61,100.3,61,102.4,61,104.4z
			 M58.4,104.1c0-0.2,0-0.4,0-0.6c-1.6,0-3.2,0-4.9,0c0,0.2,0,0.4,0,0.6C55.2,104.1,56.8,104.1,58.4,104.1z M53.2,100.4
			c0.3,0,0.6,0,0.9,0c0,0.6,0,1.3,0,1.9c0.2,0,0.4,0,0.7,0c0-0.6,0-1.2,0-1.9c0.3,0,0.6,0,0.9,0c-0.4-0.5-0.8-1-1.2-1.5
			C54,99.5,53.6,99.9,53.2,100.4z M57.6,99c-0.4,0.5-0.8,1-1.2,1.5c0.3,0,0.6,0,0.9,0c0,0.7,0,1.3,0,1.9c0.2,0,0.5,0,0.7,0
			c0-0.6,0-1.3,0-1.9c0.3,0,0.6,0,0.9,0C58.4,99.9,58,99.5,57.6,99z"/>
		<path class="st1" d="M49.4,87c0.4,0,0.8,0,1.2,0c0-0.4,0-0.8,0-1.3c0.1,0,0.2,0,0.2,0c0.8,0,1.5,0,2.3,0c1.1,0,1.9,0.7,1.9,1.9
			c0,1.9,0,3.7,0,5.6c0,1.1-0.7,1.9-1.9,1.9c-2.1,0-4.2,0-6.3,0c-0.9,0-1.6-0.5-1.8-1.3c0-0.2-0.1-0.4-0.1-0.5c0-1.9,0-3.7,0-5.6
			c0-1.1,0.7-1.8,1.8-1.8c0.8,0,1.7,0,2.6,0C49.4,86.1,49.4,86.6,49.4,87z M48.4,88c-0.4,0.5-0.8,1-1.2,1.5c0.3,0,0.6,0,0.9,0
			c0,0.6,0,1.3,0,1.9c0.2,0,0.4,0,0.7,0c0-0.6,0-1.2,0-1.9c0.3,0,0.6,0,0.9,0C49.2,89,48.8,88.5,48.4,88z M51.9,91.4
			c0-0.6,0-1.3,0-1.9c0.3,0,0.6,0,0.9,0c-0.4-0.5-0.8-1-1.2-1.5c-0.4,0.5-0.8,1-1.2,1.5c0.3,0,0.6,0,0.9,0c0,0.6,0,1.3,0,1.9
			C51.5,91.4,51.7,91.4,51.9,91.4z M47.5,93.2c1.6,0,3.3,0,4.9,0c0-0.2,0-0.4,0-0.6c-1.6,0-3.3,0-4.9,0C47.5,92.8,47.5,93,47.5,93.2
			z"/>
	</g>
</g>
</svg>
