<?xml version="1.0" encoding="utf-8"?>
<!-- Generator: Adobe Illustrator 20.1.0, SVG Export Plug-In . SVG Version: 6.00 Build 0)  -->
<svg version="1.1" id="Слой_1" xmlns="http://www.w3.org/2000/svg" xmlns:xlink="http://www.w3.org/1999/xlink" x="0px" y="0px"
	 viewBox="0 0 80 80" style="enable-background:new 0 0 80 80;" xml:space="preserve">
<style type="text/css">
	.st0{fill:#FFFFFF;stroke:#FF0000;stroke-width:2.961;stroke-miterlimit:10;}
</style>
<path class="st0" d="M76,78H3.9c-1,0-1.9-0.9-1.9-1.9V4c0-1,0.9-1.9,1.9-1.9H76c1,0,1.9,0.9,1.9,1.9v72.1C77.9,77.1,77,78,76,78z"/>
<path d="M72.9,33.9c0-2.5-1.8-4.1-4.3-4.2c-0.5,0-0.9,0-1.5,0c0-0.3,0-0.6,0-0.8c0-2.4,0-4.8,0-7.2c0-0.7-0.2-1.3-0.7-1.8
	c-4.5-5-8.9-10.1-13.4-15.1c-0.3-0.4-0.7-0.7-1.1-1c-11.9,0-23.9,0-35.8,0c-1.8,0.6-2.3,1.9-2.3,3.7c0,7.1,0,14.2,0,21.3
	c0,0.3,0,0.6,0,0.9c-0.5,0-1,0-1.5,0C9.8,29.8,8,31.4,8,34c0,6.9,0,13.8,0,20.8c0,2.5,1.7,4.2,4.3,4.2c0.5,0,0.9,0,1.5,0
	c0,0.3,0,0.6,0,0.8c0,4.2,0,8.5,0,12.7c0,1.8,0.5,3.1,2.3,3.7c16.2,0,32.5,0,48.7,0c1.8-0.6,2.3-1.9,2.3-3.7c-0.1-4.2,0-8.4,0-12.6
	c0-0.3,0-0.6,0-0.9c0.5,0,1,0,1.5,0c2.6,0,4.3-1.7,4.3-4.2C73,47.8,73,40.9,72.9,33.9z M16.7,6.8c11.1,0,22.2,0,33.3,0
	c0,0.3,0,0.5,0,0.8c0,4.4,0,8.8,0,13.2c0,1.4,0.5,1.9,1.9,1.9c3.8,0,7.5,0,11.3,0c0.3,0,0.5,0,0.8,0c0,2.4,0,4.7,0,7
	c-15.8,0-31.5,0-47.4,0C16.7,22,16.7,14.4,16.7,6.8z M55.6,37.3c-0.1-0.3-0.3-0.4-0.7-0.4c-0.3,0-0.6,0.1-0.7,0.4
	c-0.1,0.3-0.2,0.9-0.2,2v10c0,0.9,0.1,1.5,0.2,1.8c0.1,0.3,0.4,0.4,0.7,0.4c0.4,0,0.7-0.2,0.8-0.5c0.1-0.3,0.2-1,0.2-2v-2.5h-1.1
	v-3.2h6.4v11.1h-3.4L57.3,53c-0.4,0.6-0.8,1.1-1.4,1.4c-0.6,0.3-1.2,0.5-2,0.5c-0.9,0-1.8-0.2-2.6-0.7c-0.8-0.4-1.4-1-1.8-1.6
	s-0.7-1.3-0.8-2.1c-0.1-0.7-0.1-1.8-0.1-3.2v-6.2c0-2,0.1-3.4,0.3-4.3c0.2-0.9,0.8-1.7,1.9-2.5c1-0.8,2.4-1.1,4-1.1
	c1.6,0,2.9,0.3,4,1c1.1,0.7,1.7,1.4,2.1,2.3s0.5,2.2,0.5,3.9v0.9h-5.5v-1.9C55.8,38.3,55.8,37.6,55.6,37.3z M46.5,33.7l-2.8,20.8
	h-8.3l-3.2-20.8H38c0.7,5.7,1.1,10.6,1.4,14.5c0.3-4,0.6-7.6,0.9-10.7l0.4-3.9H46.5z M23.4,51.1c0.1,0.2,0.4,0.3,0.8,0.3
	c0.4,0,0.6-0.1,0.8-0.4c0.2-0.3,0.3-0.7,0.3-1.3c0-1.2-0.2-2-0.5-2.4c-0.3-0.4-1.2-1-2.6-1.9c-1.4-0.9-2.3-1.5-2.7-1.9
	c-0.4-0.4-0.8-1-1.1-1.7c-0.3-0.7-0.4-1.6-0.4-2.7c0-1.6,0.2-2.8,0.6-3.5s1.1-1.3,2-1.7c0.9-0.4,2-0.6,3.3-0.6
	c1.4,0,2.6,0.2,3.6,0.7c1,0.5,1.7,1,2,1.7s0.5,1.9,0.5,3.5V40h-5.1v-1.5c0-0.7-0.1-1.2-0.2-1.4c-0.1-0.2-0.3-0.3-0.6-0.3
	c-0.3,0-0.6,0.1-0.7,0.4S23,37.8,23,38.3c0,0.7,0.1,1.2,0.3,1.6c0.2,0.3,0.7,0.8,1.5,1.3c2.4,1.4,4,2.6,4.6,3.5s0.9,2.4,0.9,4.4
	c0,1.5-0.2,2.6-0.5,3.3c-0.3,0.7-1,1.3-2,1.8c-1,0.5-2.2,0.7-3.5,0.7c-1.5,0-2.7-0.3-3.7-0.8c-1-0.5-1.7-1.2-2-2.1
	c-0.3-0.9-0.5-2.1-0.5-3.6V47h5.1v2.5C23.1,50.4,23.2,50.9,23.4,51.1z M63.4,72.6c-15.3,0-30.6,0-46,0c-0.4,0-0.8,0-0.8-0.6
	c0-4.2,0-8.4,0-12.6c0-0.1,0-0.2,0-0.4c15.8,0,31.6,0,47.4,0c0,0.2,0,0.5,0,0.7c0,4.1,0,8.1,0,12.2C64.2,72.5,64,72.6,63.4,72.6z"/>
</svg>
