<?xml version="1.0" encoding="utf-8"?>
<!-- Generator: Adobe Illustrator 19.0.1, SVG Export Plug-In . SVG Version: 6.00 Build 0)  -->
<svg version="1.1" id="Слой_1" xmlns="http://www.w3.org/2000/svg" xmlns:xlink="http://www.w3.org/1999/xlink" x="0px" y="0px"
	 viewBox="0 0 34 23" style="enable-background:new 0 0 34 23;" xml:space="preserve">
<style type="text/css">
	.st0{fill:#FFFFFF;}
</style>
<path class="st0" d="M27.5,22.5h-21v-5.4c0-0.8,0.3-1.6,0.9-2.3l4.1-5.9V6h4v2.5h3V6h4v2.8l4.1,6c0.5,0.6,0.9,1.4,0.9,2.3V22.5z
	 M7.5,21.5h19v-4.4c0-0.6-0.2-1.2-0.6-1.6l-4.4-6.3V7h-2v2.5h-5V7h-2v2.1l-4.3,6.2c-0.5,0.5-0.7,1.1-0.7,1.7V21.5z"/>
<path class="st0" d="M30.4,2.6C27.7,0,6.3,0,3.6,2.6C1.7,4.6,0.2,7.6,1,9.6c0.4,0.9,1.3,1.9,4,1.9c2.9,0,4.5-1.4,4.5-4
	c0-2.3,3.8-3.6,7.5-3.6c2,0,3.9,0.3,5.3,1c1,0.5,2.2,1.3,2.2,2.6c0,3.4,1.3,4,4.5,4c2.6,0,3.5-1.1,3.9-1.9
	C33.8,7.5,32.3,4.6,30.4,2.6z M5,10.5c-1.6,0-2.7-0.4-3-1.3C1.7,8.6,1.8,7.7,2.1,6.9c1.2,0.9,2.4,1.4,3.8,1.4c0.8,0,1.7-0.2,2.6-0.5
	C8.4,9.6,7.3,10.5,5,10.5z M22.7,4c-1.5-0.7-3.5-1.1-5.7-1.1c-3.7,0-7.6,1.2-8.4,3.7C6.2,7.7,4.4,7.5,2.5,5.9C3,5,3.6,4.1,4.4,3.4
	c2.2-2.2,23-2.2,25.3,0C30.4,4.1,31,5,31.5,5.9c-2.3,1.9-4.4,1.4-6.1,0.7C25,5.5,24.2,4.6,22.7,4z M32,9.2c-0.4,0.9-1.4,1.3-3,1.3
	c-2.9,0-3.5-0.4-3.5-2.7c0.8,0.3,1.7,0.5,2.6,0.5c1.2,0,2.5-0.4,3.8-1.4C32.2,7.7,32.2,8.6,32,9.2z"/>
<g>
	<rect x="16" y="11" class="st0" width="2" height="2"/>
	<rect x="13" y="11" class="st0" width="2" height="2"/>
	<rect x="19" y="11" class="st0" width="2" height="2"/>
	<rect x="16" y="14" class="st0" width="2" height="2"/>
	<rect x="13" y="14" class="st0" width="2" height="2"/>
	<rect x="19" y="14" class="st0" width="2" height="2"/>
	<rect x="16" y="17" class="st0" width="2" height="2"/>
	<rect x="13" y="17" class="st0" width="2" height="2"/>
	<rect x="19" y="17" class="st0" width="2" height="2"/>
</g>
</svg>
