<?xml version="1.0" encoding="utf-8"?>
<!-- Generator: Adobe Illustrator 19.0.1, SVG Export Plug-In . SVG Version: 6.00 Build 0)  -->
<svg version="1.1" id="Слой_1" xmlns="http://www.w3.org/2000/svg" xmlns:xlink="http://www.w3.org/1999/xlink" x="0px" y="0px"
	 viewBox="0 0 30 20" style="enable-background:new 0 0 30 20;" xml:space="preserve">
<style type="text/css">
	.st0{fill:#FFFFFF;}
</style>
<path class="st0" d="M0,2v16c0,1.1,0.9,2,2,2h26c1.1,0,2-0.9,2-2V2c0-1.1-0.9-2-2-2H2C0.9,0,0,0.9,0,2z M17.1,12.5
	c-1.2,1.2-3.1,1.2-4.2,0L2.4,2h25.2L17.1,12.5z M8.6,11L2,17.6V4.4L8.6,11z M10,12.4l1.5,1.5c1,1,2.3,1.5,3.5,1.5s2.6-0.5,3.5-1.5
	l1.5-1.5l5.6,5.6H4.4L10,12.4z M21.4,11L28,4.4v13.2L21.4,11z"/>
</svg>
