<?xml version="1.0" encoding="utf-8"?>
<!-- Generator: Adobe Illustrator 19.0.1, SVG Export Plug-In . SVG Version: 6.00 Build 0)  -->
<svg version="1.1" id="Слой_1" xmlns="http://www.w3.org/2000/svg" xmlns:xlink="http://www.w3.org/1999/xlink" x="0px" y="0px"
	 viewBox="0 0 36 22" style="enable-background:new 0 0 36 22;" xml:space="preserve">
<style type="text/css">
	.st0{fill:#FFFFFF;}
</style>
<g>
	<path class="st0" d="M28,22H8v-6c0-0.4,0.1-0.9,0.4-1.2l2.6-3.5V7h14v4.4l2.6,3.5c0.3,0.3,0.4,0.8,0.4,1.2V22z M10,20h16v-3.3
		c0-0.4-0.1-0.9-0.4-1.2L23,12V9H13v3l-2.6,3.5c-0.3,0.3-0.4,0.8-0.4,1.2V20z"/>
</g>
<g>
	<path class="st0" d="M32.5,3.3C30.4,1.2,25,0.2,18,0.1c0,0,0,0,0,0c0,0,0.2,0,0,0c-0.2,0,0,0,0,0c0,0,0,0,0,0
		c-7,0-12.4,1.1-14.5,3.2C1.8,5.1,0.1,7.8,1.1,9.6c0.5,1,1.6,1.5,3.2,1.5c0.6,0,1.2-0.1,1.9-0.2C10,10.3,10,8.1,10,7
		c0-0.8,2.9-1.9,7.5-2c0,0,0,0,0,0c0.2,0,0.3,0,0.5,0s0.3,0,0.5,0c0,0,0,0,0,0C23.1,5.1,26,6.2,26,7c0,1.1,0,3.3,3.8,4
		c0.7,0.1,1.4,0.2,1.9,0.2c1.7,0,2.6-0.5,3.2-1.5C35.9,7.8,34.2,5.1,32.5,3.3z M33.3,8.7c-0.2,0.4-1.1,0.6-3.1,0.3
		C28,8.6,28,7.9,28,7.1c0-3-5.2-4.1-10-4.1S8,4.1,8,7.1C8,7.9,8,8.6,5.8,9c-2,0.3-2.9,0.1-3.1-0.3c-0.3-0.6,0.7-2.5,2.2-4
		C6.6,3,12,2.1,18,2.1c0,0,0,0,0,0c0,0-0.2,0,0,0s0,0,0,0c0,0,0,0,0,0c6,0,11.4,0.9,13.1,2.6C32.6,6.2,33.6,8.1,33.3,8.7z"/>
</g>
<g>
	<rect x="17" y="16" class="st0" width="2" height="2"/>
</g>
<g>
	<rect x="14" y="16" class="st0" width="2" height="2"/>
</g>
<g>
	<rect x="20" y="16" class="st0" width="2" height="2"/>
</g>
<g>
	<rect x="17" y="13" class="st0" width="2" height="2"/>
</g>
<g>
	<rect x="14" y="13" class="st0" width="2" height="2"/>
</g>
<g>
	<rect x="20" y="13" class="st0" width="2" height="2"/>
</g>
<g>
	<rect x="17" y="10" class="st0" width="2" height="2"/>
</g>
<g>
	<rect x="14" y="10" class="st0" width="2" height="2"/>
</g>
<g>
	<rect x="20" y="10" class="st0" width="2" height="2"/>
</g>
</svg>
