<?xml version="1.0" encoding="utf-8"?>
<!-- Generator: Adobe Illustrator 19.0.1, SVG Export Plug-In . SVG Version: 6.00 Build 0)  -->
<svg version="1.1" id="Слой_1" xmlns="http://www.w3.org/2000/svg" xmlns:xlink="http://www.w3.org/1999/xlink" x="0px" y="0px"
	 viewBox="0 0 500 500" style="enable-background:new 0 0 500 500;" xml:space="preserve">
<style type="text/css">
	.st0{fill:#FFFFFF;stroke:#FF0000;stroke-width:20;stroke-miterlimit:10;}
</style>
<path class="st0" d="M478,490H22c-6.6,0-12-5.4-12-12V22c0-6.6,5.4-12,12-12h456c6.6,0,12,5.4,12,12v456
	C490,484.6,484.6,490,478,490z"/>
<path d="M445.1,212.7c-0.1-15.4-10.7-25.2-26.1-25.4c-2.8,0-5.7,0-9.1,0c0-1.9,0-3.4,0-4.9c0-14.6,0-29.2,0-43.9
	c0-4.2-1.2-7.7-4-10.9C379,97,352.3,66.3,325.4,35.7c-1.9-2.2-4.3-4-6.5-6c-71.7,0-143.4,0-215.1,0C93.1,33.6,89.9,41.5,90,52.3
	c0.3,43.2,0.1,86.3,0.1,129.5c0,1.7,0,3.4,0,5.5c-3.3,0-6.1,0-8.9,0C65.6,187.4,55,197.4,54.9,213c-0.2,42.2-0.2,84.3,0,126.5
	c0.1,15.4,10.5,25.3,25.9,25.7c2.9,0.1,5.7,0,9.3,0c0,1.8,0,3.5,0,5.1c0,25.8,0.2,51.6-0.1,77.4c-0.2,10.8,3.1,18.7,13.7,22.6
	c97.5,0,195.1,0,292.6,0c10.6-3.9,13.9-11.8,13.7-22.5c-0.4-25.7-0.1-51.3-0.1-77c0-1.7,0-3.4,0-5.6c3.3,0,6.3,0.1,9.2,0
	c15.4-0.3,25.9-10.2,25.9-25.6C445.3,297.3,445.4,255,445.1,212.7z M107.6,47.2c66.7,0,133.1,0,200,0c0,1.7,0,3.3,0,4.8
	c0,26.8,0,53.6,0,80.5c0,8.7,3,11.6,11.7,11.6c22.7,0,45.3,0,68,0c1.6,0,3.1,0,5,0c0,14.4,0,28.5,0,42.9c-94.8,0-189.5,0-284.7,0
	C107.6,140.3,107.6,93.9,107.6,47.2z M341.3,233c-0.6-1.8-2.1-2.7-4.5-2.7c-2,0-3.4,0.8-4.1,2.3c-0.7,1.6-1.1,5.6-1.1,12v60.7
	c0,5.7,0.4,9.4,1.1,11.2c0.7,1.8,2.2,2.7,4.4,2.7c2.4,0,4-1,4.9-3s1.3-6,1.3-11.9v-15h-6.6v-19.2h38.5V338h-20.7l-3-9.1
	c-2.2,3.9-5.1,6.8-8.5,8.8c-3.4,2-7.4,2.9-12.1,2.9c-5.5,0-10.7-1.3-15.5-4s-8.5-6-11-10c-2.5-4-4.1-8.1-4.7-12.5
	c-0.6-4.3-0.9-10.9-0.9-19.6v-37.6c0-12.1,0.7-20.9,2-26.3c1.3-5.5,5-10.5,11.2-15c6.2-4.6,14.2-6.8,23.9-6.8c9.6,0,17.6,2,24,5.9
	c6.4,4,10.5,8.7,12.4,14.1c1.9,5.4,2.9,13.3,2.9,23.7v5.5h-32.9v-11.5C342.3,239.4,342,234.8,341.3,233z M286.2,211.5L269.4,338h-50
	l-19-126.5h34.7c4,34.8,6.9,64.3,8.6,88.4c1.7-24.4,3.5-46,5.4-64.9l2.3-23.5H286.2z M147.3,317.2c0.9,1.4,2.4,2,4.6,2
	s3.8-0.9,4.9-2.6c1.1-1.7,1.6-4.3,1.6-7.7c0-7.4-1-12.3-3-14.6c-2.1-2.3-7.2-6.1-15.4-11.5c-8.2-5.4-13.6-9.3-16.3-11.8
	c-2.7-2.4-4.9-5.8-6.6-10.2c-1.7-4.3-2.6-9.8-2.6-16.6c0-9.7,1.2-16.8,3.7-21.3c2.5-4.5,6.5-8,12-10.5c5.5-2.5,12.2-3.8,20-3.8
	c8.5,0,15.8,1.4,21.8,4.1c6,2.8,10,6.2,12,10.4c2,4.2,2.9,11.3,2.9,21.4v5h-30.5v-9.4c0-4.4-0.4-7.2-1.2-8.4
	c-0.8-1.2-2.1-1.8-3.9-1.8c-2,0-3.5,0.8-4.5,2.4s-1.5,4.1-1.5,7.3c0,4.2,0.6,7.4,1.7,9.5c1.1,2.1,4.2,4.7,9.3,7.7
	c14.6,8.7,23.9,15.8,27.7,21.4c3.8,5.6,5.7,14.6,5.7,27c0,9-1.1,15.7-3.2,19.9c-2.1,4.3-6.2,7.9-12.2,10.7c-6,2.9-13.1,4.3-21.1,4.3
	c-8.8,0-16.3-1.7-22.5-5c-6.2-3.3-10.3-7.6-12.2-12.7c-1.9-5.2-2.9-12.5-2.9-22v-8.3H146v15.4C146,312.8,146.5,315.9,147.3,317.2z
	 M388.1,448.4c-92-0.1-184.1-0.1-276.1-0.1c-2.5,0-4.7,0.3-4.7-3.6c0.1-25.7,0.1-51.3,0.1-77c0-0.7,0.1-1.4,0.2-2.5
	c95.1,0,189.7,0,284.8,0c0.1,1.5,0.2,2.8,0.2,4.2c0,24.8-0.1,49.6,0.1,74.4C392.8,447.6,391.6,448.4,388.1,448.4z"/>
</svg>
