<?xml version="1.0" encoding="utf-8"?>
<!-- Generator: Adobe Illustrator 23.0.2, SVG Export Plug-In . SVG Version: 6.00 Build 0)  -->
<svg version="1.1" id="Слой_1" xmlns="http://www.w3.org/2000/svg" xmlns:xlink="http://www.w3.org/1999/xlink" x="0px" y="0px"
	 viewBox="0 0 64 52" style="enable-background:new 0 0 64 52;" xml:space="preserve">
<style type="text/css">
	.st0{fill:#858585;}
</style>
<g>
	<path class="st0" d="M26.5,30.6c-0.1-0.1-0.2-0.2-0.3-0.3c-1.4-1.4-2.7-2.7-4.1-4.1c-0.7-0.7-1.5-1.4-2.3-2.2
		c-0.2-0.2-0.5-0.3-0.8-0.2c-0.4,0.1-0.6,0.8-0.3,1.1c0.3,0.3,0.6,0.7,1,1c1.7,1.7,3.6,3.6,5.5,5.5c0.1,0.1,0.2,0.2,0.3,0.3
		C25.8,31.5,26.2,31.1,26.5,30.6z"/>
	<path class="st0" d="M29.5,25.5c-2.2-2.2-4.5-4.5-6.7-6.7c-0.1-0.1-0.2-0.1-0.3-0.2c0.1-0.1,0.1-0.2,0.2-0.2c0.5-0.5,1-1,1.4-1.5
		c0.3-0.4,0.5-0.8,0.3-1.3c-0.1-0.4-0.2-0.8-0.4-1.2c-0.5-1.2-1-2.5-1.6-3.7c-0.1-0.2-0.1-0.3,0.1-0.5c0.6-0.5,1.1-1.2,1.7-1.6
		c2.4-1.9,5.1-3.1,8.1-3.9c0.3-0.1,0.5-0.1,0.8-0.2c0.3-0.1,0.5-0.4,0.6-0.7s-0.2-0.5-0.4-0.7c-0.1,0-0.1-0.1-0.2-0.1
		C31.7,2.2,28,1.4,27,1.3c-1.4-0.2-6.3,0-8.9,3.1c-1.8,1.7-3.6,3.5-5.4,5.2c-1.9,1.9-3.8,3.9-5.7,5.9c-0.3,0.3-0.4,0.7-0.3,1.1
		c0.1,0.2,0.1,0.4,0.2,0.6c0.3,0.5,0.5,1.1,0.8,1.6c0.1,0.2,0.1,0.3-0.1,0.5c-0.5,0.5-0.5,0.5-1,0.2c-0.6-0.3-1.2-0.6-1.8-0.8
		c-0.4-0.2-0.9-0.1-1.3,0.2c-1.1,1.1-2.2,2.2-3.4,3.4c0,0.1-0.1,0.4-0.1,0.6c0,0.5,0.2,0.9,0.6,1.3c1.5,1.5,3,3.1,4.5,4.6
		c0.9,0.9,1.7,1.7,2.6,2.5c0.4,0.4,0.8,0.5,1.3,0.3c0.3-0.1,0.6-0.3,0.8-0.5c0.8-0.8,1.6-1.5,2.4-2.3c0.2-0.2,0.4-0.5,0.6-0.7
		c0.3-0.4,0.4-0.9,0.2-1.5c-0.2-0.5-0.5-1-0.7-1.5c-0.1-0.2-0.3-0.5-0.3-0.7s0.3-0.4,0.5-0.6c0.1-0.2,0.2-0.1,0.4-0.1
		c0.6,0.3,1.2,0.6,1.8,0.9s1.2,0.2,1.7-0.3c0.8-0.8,1.6-1.5,2.4-2.3c0.4-0.4,0.8-0.8,1.1-1.2c0.4-0.5,0.1-1.1-0.5-1.2
		c-0.3,0-0.6,0.1-0.8,0.3c-1,1-2,2-3,3c-0.1,0.1-0.2,0.2-0.4,0.1c-0.8-0.4-1.6-0.8-2.3-1.1c-0.4-0.2-0.7-0.1-1,0.2
		c-0.5,0.5-0.9,1-1.4,1.4c-0.3,0.3-0.4,0.7-0.2,1.1c0,0.1,0.1,0.2,0.1,0.2c0.3,0.7,0.7,1.4,1,2.1c0.1,0.1,0.1,0.2,0,0.3
		C10.6,28,9.8,28.8,9,29.5c-0.4,0.4-0.4,0.4-0.8,0c-2.2-2.1-4.3-4.3-6.5-6.4L1.6,23c0,0,0,0,0-0.1c0.9-0.9,1.8-1.8,2.7-2.7
		c0.1,0,0.2-0.1,0.3,0c0.3,0.2,0.7,0.3,1,0.5c0.5,0.2,1,0.5,1.5,0.7c0.3,0.1,0.5,0.1,0.7-0.1c0.5-0.4,0.9-0.9,1.4-1.3
		s0.6-0.9,0.3-1.5s-0.6-1.3-1-2c-0.1-0.2-0.1-0.3,0.1-0.5c1.5-1.5,3-3.1,4.6-4.6c1.9-1.9,3.9-3.8,5.9-5.7c1.1-1.1,2.2-1.8,3.6-2.4
		c3.2-1,6.1-0.3,7.4,0.2c0,0-4.4,1.5-6.7,3.4c-1.1,0.8-2,1.7-2.8,2.8c-0.2,0.3-0.2,0.5-0.1,0.8c0.7,1.6,1.4,3.3,2.1,4.9
		c0.1,0.2,0.1,0.4-0.1,0.6c-0.5,0.5-1,1-1.5,1.5c-0.2,0.2-0.3,0.4-0.5,0.6s-0.2,0.4,0,0.6c0.3,0.3,0.6,0.6,0.9,0.9
		c2.3,2.3,4.6,4.6,6.9,7C28.8,26.3,29.2,25.9,29.5,25.5z"/>
	<path class="st0" d="M48.4,44.4c-0.5-0.6-1.1-1.1-1.6-1.7c-3-3-6.1-6.1-9.1-9.1c-0.6,0.2-1.2,0.3-1.8,0.5
		c3.3,3.3,13.4,12.5,13.1,13.3c-0.5,1.2-1.9,2-2.8,2.1c-1,0.2-4.8-4.3-6.1-5.6c-2.2-2.2-4.4-4.4-6.6-6.6C33.1,37.8,32.5,38,32,38
		c-0.1,0-0.2,0-0.2,0s3.4,3.4,5.1,5.1c2.1,2.1,4.2,4.1,6.3,6.2c0.5,0.5,1.6,1.5,2.7,1.5c2,0,3.1-1.4,4.3-2.8
		C51.2,46.9,48.8,44.9,48.4,44.4z"/>
</g>
<g>
	<path class="st0" d="M13.3,46.1c0.1-0.1,11.5-15.4,17.8-23.7c2.7-3.6,5.4-7.2,8.1-10.8c0.6-0.7,1.2-1.4,2-2c0.4-0.3,0.8-0.7,1-1.2
		c0.1-0.3,0.2-0.5,0.4-0.8c1-2,2.5-3.9,4.4-5.6c0.3-0.2,0.6-0.5,1-0.6c1.4-0.4,2.5-0.2,2.4,1.2c0,0.5-0.1,1-0.2,1.6
		c-0.1,0.9,0,1.2,1.3,1.2c0.2,0,0.4,0,0.6,0c0.3,0,0.7-0.1,1-0.1C54.5,5,56,5,57.3,5.5c0.6,0.3,1.3,0.5,2,0.7c0.1,0,0.3,0,0.5,0
		c0.5-0.1,0.9-0.3,1.4-0.5c1.4-0.5,2.4,0,2.7,0.6c0,0,0,0.1,0.1,0.1c0,0.2,0.1,0.5,0.1,0.7C64,7.8,63.6,8.4,63,9
		c-0.4,0.4-0.7,0.8-1,1.3c-0.5,0.8-0.9,1.6-1.4,2.5C60,13.9,59.3,15,58.4,16c-0.9,1.1-2,2-3.4,2.6c-0.2,0.1-0.3,0.2-0.3,0.4
		c-0.1,0.7-0.4,2.5-0.5,2.7c-1.4,0.3-2.8,0.6-4.1,0.8c0,0.1,0.1,2.4,0.1,2.4l-4.6,1L45,29l-4.4,0.8L40.3,33c0,0-3.3,0.9-4,1
		c-0.2,1.2-0.6,2.6-0.8,3.7c-0.1,0-4,0.7-4,0.7l-0.7,3.8l-4.3,0.7L26,46.8l-4.4,0.3c0,0-0.3,3.6-0.4,3.7
		C21.1,50.7,13.3,46.2,13.3,46.1z M20,48.2l0.3-2.2l4.4-0.5l0.7-3.8l4.3-0.7l0.6-3.7l4-0.8l0.7-3.6l3.7-0.8l0.6-3.5l4.3-0.8l0.7-3.1
		l4.2-0.9v-2.3l4.3-1c0-0.2,0-1,0-1.2s-0.1-0.3-0.4-0.2c-1.9,0.3-3.9,0.7-5.8,1c-2,0.3-4,0.7-6.1,1c-1.1,0.2-2.1,0.1-2.9-0.1
		c-0.8-0.3-1.6-0.5-2.4-0.8c-0.1,0-0.2-0.1-0.4-0.1c-6.7,8.8-12.6,16.6-19.3,25.4L20,48.2z M48.2,3.8c0-0.3,0.1-0.5,0.1-0.8
		c0-0.2-0.1-0.2-0.3,0s-0.5,0.4-0.7,0.7c-1.4,1.5-2.5,3-3.3,4.7c-0.4,0.9-1,1.7-1.9,2.4c-0.4,0.3-0.8,0.7-1.1,1.1
		c-1.6,2.2-3.1,4.4-4.6,6.5c-0.1,0.1-0.2,0.3,0,0.3c1,0.5,2,0.9,3.2,1c0.8,0.1,1.7-0.1,2.7-0.3c3.7-0.7,7.5-1.3,11.2-2
		c0.8-0.1,1.6-0.3,2.3-0.9c0.4-0.3,0.7-0.7,1.1-1.1c0.8-0.9,1.3-1.8,1.9-2.8c0.3-0.5,0.6-1.1,0.9-1.6c0.5-0.9,1.1-1.8,1.9-2.7
		c0.1-0.1,0.2-0.3,0.3-0.4c0.3-0.4,0.1-0.7-0.4-0.6c-0.4,0.1-0.8,0.2-1.2,0.3c-0.2,0.1-0.5,0.2-0.7,0.2c-0.4,0.1-0.8,0.2-1.2,0.1
		c-1-0.3-2.1-0.6-3.1-0.9c-1.1-0.3-2.3-0.3-3.6,0c-0.9,0.2-1.8,0.2-2.4-0.1C48.6,6.6,47.9,5.9,48.2,3.8z"/>
	<path class="st0" d="M52.4,15.7c-1.8,0.5-3.6,0.7-5.4,0.8c-1.1,0.1-2.1,0.1-3.1-0.1c-2.4-0.4-2.6-3-0.4-5.1c1.1-1,2.4-1.6,3.7-1.5
		c2.1,0.2,4.3,0.2,6.7-0.2c1.5-0.2,2.4,0.3,2.7,1.4c0.4,1.4-1,3.4-2.9,4.2C53.2,15.5,52.8,15.6,52.4,15.7z M54.6,12.4
		c0.1-0.6-0.2-1-0.8-1c-0.3,0-0.6,0-1,0.1c-2,0.3-4,0.3-5.9,0.1c-0.2,0-0.4,0-0.7,0c-1,0-1.9,0.7-2.3,1.6c-0.3,0.8,0,1.4,0.9,1.6
		c0.6,0.1,1.3,0.1,2,0.1c2-0.1,4-0.3,6.1-0.9c0.1,0,0.2-0.1,0.2-0.1C53.9,13.6,54.5,13,54.6,12.4z"/>
</g>
</svg>
