<?xml version="1.0" encoding="utf-8"?>
<svg version="1.1" width="1em" height="1em" xmlns="http://www.w3.org/2000/svg" viewBox="0 0 60 60" style="enable-background:new 0 0 60 60;">
	<path d="M38.4,15.9c1.2-0.5,2.3-0.9,3.4-1.4c1.1-0.5,2.2-0.9,3.3-1.3c0.4-0.1,0.9-0.2,1.3,0c3.4,1.1,6.9,2.2,10.3,3.4c0.6,0.2,0.8,0.5,0.8,1.1c0,10.5,0,21,0,31.5c0,0.7-0.3,1-1,1.2c-8.3,2.1-16.5,4.2-24.8,6.2c-4.5,1.1-8.9,2.3-13.4,3.4c-0.4,0.1-0.9,0-1.2-0.2c-4.5-2.5-9.1-5-13.6-7.4c-0.7-0.4-1-0.8-1-1.7c0-11.7,0-23.5,0-35.2c0-0.7,0.2-1.3,0.9-1.6c0.7-0.3,0.9-0.9,0.8-1.6c-0.2-1.3,0.4-2,1.3-2.8c3.8-3,7.6-6,11.4-9.1c0.5-0.4,1-0.5,1.7-0.3c5.5,2,11,4.1,16.4,6.1c0.8,0.3,1,0.5,1,1.4c0,0,0,0.1,0,0.1c0,0.6-0.2,1.4,0.1,1.8c0.3,0.4,1.1,0.5,1.6,0.7c0.5,0.2,0.7,0.5,0.7,1.1c0,1.3,0,2.6,0,3.9C38.4,15.4,38.4,15.6,38.4,15.9z M15.8,50.5C15.8,50.5,15.8,50.5,15.8,50.5c0-2.3,0-4.7,0-7c0-0.5-0.2-0.7-0.6-0.7c-1.2-0.2-2.3-0.4-3.5-0.7C11.1,42,11,42.1,11,42.8c0,4.2,0,8.4,0,12.5c0,0.4,0.1,0.6,0.5,0.7c1.2,0.6,2.4,1.3,3.6,2c0.6,0.4,0.8,0.3,0.8-0.5C15.8,55.2,15.8,52.9,15.8,50.5z M37,43.4c0,3.5,0,6.9,0,10.4c0,0.7,0.1,0.8,0.8,0.6c2.5-0.6,5.1-1.3,7.6-1.9c0.5-0.1,0.7-0.3,0.7-0.9c0-6.1,0-12.2,0-18.3c0-0.5-0.2-0.7-0.7-0.7c-2.5-0.1-5-0.2-7.5-0.3c-0.8,0-0.8,0-0.8,0.8C37,36.6,37.1,40,37,43.4z M19.7,13.1c0,1.2,0,2.3,0,3.5c0,0.4,0.1,0.6,0.6,0.7c2,0.4,4,0.8,6,1.2c0.6,0.1,0.7-0.1,0.7-0.6c0-2.1,0-4.3,0-6.4c0-0.4-0.1-0.6-0.5-0.7c-2-0.6-4-1.1-6-1.7c-0.6-0.2-0.7-0.1-0.7,0.5C19.7,10.7,19.7,11.9,19.7,13.1z M19.7,24.5C19.7,24.5,19.6,24.5,19.7,24.5c0,1.1,0,2.3,0,3.4c0,0.6,0.2,0.7,0.7,0.8c2,0.1,4,0.3,6,0.5c0.4,0,0.6-0.1,0.6-0.5c0-2.2,0-4.4,0-6.6c0-0.4-0.1-0.5-0.5-0.6c-2-0.3-4.1-0.7-6.1-1c-0.5-0.1-0.7,0.1-0.7,0.6C19.7,22.1,19.7,23.3,19.7,24.5z M19.7,35.8c0,1.2,0,2.3,0,3.5c0,0.5,0.2,0.7,0.7,0.7c2-0.1,3.9-0.2,5.9-0.3c0.6,0,0.8-0.2,0.8-0.8c0-2.1,0-4.2,0-6.2c0-0.5-0.2-0.7-0.7-0.8c-2,0-4-0.1-6-0.2c-0.5,0-0.6,0.1-0.6,0.6C19.7,33.5,19.7,34.6,19.7,35.8z M19.7,47.2c0,1.2,0,2.3,0,3.5c0,0.5,0.2,0.7,0.6,0.6c2-0.3,4-0.7,6-1c0.5-0.1,0.7-0.2,0.7-0.8c0-2.1,0-4.2,0-6.3c0-0.6-0.2-0.7-0.7-0.7c-2,0.2-4,0.4-6,0.5c-0.4,0-0.6,0.2-0.6,0.6C19.7,44.9,19.7,46.1,19.7,47.2z M29.3,15.4C29.3,15.4,29.3,15.4,29.3,15.4c0,1,0,2,0,3c0,0.6,0.2,0.8,0.7,0.9c1.5,0.3,3.1,0.6,4.6,0.9c0.6,0.1,0.7,0,0.7-0.6c0-1.9,0-3.8,0-5.6c0-0.5-0.1-0.7-0.6-0.8c-1.6-0.4-3.1-0.9-4.7-1.3c-0.6-0.2-0.7-0.1-0.7,0.6C29.3,13.4,29.3,14.4,29.3,15.4z M29.3,25.6c0,1,0,2.1,0,3.1c0,0.4,0.1,0.6,0.5,0.6c1.6,0.1,3.2,0.2,4.8,0.4c0.5,0,0.7-0.1,0.7-0.6c0-1.9,0-3.8,0-5.7c0-0.4-0.1-0.6-0.6-0.7c-1.6-0.2-3.2-0.5-4.8-0.8c-0.6-0.1-0.7,0.1-0.7,0.6C29.3,23.6,29.3,24.6,29.3,25.6z M29.3,45.9c0,1,0,2.1,0,3.1c0,0.5,0.2,0.7,0.7,0.6c1.6-0.3,3.2-0.6,4.8-0.8c0.4-0.1,0.5-0.2,0.5-0.6c0-1.9,0-3.9,0-5.8c0-0.5-0.2-0.6-0.7-0.6c-1.6,0.1-3.2,0.3-4.8,0.4c-0.5,0-0.6,0.2-0.6,0.7C29.3,43.9,29.3,44.9,29.3,45.9z M29.3,35.8C29.3,35.8,29.3,35.8,29.3,35.8c0,1,0,2.1,0,3.1c0,0.5,0.2,0.6,0.6,0.6c1.6-0.1,3.2-0.1,4.8-0.2c0.4,0,0.6-0.2,0.6-0.6c0-2,0-3.9,0-5.9c0-0.4-0.1-0.5-0.5-0.6c-1.6,0-3.3-0.1-4.9-0.2c-0.4,0-0.6,0.1-0.6,0.6C29.3,33.7,29.3,34.7,29.3,35.8z M8.2,47.7c0-1.9,0-3.7,0-5.6c0-0.5-0.1-0.7-0.6-0.7c-0.7-0.1-1.5-0.2-2.2-0.4c-0.5-0.1-0.7,0-0.7,0.5c0,3.5,0,6.9,0,10.4c0,0.2,0.2,0.6,0.4,0.7c0.7,0.4,1.5,0.8,2.3,1.2c0.7,0.4,0.8,0.3,0.8-0.5C8.2,51.5,8.2,49.6,8.2,47.7z M15.8,13.8C15.8,13.8,15.8,13.8,15.8,13.8c0-1.1,0-2.3,0-3.4c0-0.6-0.2-0.7-0.7-0.4c-1.2,0.8-2.5,1.6-3.7,2.3C11.1,12.5,11,12.7,11,13c0,2,0,4,0,6c0,0.6,0.1,0.7,0.7,0.5c1.2-0.5,2.4-1.1,3.6-1.6c0.4-0.2,0.5-0.4,0.5-0.8C15.8,16,15.8,14.9,15.8,13.8z M15.8,24.8C15.8,24.8,15.8,24.8,15.8,24.8c0-1.2,0-2.3,0-3.5c0-0.5-0.2-0.6-0.6-0.5c-1.3,0.4-2.5,0.9-3.8,1.4c-0.2,0.1-0.4,0.4-0.4,0.6c0,2,0,4.1,0,6.1c0,0.5,0.2,0.6,0.7,0.6c1.2-0.2,2.4-0.4,3.7-0.6c0.4-0.1,0.5-0.2,0.5-0.6C15.8,27.1,15.8,25.9,15.8,24.8z M15.8,35.9c0-1.2,0-2.3,0-3.5c0-0.5-0.2-0.6-0.6-0.6c-1.2,0.1-2.5,0.2-3.7,0.3c-0.4,0-0.5,0.2-0.5,0.6c0,2.1,0,4.1,0,6.2c0,0.2,0.3,0.5,0.4,0.5c1.2,0.2,2.5,0.3,3.7,0.4c0.5,0.1,0.6-0.1,0.6-0.6C15.8,38.1,15.8,37,15.8,35.9z M47.2,19.8c0,0.8,0,1.6,0,2.5c0,0.4,0.2,0.5,0.5,0.6c0.9,0.2,1.9,0.4,2.8,0.6c0.5,0.1,0.7,0,0.7-0.5c0-1.5,0-3,0-4.5c0-0.4-0.1-0.6-0.5-0.7c-0.9-0.3-1.9-0.5-2.8-0.8c-0.5-0.2-0.7,0-0.7,0.5C47.2,18.3,47.2,19,47.2,19.8z M47.2,43.6c0,0.8,0,1.6,0,2.4c0,0.5,0.2,0.7,0.7,0.6c0.9-0.2,1.8-0.3,2.7-0.5c0.4-0.1,0.6-0.2,0.6-0.7c0-1.5,0-3,0-4.5c0-0.5-0.2-0.6-0.7-0.6c-0.9,0.1-1.9,0.2-2.8,0.2c-0.4,0-0.5,0.2-0.5,0.6C47.2,42,47.2,42.8,47.2,43.6z M47.2,27.8c0,0.8,0,1.6,0,2.5c0,0.3,0.1,0.5,0.4,0.6c1,0.1,2,0.2,3,0.2c0.4,0,0.6-0.2,0.6-0.6c0-1.5,0-3,0-4.5c0-0.4-0.1-0.6-0.6-0.7c-0.9-0.1-1.9-0.3-2.8-0.5c-0.5-0.1-0.7,0.1-0.6,0.6C47.2,26.2,47.2,27,47.2,27.8z M51.2,35.7C51.2,35.7,51.2,35.7,51.2,35.7c0-0.8,0-1.6,0-2.3c0-0.3-0.1-0.5-0.5-0.5c-1,0-2-0.1-2.9-0.1c-0.4,0-0.6,0.1-0.6,0.6c0,1.6,0,3.2,0,4.9c0,0.4,0.2,0.6,0.6,0.5c1-0.1,1.9-0.1,2.9-0.1c0.4,0,0.5-0.2,0.5-0.6C51.2,37.3,51.2,36.5,51.2,35.7z M8.2,17.8c0-0.9,0-1.8,0-2.8c0-0.5-0.2-0.7-0.6-0.4c-0.8,0.5-1.7,1-2.5,1.6c-0.2,0.1-0.3,0.4-0.3,0.6c0,1.7,0,3.3,0,5c0,0.5,0.2,0.6,0.7,0.4c0.8-0.3,1.6-0.7,2.4-1c0.4-0.1,0.5-0.4,0.5-0.7C8.2,19.6,8.2,18.7,8.2,17.8z M8.2,26.8C8.2,26.8,8.2,26.8,8.2,26.8c0-0.9,0-1.9,0-2.8c0-0.5-0.2-0.6-0.6-0.4c-0.8,0.3-1.6,0.6-2.4,0.8c-0.3,0.1-0.5,0.3-0.5,0.7c0,1.7,0,3.3,0,5c0,0.5,0.2,0.6,0.6,0.5c0.8-0.1,1.6-0.3,2.4-0.4c0.4-0.1,0.5-0.2,0.5-0.6C8.2,28.6,8.2,27.7,8.2,26.8z M8.2,35.8c0-0.9,0-1.9,0-2.8c0-0.4-0.1-0.6-0.5-0.5c-0.8,0.1-1.6,0.1-2.4,0.2c-0.3,0-0.5,0.1-0.5,0.5c0,1.7,0,3.4,0,5.1c0,0.2,0.2,0.5,0.4,0.5C6,38.9,6.8,39,7.6,39.1c0.4,0.1,0.6-0.1,0.6-0.6C8.2,37.6,8.2,36.7,8.2,35.8z M52,28.3c0,0.7,0,1.5,0,2.2c0,0.4,0.2,0.6,0.6,0.6c0.8,0,1.5,0.1,2.3,0.2c0.4,0,0.6-0.1,0.6-0.5c0-1.4,0-2.9,0-4.3c0-0.2-0.3-0.5-0.4-0.5c-0.8-0.2-1.7-0.3-2.5-0.4c-0.5-0.1-0.6,0.1-0.6,0.5C52.1,26.9,52,27.6,52,28.3z M52.1,21c0,0.7,0,1.5,0,2.2c0,0.2,0.2,0.5,0.4,0.6c0.8,0.2,1.6,0.3,2.5,0.5c0.5,0.1,0.6-0.1,0.6-0.5c0-1.4,0-2.8,0-4.2c0-0.4-0.2-0.5-0.5-0.6c-0.8-0.2-1.6-0.4-2.4-0.7c-0.5-0.2-0.7,0.1-0.7,0.5C52.1,19.6,52.1,20.3,52.1,21z M52,43c0,0.7,0,1.4,0,2.2c0,0.5,0.2,0.7,0.7,0.6c0.8-0.1,1.6-0.3,2.4-0.4c0.4-0.1,0.5-0.2,0.5-0.6c0-1.4,0-2.8,0-4.2c0-0.4-0.2-0.6-0.6-0.5c-0.8,0.1-1.7,0.2-2.5,0.2c-0.4,0-0.5,0.2-0.5,0.6C52,41.6,52,42.3,52,43z M52.1,35.7c0,0.7,0,1.5,0,2.2c0,0.4,0.1,0.6,0.6,0.6c0.8-0.1,1.7-0.1,2.5-0.1c0.2,0,0.4-0.3,0.4-0.5c0-1.4,0-2.8,0-4.3c0-0.4-0.2-0.5-0.5-0.6c-0.8,0-1.6,0-2.4-0.1c-0.4,0-0.6,0.1-0.6,0.6C52.1,34.3,52.1,35,52.1,35.7z"/>
	<path d="M45,43.2c0,2.8,0,5.6,0,8.4c0,0.8-0.1,0.8-0.8,0.7c-1.8-0.4-3.6-0.8-5.4-1.2c-0.4-0.1-0.5-0.3-0.5-0.7c0-5.4,0-10.8,0-16.2c0-0.4,0.2-0.6,0.6-0.6c1.8,0.1,3.6,0.2,5.4,0.3c0.5,0,0.6,0.2,0.6,0.7C45,37.5,45,40.4,45,43.2z"/>
</svg>
