<?xml version="1.0" encoding="utf-8"?>
<svg version="1.1" fill="#858585" viewBox="0 0 64 64" xmlns="http://www.w3.org/2000/svg" style="enable-background:new 0 0 64 64;">
<g>
	<path d="M63.8,57.3c-0.5,0.6-1.1,0.5-1.8,0.5c-0.2,0-0.5-0.2-0.5-0.3c0-0.2,0-0.6,0.2-0.7c0.4-0.3,0.9-0.5,1.4-0.7
		c0.3,0.5,0.5,0.8,0.8,1.2C63.8,57.2,63.8,57.2,63.8,57.3z"/>
	<path d="M48.4,30.2c-0.2-0.7-0.4-1.3-0.7-2c-0.1-0.2-0.4-0.3-0.7-0.4c-1-0.3-1-0.3-1-1.4c0-1.3,0-2.5,0-3.9c1.2,0,2.4,0,3.7,0
		c0-0.6,0-1.1,0-1.7c0-0.4,0.1-0.6,0.5-0.7c0.6-0.1,1.1-0.3,1.8-0.5c-0.1-0.7-0.2-1.4-0.4-2.1c-0.6,0-1.2,0-1.8,0c0-1.6,0-3.1,0-4.7
		c1.7,0,3.4,0,5.1,0c0-1,0-1.9,0-2.9c2.6,0,5.1,0,7.6,0c0,15.2,0,30.5,0,45.7c-0.7,0.4-1.5,0.7-1.5,1.7c-1,0-2,0-3,0
		c-0.1,0-0.3-0.1-0.4-0.2c-0.5-0.3-1-0.6-1.5-1c-1-0.7-1.9-1.3-3-1.8c-0.4-0.2-0.7-0.2-1,0.2c0,0-0.1,0.1-0.1,0.1
		c-0.9,0.7-1.7,1.3-1,2.7c-1,0-1.8,0-2.7,0c-0.1,0-0.2-0.1-0.4-0.2c-0.7-0.4-1.4-0.8-2.1-1.2c-0.1-0.1-0.3,0-0.4,0.1
		c-0.4,0.4-0.8,0.8-1.2,1.2c-0.1,0.1-0.3,0.1-0.4,0.1c-1,0-2,0-3,0c0.1-0.6-0.6-1.6-1.3-1.8c-0.3-0.1-0.5-0.2-0.8-0.2
		c-0.5-0.1-0.9-0.3-1.2-0.8c-0.3-0.6-0.9-0.9-1.5-1c-0.4-0.1-0.6-0.3-0.6-0.8c0-0.4,0-0.8,0-1.2c2.1,0,4.1,0,6.2,0c0-1,0-2,0-3
		c1.6,0.2,3.1,0.3,4.7,0.5c0.1-0.9,0.1-1.8,0.2-2.6c0-0.1-0.1-0.2-0.2-0.3c-0.2-0.2-0.5-0.4-0.8-0.5c-1.2-0.5-1.4-1.4-1.2-2.6
		c0.1-0.6,0.1-1-0.7-1c-0.5,0-1-0.1-1.5-0.2c-0.2,0-0.4-0.2-0.4-0.4c0-0.9,0-1.9,0-2.9c1.5,0,2.9,0,4.4,0c0-0.4,0-0.7,0-1
		c0-1.8,0-3.6,0-5.3c0-0.4,0.1-0.6,0.4-0.7C47.1,31.1,47.7,30.7,48.4,30.2z M53.9,27.7c1.8,0,3.5,0,5.2,0c0-0.7,0-1.3,0-1.9
		c-1.8,0-3.5,0-5.2,0C53.9,26.4,53.9,27,53.9,27.7z M52.8,40.8c0,0.7,0,1.3,0,1.9c1.8,0,3.5,0,5.2,0c0-0.7,0-1.3,0-1.9
		C56.3,40.8,54.5,40.8,52.8,40.8z M52.8,49.2c1.8,0,3.5,0,5.2,0c0-0.7,0-1.3,0-1.9c-1.8,0-3.5,0-5.2,0
		C52.8,47.9,52.8,48.5,52.8,49.2z M59.6,43.9c-1.8,0-3.5,0-5.2,0c0,0.7,0,1.3,0,1.9c1.8,0,3.5,0,5.2,0
		C59.6,45.2,59.6,44.6,59.6,43.9z M57.7,22.5c-1.7,0-3.3,0-4.9,0c-0.1,0-0.3,0.2-0.3,0.3c0,0.5,0,1.1,0,1.6c1.8,0,3.5,0,5.3,0
		C57.7,23.8,57.7,23.2,57.7,22.5z M56.4,30.8c0-0.6,0-1.3,0-1.9c-1.8,0-3.5,0-5.2,0c0,0.7,0,1.3,0,1.9C53,30.8,54.7,30.8,56.4,30.8z
		"/>
	<path d="M20.9,39.8c0.1,1.4,0.4,2.9,0.4,4.4c0,3.6-1.3,6.9-3.2,9.9c-0.4,0.6-0.8,1.2-1.3,1.8c-0.8,1.1-2.2,1.4-3.3,0.6
		c-1.1-0.8-1.2-2.2-0.4-3.3c1.3-1.8,2.5-3.7,3.1-5.9c0.8-2.9,0.7-5.7-0.8-8.5c-0.3-0.5-0.4-1.2-0.5-1.7c3.4-1.8,7-2.7,10.7-2.8
		c3.8-0.1,6.7,2,8,5.6c0.5,1.5,0.8,3,0.8,4.6c0,1.3-0.9,2.3-2.2,2.3c-1.3,0-2.2-0.9-2.4-2.2c-0.1-1.1-0.3-2.2-0.6-3.2
		c-0.7-2-2.1-2.6-4.1-2.5c-1,0.1-2,0.4-3.1,0.7C21.6,39.6,21.2,39.7,20.9,39.8z"/>
	<path d="M10.2,12c-0.2,0.3-0.3,0.6-0.5,0.9c-0.2,0.3-0.2,0.8-0.7,0.6c-0.1,0-0.3,0.4-0.4,0.6c-0.7,1.2-0.5,1.4-1.9,0.5
		c-0.7-0.4-1.4-0.8-2.1-1.2C4.2,13.2,4,13,4.3,12.6c0.2-0.3,0.4-0.6,0.5-0.9c0.1-0.2,0.5-0.5,0.1-0.8c0,0,0.1-0.3,0.1-0.4
		C5.7,9.4,6.4,8.2,7.1,7c0-0.1,0.1-0.2,0.1-0.2C8,6.7,8.1,5.9,8.4,5.4C8.7,5,8.9,4.9,9.3,5.2c0.9,0.6,1.9,1.1,2.8,1.6
		c0.4,0.2,0.5,0.4,0.2,0.8c-0.2,0.3-0.3,0.6-0.5,0.9c-0.1,0.2-0.5,0.5-0.1,0.8c0,0,0,0.2-0.1,0.3c-0.2,0.4-0.4,0.8-0.7,1.3
		c4.2,2.3,8.4,4.7,12.6,7c-0.4,0.4-0.8,0.9-1.2,1.3C18.3,16.7,14.3,14.4,10.2,12z"/>
	<path d="M16.8,21.5c-0.2,1.1-0.4,2-0.5,2.9c1.1,0.1,1.9-0.2,2.7-0.8c1.5-1.1,2.6-2.6,3.6-4.2c0.1-0.2,0.3-0.5,0.4-0.7
		c0.5-0.6,1.2-0.8,1.9-0.4c0.6,0.4,0.9,1.2,0.6,1.8c-1.4,2.5-3.1,4.8-5.6,6.3c-1.1,0.7-2.4,0.9-3.7,0.8c-0.4,0-0.6,0.1-0.7,0.5
		c-0.3,1.3-0.7,2.7-1.2,4c0-1.3-0.1-2.7,0-4c0-0.7,0.1-1.4-0.6-1.9c-0.6-0.5-0.9-1.3-0.9-2.1c0-1.2,0.8-2.1,2-2.3
		C15.5,21.4,16.1,21.5,16.8,21.5z"/>
	<path d="M27.8,19.6c-2.7-1.5-5.3-2.9-8-4.4c0.2-1.5,1.7-3.1,3.4-3.2c2.5-0.3,4.3,1.1,4.8,3.6c0,0.1,0.1,0.2,0.2,0.3
		c0.1,0.2,0.5,0.5,0.4,0.6c0,0.2-0.4,0.3-0.6,0.5c0,0-0.1,0-0.1,0.1c0,0.5,0,1,0,1.6C28,19,27.9,19.3,27.8,19.6z"/>
	<path d="M24.5,26.7c-0.1,1.5-0.2,2.9-0.2,4.3c-1.1-1.1-0.9-5,0.2-7.6c1.3,0.6,2.6,1.2,3.9,1.8c0.3-0.5,0.6-0.9,1-1.4
		c0.8,0.5,1.6,1,2.5,1.5c-0.6,0.9-1.2,1.8-1.9,2.7c-0.4,0.6-1.1,0.7-1.8,0.3c-1-0.4-1.9-0.9-2.9-1.4C25.1,26.9,24.9,26.8,24.5,26.7z
		"/>
	<path d="M8.8,56.3c-1,1.3-2.3,1-3.5,1.1c-0.1,0-0.3-0.1-0.4-0.2c-0.5-1-1.4-1.2-2.4-1.4c-0.3-0.1-0.6-0.1-0.6-0.5
		c0-0.4,0.2-0.6,0.5-0.8c1-0.5,1.9-1,2.9-1.5c0.3-0.2,0.5-0.1,0.8,0c1.2,0.3,2,1.1,2.3,2.4C8.5,55.6,8.7,56,8.8,56.3z"/>
	<path d="M25.6,21.1c0.2-0.7,0.4-1.2,0.6-1.8c2.8,1.6,5.7,3.1,8.6,4.8c-0.4,0.6-0.7,1.2-1.1,1.9C31,24.3,28.2,22.7,25.6,21.1z"/>
	<path d="M32.2,57c-0.4-0.1-0.6-0.3-0.4-0.6c0.1-0.3,0.2-0.6,0.2-1c0.1-0.9,0.6-1.5,1.5-1.8c0.3-0.1,0.6-0.1,0.9-0.1
		c0.5,0.1,1,0.3,1.5,0.4c0.6,0.1,1.1,0.5,1.4,1.1c-0.6,0.4-1.3,0.9-2,1.4C34,55.8,32.9,56,32.2,57z"/>
	<path d="M40.5,57c-0.4,0.4-0.7,1-1.1,1c-1,0.1-2.1,0.3-3-0.2c-0.4-0.2-0.4-1.4,0-1.7c1-1,2.1-0.6,3.2-0.1
		C39.9,56.2,40.2,56.6,40.5,57z"/>
	<path d="M0.2,57c1.8-1.3,3.2-1.1,4.4,0.5c-0.4,0.8-0.9,1.3-1.9,1.2c-0.6-0.1-1.2-0.1-1.8-0.1c-0.5-0.1-0.7-0.3-0.7-0.8
		C0.3,57.5,0.2,57.2,0.2,57z"/>
	<path d="M53.9,57.9c-0.7-0.1-1.5-0.1-2.2-0.3c-0.6-0.1-0.9-1.3-0.4-1.8c0,0,0,0,0,0c0.4-0.3,0.9-1,1.3-0.9c0.8,0.2,1.6,0.7,2.6,1.1
		c-0.4,0.4-0.7,0.6-0.9,0.8c-0.2,0.3-0.3,0.6-0.4,0.9C53.9,57.7,53.9,57.8,53.9,57.9z"/>
	<path d="M22.2,57c-0.8,0.8-2.1,1-2.9,0.6c-0.1-0.1-0.2-0.2-0.2-0.2c0-0.3-0.3-0.7,0.1-1c0.4-0.3,0.7-0.9,1.3-0.4
		C21,56.3,21.6,56.6,22.2,57z"/>
	<path d="M31.8,59.1c-0.9,1-1.9,0.9-2.9,0.6c-0.1,0-0.3-0.2-0.3-0.4c-0.3-0.7,0.3-0.9,0.6-1.3c0.3-0.4,0.6-0.1,0.9,0
		C30.6,58.3,31.1,58.7,31.8,59.1z"/>
	<path d="M47.9,57.7c-0.7,0.8-2.3,1-2.9,0.6c-0.2-0.1-0.3-0.4-0.3-0.7c-0.1-0.6,0.9-1.3,1.4-1C46.7,56.9,47.3,57.3,47.9,57.7z"/>
	<path d="M57.6,57.6c-0.7,0.8-2.2,1.1-2.9,0.6c-0.1-0.1-0.2-0.2-0.2-0.3c-0.1-0.4-0.2-0.7,0.2-1c0.4-0.3,0.7-0.8,1.3-0.4
		C56.4,57,57,57.3,57.6,57.6z"/>
	<path d="M25.4,58.1c-0.4-0.2-1-0.2-1.1-0.5c-0.4-0.6,0.1-1,0.6-1.3c0.4-0.2,0.8-0.3,1.2-0.4c0.1,0,0.3,0.2,0.4,0.3
		C27.1,57.5,26.9,57.9,25.4,58.1z"/>
	<path d="M34.2,58.2c-0.3-0.1-0.7,0-1-0.2c-0.2-0.1-0.4-0.4-0.5-0.7c0-0.2,0.2-0.4,0.3-0.6c0.7-0.6,1.4-0.3,2,0
		c0.2,0.1,0.4,0.5,0.3,0.8c0,0.3-0.2,0.7-0.7,0.6C34.5,58.1,34.4,58.2,34.2,58.2C34.2,58.2,34.2,58.2,34.2,58.2z"/>
	<path d="M9.7,58.4c-0.3,0-0.6-0.1-0.8-0.1c-0.5,0-0.6-0.4-0.5-0.7c0-0.2,0.2-0.4,0.4-0.6c0.6-0.6,1.3-0.3,1.9,0
		c0.2,0.1,0.2,0.7,0.2,1c0,0.1-0.3,0.3-0.5,0.3C10,58.4,9.8,58.4,9.7,58.4C9.7,58.4,9.7,58.4,9.7,58.4z"/>
	<path d="M19.9,18.2c0.8,0.5,1.5,0.9,2.2,1.3c-0.4,0.5-0.7,1-1.1,1.5C20.3,20.2,19.9,19.4,19.9,18.2z"/>
	<path d="M17.8,21.9c0.7,0.1,1.3,0.3,2.1,0.4c-0.6,0.5-1.2,0.9-1.8,1.4C18,23.1,17.9,22.6,17.8,21.9z"/>
	<path d="M31.1,21.5c1.2-0.7,2.3,0,2.3,1.2c-0.2-0.1-0.3-0.1-0.4-0.2C32.4,22.2,31.8,21.8,31.1,21.5z"/>
	<path d="M26,21.8c-0.4,0.1-0.7,0.2-1,0.3c0,0-0.1-0.1-0.1-0.1c0.1-0.2,0.2-0.4,0.4-0.6C25.5,21.5,25.6,21.6,26,21.8z"/>
</g>
</svg>
