<?xml version="1.0" encoding="utf-8"?>
<svg version="1.1" fill="#cccccc" xmlns="http://www.w3.org/2000/svg" viewBox="0 0 90 90" style="enable-background:new 0 0 90 90;">
<g>
	<path d="M45,0C20.1,0,0,20.1,0,45s20.1,45,45,45s45-20.1,45-45S69.9,0,45,0z M45,82.5C24.3,82.5,7.5,65.7,7.5,45
		S24.3,7.5,45,7.5S82.5,24.3,82.5,45S65.7,82.5,45,82.5z"/>
	<g>
		<path d="M43.9,39.4v11.5c0,2.6-0.1,4.5-0.4,5.7s-0.9,2.3-1.8,3.3c-0.9,1-2,1.8-3.2,2.2s-2.7,0.7-4.2,0.7
			c-2.1,0-3.8-0.2-5.1-0.7c-1.4-0.5-2.4-1.2-3.3-2.2c-0.8-1-1.4-2.1-1.7-3.2c-0.3-1.1-0.5-2.9-0.5-5.3v-12c0-3.2,0.3-5.5,0.8-7.1
			c0.5-1.6,1.6-2.8,3.3-3.8c1.6-0.9,3.6-1.4,5.9-1.4c1.9,0,3.6,0.3,5.1,1c1.5,0.7,2.6,1.5,3.3,2.4c0.7,0.9,1.2,2,1.5,3.2
			C43.8,34.9,43.9,36.8,43.9,39.4z M35.4,36.6c0-1.8-0.1-3-0.3-3.4c-0.2-0.5-0.6-0.7-1.2-0.7c-0.6,0-1.1,0.2-1.3,0.7
			c-0.2,0.5-0.3,1.6-0.3,3.4v16.8c0,2,0.1,3.2,0.3,3.6c0.2,0.4,0.6,0.6,1.2,0.6s1.1-0.2,1.3-0.7c0.2-0.5,0.3-1.6,0.3-3.3V36.6z"/>
	</g>
	<g>
		<path d="M65.1,56.3h-8.7v6.6h-4.8v-6.6h-3.2v-3.7h3.2V49h-3.2v-3.7h3.2V27.8c1.8-0.1,3.3-0.1,4.4-0.2
			c1.1,0,1.8-0.1,2.2-0.1c2.3,0,4.3,0.2,6,0.6c1.8,0.4,3.2,1,4.5,1.9c1.2,0.8,2.1,1.9,2.8,3.2c0.6,1.3,0.9,2.8,0.9,4.5
			c0,2-0.3,3.7-0.8,5.1c-0.5,1.4-1.3,2.6-2.4,3.5c-1.1,0.9-2.4,1.6-4,2S61.8,49,59.7,49h-3.3v3.6h8.7V56.3z M56.4,32v13.2h3.2
			c1.5,0,2.7-0.1,3.7-0.4c1-0.3,1.8-0.7,2.5-1.3c0.6-0.6,1.1-1.3,1.3-2.2c0.3-0.9,0.4-1.9,0.4-3.1c0-1.1-0.2-2-0.6-2.8
			c-0.4-0.8-0.9-1.5-1.7-2c-0.7-0.5-1.6-0.9-2.7-1.2c-1.1-0.3-2.3-0.4-3.6-0.4c-0.3,0-0.7,0-1.1,0.1C57.5,31.9,57,31.9,56.4,32z"/>
	</g>
</g>
</svg>
