<?xml version="1.0" encoding="utf-8"?>
<!-- Generator: Adobe Illustrator 23.0.2, SVG Export Plug-In . SVG Version: 6.00 Build 0)  -->
<svg version="1.1" id="Слой_1" xmlns="http://www.w3.org/2000/svg" xmlns:xlink="http://www.w3.org/1999/xlink" x="0px" y="0px"
	 viewBox="0 0 64 24" style="enable-background:new 0 0 64 24;" xml:space="preserve">
<style type="text/css">
	.st0{fill:#FFFFFF;}
</style>
<path class="st0" d="M38.5,20.1l0.9-1.3l3.9,4.4h5.3l-7-7.8l6.2-9h-4.8l-4.6,6.7V0.5h-4v22.7h4V20.1z M23.1,20.1l0.9-1.3l3.9,4.4
	h5.3l-7-7.8l6.2-9h-4.8l-4.6,6.7V0.5h-4v22.7h4L23.1,20.1z M46.5,14.6c0,4.9,3.9,8.8,8.8,8.8c4.8,0,8.8-3.9,8.8-8.8
	c0-4.9-3.9-8.8-8.8-8.8C50.4,5.8,46.5,9.7,46.5,14.6z M8.8,5.8C3.9,5.8,0,9.7,0,14.6c0,4.9,3.9,8.8,8.8,8.8c4.8,0,8.8-3.9,8.8-8.8
	C17.5,9.7,13.6,5.8,8.8,5.8z M8.7,0.1c-1.1,0-2,0.9-2,2c0,1.1,0.9,2,2,2s2-0.9,2-2C10.7,1,9.8,0.1,8.7,0.1z M14,0.1
	c-1.1,0-2,0.9-2,2c0,1.1,0.9,2,2,2s2-0.9,2-2C16,1,15.1,0.1,14,0.1z M3.9,0.1c-1.1,0-2,0.9-2,2c0,1.1,0.9,2,2,2s2-0.9,2-2
	C5.9,1,5,0.1,3.9,0.1z M4,14.6C4,12,6.1,9.8,8.8,9.8c2.6,0,4.8,2.2,4.8,4.8s-2.1,4.8-4.8,4.8C6.1,19.4,4,17.3,4,14.6z M50.4,14.6
	c0-2.7,2.1-4.8,4.8-4.8c2.6,0,4.8,2.2,4.8,4.8s-2.1,4.8-4.8,4.8C52.6,19.4,50.4,17.3,50.4,14.6z"/>
</svg>
