<?xml version="1.0" encoding="utf-8"?>
<!-- Generator: Adobe Illustrator 23.0.2, SVG Export Plug-In . SVG Version: 6.00 Build 0)  -->
<svg version="1.1" id="Слой_1" xmlns="http://www.w3.org/2000/svg" xmlns:xlink="http://www.w3.org/1999/xlink" x="0px" y="0px"
	 viewBox="0 0 60 60" style="enable-background:new 0 0 60 60;" xml:space="preserve">
<style type="text/css">
	.st0{fill:#449B06;}
	.st1{fill:#0C84E2;}
	.st2{fill:#479C0B;}
	.st3{fill:#0B8EE6;}
	.st4{fill:#0DA5EA;}
	.st5{fill:#7BBD0A;}
</style>
<g>
	<g>
		<path class="st0" d="M6.8,48.3c0,1.5,0,2.9,0,4.4c0,0.3-0.1,0.3-0.3,0.3c-0.4,0-0.7,0-1.1,0c-0.3,0-0.3-0.1-0.3-0.3
			c0-1.5,0-3,0-4.6c0-0.9,0-1.7,0-2.6c0-0.2,0-0.2-0.2-0.2c-1,0-1.9,0-2.9,0c-0.3,0-0.2,0.1-0.2,0.3c0,2.4,0,4.7,0,7.1
			c0,0.3-0.1,0.4-0.4,0.3c-0.4,0-0.7,0-1.1,0C0.1,53,0,52.9,0,52.7c0-1.8,0-3.6,0-5.5c0-1.1,0-2.2,0-3.3c0-0.2,0.1-0.3,0.3-0.3
			c2.1,0,4.1,0,6.2,0c0.3,0,0.3,0.1,0.3,0.3C6.8,45.4,6.8,46.8,6.8,48.3z"/>
		<path class="st1" d="M32.3,48.3c0-1.5,0-2.9,0-4.4c0-0.2,0-0.3,0.3-0.3c2.1,0,4.2,0,6.3,0c0.2,0,0.3,0.1,0.3,0.3
			c0,2.9,0,5.9,0,8.8c0,0.2,0,0.3-0.3,0.3c-0.4,0-0.8,0-1.2,0c-0.3,0-0.3-0.1-0.3-0.3c0-2.3,0-4.7,0-7c0-0.3,0-0.4-0.3-0.4
			c-0.9,0-1.8,0-2.7,0c-0.3,0-0.3,0.1-0.3,0.3c0,2.3,0,4.7,0,7c0,0.3-0.1,0.4-0.4,0.4c-0.4,0-0.7,0-1.1,0c-0.2,0-0.3,0-0.3-0.3
			C32.3,51.2,32.3,49.8,32.3,48.3z"/>
		<path class="st1" d="M58.7,48.3c-0.5,1.4-1,2.8-1.5,4.2c-0.1,0.2-0.1,0.4-0.2,0.5c-0.3,0.1-0.6,0-0.9,0C56,53,56,52.8,56,52.7
			c-0.5-1.4-1-2.8-1.4-4.2c0-0.1-0.1-0.2-0.2-0.3c0,1.3,0,2.7,0,4c0,0.7,0,0.7-0.7,0.7c-0.6,0-0.6,0-0.6-0.5c0-1.9,0-3.8,0-5.7
			c0-0.3,0.1-0.3,0.3-0.3c0.3,0,0.7,0,1,0c0.2,0,0.4,0.1,0.4,0.3c0.5,1.6,1.1,3.2,1.6,4.7c0.5-1.3,0.9-2.6,1.4-3.9
			c0.1-0.3,0.2-0.6,0.3-0.9c0-0.1,0.1-0.2,0.3-0.2c0.4,0,0.8,0,1.2,0c0.2,0,0.2,0,0.2,0.2c0,2,0,4.1,0,6.1c0,0.2-0.1,0.2-0.2,0.2
			c-0.3,0-0.7,0.1-0.9-0.1c-0.2-0.2-0.1-0.6-0.1-0.9c0-1.1,0-2.2,0-3.3C58.8,48.6,58.8,48.4,58.7,48.3
			C58.8,48.3,58.7,48.3,58.7,48.3z M54.3,48.5C54.2,48.5,54.2,48.5,54.3,48.5c-0.1,1.4-0.1,2.8-0.1,4.3c0,0,0,0,0.1,0
			C54.3,51.4,54.3,50,54.3,48.5z"/>
		<path class="st1" d="M48.7,53.1c-1.9,0-3.5-1.6-3.4-3.5c0-1.9,1.7-3.4,3.5-3.3c1.9,0.1,3.4,1.6,3.4,3.5
			C52.1,51.7,50.6,53.2,48.7,53.1z M46.6,49.6c0,1.2,0.9,2.3,2.1,2.3c1.2,0,2.2-1,2.3-2.2c0-1.2-0.9-2.3-2.1-2.3
			C47.6,47.5,46.6,48.4,46.6,49.6z"/>
		<path class="st2" d="M26.3,48.3c-0.3,0.1-0.6-0.1-1-0.3c-0.9-0.7-2.1-0.6-2.9,0.2c-0.8,0.9-0.8,2.2-0.1,3c0.8,0.9,2.1,1,3,0.2
			c0.2-0.2,0.3-0.2,0.6-0.2c0.3,0,0.6,0,0.8,0c0.2,0,0.2,0.1,0.1,0.2c-0.5,1-1.4,1.6-2.5,1.7c-1.7,0.2-3.2-0.7-3.7-2.3
			c-0.7-2.2,1-4.3,3-4.4c1.4-0.1,2.4,0.5,3.1,1.6c0.2,0.3,0.2,0.3-0.2,0.3C26.6,48.3,26.4,48.3,26.3,48.3z"/>
		<path class="st2" d="M13.8,53c0.4-0.9,0.7-1.8,1.1-2.7c0.5-1.2,1-2.4,1.5-3.6c0.1-0.2,0.2-0.3,0.4-0.3c0.6,0,0.7,0,0.9,0.6
			c0.8,1.9,1.6,3.8,2.4,5.7c0,0.1,0.1,0.2,0.1,0.3c-0.4,0-0.8,0-1.2,0c-0.2,0-0.2-0.1-0.2-0.2c-0.2-0.4-0.4-0.8-0.5-1.3
			c-0.1-0.2-0.2-0.2-0.3-0.2c-0.6,0-1.2,0-1.9,0c-0.2,0-0.2,0-0.3,0.2c-0.2,0.4-0.4,0.8-0.5,1.2c-0.1,0.2-0.2,0.3-0.4,0.3
			C14.5,53,14.2,53,13.8,53z M16.2,50.2c0.5,0,0.9,0,1.4,0c0.2,0,0.2-0.1,0.1-0.2c-0.1-0.3-0.2-0.5-0.3-0.8
			c-0.1-0.4-0.3-0.7-0.4-1.1C16.7,48.9,16.5,49.5,16.2,50.2z"/>
		<path class="st1" d="M40.7,49.7c0-1,0-2,0-2.9c0-0.3,0.1-0.3,0.3-0.3c0.7,0,1.3,0,2,0c0.9,0,1.7,0.7,1.9,1.6c0.2,1-0.4,2-1.3,2.3
			c-0.4,0.1-0.9,0.1-1.4,0.1c-0.3,0-0.3,0.1-0.3,0.3c0,0.6,0,1.3,0,1.9c0,0.2-0.1,0.3-0.3,0.3c-0.3,0-0.7,0.1-0.9-0.1
			c-0.2-0.2-0.1-0.6-0.1-0.9C40.7,51.3,40.7,50.5,40.7,49.7z M41.9,48.4c0,1,0,1,1,0.8c0,0,0.1,0,0.1,0c0.4-0.1,0.6-0.4,0.6-0.8
			c0-0.4-0.2-0.7-0.6-0.8c-0.2-0.1-0.5-0.1-0.8-0.1c-0.5,0-0.4,0-0.4,0.4C41.9,48.1,41.9,48.3,41.9,48.4z"/>
		<path class="st2" d="M13.7,53c-0.4,0-0.8,0-1.2,0c-0.2,0-0.3-0.1-0.3-0.2c-0.5-1.4-0.9-2.7-1.4-4.1c0-0.1-0.1-0.2-0.2-0.3
			c-0.2,0.8-0.5,1.5-0.7,2.3c-0.2,0.7-0.4,1.4-0.7,2.1C9.2,52.9,9.2,53,9,53c-0.4,0-0.8,0-1.2,0c0.3-0.7,0.5-1.3,0.7-1.9
			c0.5-1.4,1.1-2.9,1.6-4.3c0.1-0.2,0.2-0.3,0.4-0.3c0.7,0,0.6,0,0.9,0.7c0.7,1.9,1.4,3.7,2.1,5.6C13.6,52.7,13.6,52.8,13.7,53z"/>
		<path class="st2" d="M28.5,50.3c0-0.8,0-1.6,0-2.4c0-0.2-0.1-0.3-0.3-0.3c0,0,0,0,0,0c-1,0-1,0-0.9-1c0-0.1,0.1-0.2,0.2-0.2
			c1.1,0,2.2,0,3.3,0c0.1,0,0.2,0,0.2,0.2c0.1,1,0.1,1-0.9,1c-0.3,0-0.3,0.1-0.3,0.3c0,1.6,0,3.2,0,4.7c0,0.3-0.1,0.3-0.3,0.3
			c-0.3,0-0.7,0.1-0.9-0.1c-0.1-0.2,0-0.5-0.1-0.8C28.5,51.5,28.5,50.9,28.5,50.3z"/>
		<path class="st3" d="M54.3,48.5c0,1.4,0,2.8,0,4.3c0,0,0,0-0.1,0C54.2,51.4,54.2,50,54.3,48.5C54.2,48.5,54.2,48.5,54.3,48.5z"/>
	</g>
</g>
<polygon class="st4" points="32.9,36.1 37.4,40.5 52.3,25.6 52.3,21 52.3,21 39.6,8.3 39.6,8.3 35.2,8.3 20.1,23.3 24.6,27.8 
	37.4,15 45.6,23.3 "/>
<polygon class="st5" points="29.1,10.5 24.6,6 9.7,20.9 9.7,25.5 9.7,25.5 22.4,38.2 22.4,38.2 26.8,38.2 41.8,23.2 37.3,18.7 
	24.6,31.5 16.3,23.2 "/>
</svg>
