<?xml version="1.0" encoding="utf-8"?>
<!-- Generator: Adobe Illustrator 23.0.2, SVG Export Plug-In . SVG Version: 6.00 Build 0)  -->
<svg version="1.1" id="Слой_1" xmlns="http://www.w3.org/2000/svg" xmlns:xlink="http://www.w3.org/1999/xlink" x="0px" y="0px"
	 viewBox="0 0 60 60" style="enable-background:new 0 0 60 60;" xml:space="preserve">
<style type="text/css">
	.st0{fill:#FF0000;}
	.st1{fill:#FFFFFF;}
</style>
<g>
	<path class="st0" d="M58.7,15.6c-0.7-2.6-2.7-4.6-5.3-5.3C48.8,9,30,9,30,9S11.2,9,6.6,10.3C4,10.9,1.9,13,1.3,15.6
		C0,20.2,0,30,0,30s0,9.8,1.3,14.4C1.9,47,4,49.1,6.6,49.7C11.2,51,30,51,30,51s18.8,0,23.4-1.3c2.6-0.7,4.6-2.7,5.3-5.3
		C60,39.8,60,30,60,30S60,20.2,58.7,15.6z"/>
	<polygon class="st1" points="24,39 39.6,30 24,21 	"/>
</g>
</svg>
